<svg width="70" height="70" viewBox="0 0 70 70" fill="none" xmlns="http://www.w3.org/2000/svg">
<path d="M53.3067 61.5254H30.1113C28.7643 61.5254 27.6719 62.6178 27.6719 63.9542V64.039C27.6719 65.3754 28.7643 66.4678 30.1113 66.4678H53.3067C54.6537 66.4678 55.7461 65.3754 55.7461 64.039V63.9542C55.7461 62.6072 54.6537 61.5254 53.3067 61.5254Z" fill="#363E7B"/>
<path d="M23.1883 49.4347L24.4398 47.5574L22.0852 45.0968L20.2822 46.4013C19.4974 45.8922 18.6489 45.5316 17.7368 45.3089L17.3549 43.0498H14.0246L13.6428 45.3089C12.7201 45.5316 11.8716 45.9028 11.0868 46.4013L9.28374 45.0968L6.9398 47.5574L8.19131 49.4347C7.71404 50.2513 7.34283 51.1422 7.13071 52.0968L4.98828 52.4892V55.968L7.14131 56.3604C7.34283 57.3256 7.71404 58.2059 8.19131 59.0225L6.9398 60.8998L9.28374 63.3604L11.0868 62.0559C11.8716 62.565 12.7201 62.9256 13.6428 63.1483L14.0246 65.4074H17.3549L17.7368 63.1483C18.6489 62.9256 19.4974 62.5543 20.2822 62.0559L22.0852 63.3604L24.4398 60.8998L23.1883 59.0225C23.6549 58.2059 24.0262 57.3256 24.2277 56.3604L26.3913 55.968V52.4892L24.2383 52.0968C24.0262 51.1316 23.6656 50.2407 23.1883 49.4347ZM15.7004 46.624C16.1246 46.624 16.464 46.974 16.464 47.3983C16.464 47.8225 16.1246 48.1725 15.7004 48.1725C15.2549 48.1725 14.9262 47.8225 14.9262 47.3983C14.9262 46.974 15.2549 46.624 15.7004 46.624ZM8.77465 55.0983C8.3504 55.0983 8.0004 54.7589 8.0004 54.3347C8.0004 53.8892 8.3504 53.5604 8.77465 53.5604C9.19889 53.5604 9.54889 53.8998 9.54889 54.3347C9.54889 54.7589 9.19889 55.0983 8.77465 55.0983ZM10.2489 48.8831C10.5565 48.5756 11.0443 48.5862 11.3519 48.8831C11.6489 49.1801 11.6595 49.668 11.3519 49.9862C11.0549 50.2831 10.5671 50.2725 10.2595 49.9756C9.95192 49.6786 9.94131 49.1907 10.2489 48.8831ZM11.3413 59.765C11.0443 60.0619 10.5565 60.0725 10.2489 59.7756C9.94131 59.468 9.95192 58.9801 10.2489 58.6725C10.5459 58.3756 11.0337 58.365 11.3519 58.6725C11.6595 58.9695 11.6489 59.4574 11.3413 59.765ZM15.7004 62.024C15.2549 62.024 14.9262 61.674 14.9262 61.2498C14.9262 60.8256 15.2656 60.4756 15.7004 60.4756C16.1246 60.4756 16.464 60.8256 16.464 61.2498C16.464 61.674 16.1246 62.024 15.7004 62.024ZM15.6898 58.3862C13.4837 58.3862 11.6913 56.5195 11.6913 54.218C11.6913 51.9165 13.4837 50.0498 15.6898 50.0498C17.8959 50.0498 19.6777 51.9165 19.6777 54.218C19.6883 56.5301 17.8959 58.3862 15.6898 58.3862ZM21.1307 59.7756C20.8337 60.0725 20.3459 60.0619 20.0383 59.765C19.7413 59.468 19.7307 58.9801 20.0277 58.6725C20.3352 58.365 20.8231 58.3756 21.1307 58.6725C21.4277 58.9695 21.4383 59.4574 21.1307 59.7756ZM21.1307 49.9756C20.8337 50.2725 20.3459 50.2831 20.0383 49.9862C19.7307 49.6786 19.7413 49.1907 20.0383 48.8831C20.3352 48.5862 20.8231 48.5756 21.1413 48.8831C21.4383 49.1907 21.4277 49.6786 21.1307 49.9756ZM22.6156 55.0983C22.1913 55.0983 21.8413 54.7589 21.8413 54.3347C21.8413 53.8892 22.1913 53.5604 22.6156 53.5604C23.0398 53.5604 23.3898 53.8998 23.3898 54.3347C23.3898 54.7589 23.0398 55.0983 22.6156 55.0983Z" fill="#C03434"/>
<path d="M9.35675 25.8467C9.82341 25.8467 10.1946 25.4648 10.1946 25.0088C10.1946 24.5421 9.81281 24.1709 9.35675 24.1709H6.18554C5.71887 24.1709 5.34766 24.5527 5.34766 25.0088C5.34766 25.4754 5.72947 25.8467 6.18554 25.8467H9.35675Z" fill="#363E7B"/>
<path d="M64.2428 30.3649L64.2004 30.3861C64.4974 28.8801 64.6458 27.3528 64.6246 25.7831C64.5186 14.2755 55.4398 4.50735 43.9746 3.60584C37.9504 3.12856 32.3822 5.04826 28.0973 8.50584H15.4549C15.1686 8.50584 14.9034 8.65432 14.7443 8.89826L7.91402 19.568H1.90038C1.44432 19.568 1.0625 19.9392 1.0625 20.4058C1.0625 20.8725 1.44432 21.2437 1.90038 21.2437H8.37008C8.65644 21.2437 8.92159 21.0952 9.08068 20.8513L15.911 10.171H36.5716L42.7019 12.0801C42.3413 12.5149 42.0655 13.0134 41.8746 13.5543L37.6852 11.7195H24.8201C23.8655 12.8755 23.0383 14.127 22.3277 15.4634H18.4034C18.1277 15.4634 17.8731 15.6013 17.714 15.824L11.6155 24.4998C11.5943 24.5316 11.5837 24.5634 11.5625 24.6058C11.5519 24.6377 11.5307 24.6589 11.5201 24.6907C11.4458 24.8816 11.4458 25.0937 11.5201 25.2846C11.5307 25.3164 11.5519 25.3377 11.5625 25.3695C11.5837 25.4013 11.5943 25.4437 11.6155 25.4755L17.714 34.1513C17.8731 34.374 18.1277 34.5119 18.4034 34.5119H48.7049C48.6943 34.4695 48.6943 34.427 48.6943 34.3846H49.8186C49.7655 34.6604 49.7337 34.9361 49.7337 35.2225C49.7337 35.5089 49.7655 35.7952 49.8186 36.0604H22.0943C22.4973 36.8664 22.9428 37.6619 23.4413 38.4149C23.4413 38.4149 23.7489 38.8286 24.1837 39.3907H15.4337L8.02008 28.8483C7.87159 28.6361 7.61705 28.4983 7.34129 28.4983H1.90038C1.44432 28.4983 1.0625 28.8801 1.0625 29.3361C1.0625 29.7922 1.44432 30.174 1.90038 30.174H6.89583L14.3095 40.7164C14.4686 40.9392 14.7231 41.077 14.9989 41.077H33.1352L34.1746 42.6361H27.111C28.2564 43.6755 29.508 44.6195 30.8549 45.4043V59.2664H52.5549V53.6771H60.1701C61.3261 53.6771 62.2701 52.7437 62.2701 51.5771V44.1316C62.2701 42.6043 63.2034 41.2361 64.6246 40.6846L68.9413 39.0089L64.2428 30.3649ZM41.9595 42.6467H36.2746L39.9761 48.1937H39.9125L35.1716 41.0877H40.8458C40.8352 41.0452 40.8352 41.0028 40.8352 40.9604H41.9595C41.9064 41.2361 41.8746 41.5119 41.8746 41.7983C41.8746 42.0846 41.9064 42.371 41.9595 42.6467ZM43.4125 51.4286H40.5701C40.2837 51.4286 40.0292 51.2907 39.8701 51.0574L38.9367 49.6574C39.0852 49.7846 39.2655 49.8695 39.467 49.8695H42.3095C42.2989 49.8271 42.2989 49.7846 42.2989 49.7422H43.4231C43.3701 50.018 43.3383 50.2937 43.3383 50.5801C43.3383 50.8664 43.3595 51.1528 43.4125 51.4286ZM43.0095 40.2498C43.0095 38.871 44.1337 37.7467 45.5125 37.7467C46.8913 37.7467 48.0155 38.871 48.0155 40.2498C48.0155 41.6286 46.8913 42.7528 45.5125 42.7528C44.1231 42.7422 43.0095 41.6286 43.0095 40.2498ZM46.9655 51.5346C45.5867 51.5346 44.4625 50.4104 44.4625 49.0316C44.4625 47.6528 45.5867 46.5286 46.9655 46.5286C48.3443 46.5286 49.4686 47.6528 49.4686 49.0316C49.4686 50.4104 48.3443 51.5346 46.9655 51.5346ZM45.2474 11.0407C46.6261 11.0407 47.7504 12.1649 47.7504 13.5437C47.7504 14.9225 46.6261 16.0467 45.2474 16.0467C43.8686 16.0467 42.7443 14.9225 42.7443 13.5437C42.7443 12.1649 43.858 11.0407 45.2474 11.0407ZM43.7519 25.7195C43.7201 25.9528 43.6777 26.1861 43.6777 26.4407C43.6777 26.7695 43.7095 27.0983 43.7731 27.4058H40.4216L36.7943 32.8361H34.7686L39.2655 26.1013C39.3398 25.9952 39.4352 25.921 39.5413 25.8574H42.6701C42.6595 25.8149 42.6595 25.7725 42.6595 25.7301H43.7519V25.7195ZM26.7186 25.0089C26.7186 23.6301 27.8428 22.5058 29.2216 22.5058C30.6004 22.5058 31.7246 23.6301 31.7246 25.0089C31.7246 26.3877 30.6004 27.5119 29.2216 27.5119C27.8428 27.5119 26.7186 26.3877 26.7186 25.0089ZM32.9231 13.8301C34.3019 13.8301 35.4261 14.9543 35.4261 16.3331C35.4261 17.7119 34.3019 18.8361 32.9231 18.8361C31.5443 18.8361 30.4201 17.7119 30.4201 16.3331C30.4201 14.9543 31.5443 13.8301 32.9231 13.8301ZM18.8383 17.171H28.2564C28.2458 17.1286 28.2458 17.0861 28.2458 17.0437H29.3701C29.317 17.3195 29.2852 17.5952 29.2852 17.8816C29.2852 18.168 29.317 18.4543 29.3701 18.7195H20.917C20.3231 20.4483 19.9519 22.2619 19.8034 24.1498H13.9383L18.8383 17.171ZM13.9277 25.8467H24.5549C24.5443 25.8043 24.5443 25.7619 24.5443 25.7195H25.6686C25.6155 25.9952 25.5837 26.271 25.5837 26.5574C25.5837 26.8437 25.6155 27.1301 25.6686 27.3952H19.7716C19.8883 29.2725 20.2383 31.0967 20.7898 32.8255H18.8489L13.9277 25.8467ZM47.3155 27.3846C45.9367 27.3846 44.8125 26.2604 44.8125 24.8816C44.8125 23.5028 45.9367 22.3786 47.3155 22.3786C48.6943 22.3786 49.8186 23.5028 49.8186 24.8816C49.8186 26.2604 48.6943 27.3846 47.3155 27.3846ZM53.3716 36.1771C51.9928 36.1771 50.8686 35.0528 50.8686 33.674C50.8686 32.2952 51.9928 31.171 53.3716 31.171C54.7504 31.171 55.8746 32.2952 55.8746 33.674C55.864 35.0528 54.7504 36.1771 53.3716 36.1771Z" fill="#363E7B"/>
</svg>
