<svg width="70" height="70" viewBox="0 0 70 70" fill="none" xmlns="http://www.w3.org/2000/svg">
<path d="M65.7938 3.2041H4.20658C1.88661 3.2041 0 5.09124 0 7.41086V62.5893C0 64.9089 1.88661 66.7959 4.20658 66.7959H65.794C68.1132 66.7959 69.9998 64.9089 69.9998 62.5893V7.41086C70.0004 5.09142 68.113 3.2041 65.7938 3.2041ZM53.1105 10.2681C53.1105 9.41026 53.8059 8.7147 54.6635 8.7147H56.2169C57.0751 8.7147 57.7699 9.41009 57.7699 10.2681V12.0285C57.7699 12.8863 57.0745 13.5817 56.2169 13.5817H54.6635C53.8059 13.5817 53.1105 12.8863 53.1105 12.0285V10.2681ZM45.8877 10.2681C45.8877 9.41026 46.5834 8.7147 47.4411 8.7147H48.9941C49.8517 8.7147 50.5474 9.41009 50.5474 10.2681V12.0285C50.5474 12.8863 49.8517 13.5817 48.9941 13.5817H47.4411C46.5834 13.5817 45.8877 12.8863 45.8877 12.0285V10.2681ZM64.9519 61.7478H5.04796V18.2477H64.9519V61.7478V61.7478ZM64.9927 12.0285C64.9927 12.8863 64.2974 13.5817 63.4397 13.5817H61.8864C61.028 13.5817 60.3332 12.8863 60.3332 12.0285V10.2681C60.3332 9.41026 61.0285 8.7147 61.8864 8.7147H63.4397C64.2975 8.7147 64.9927 9.41009 64.9927 10.2681V12.0285Z" fill="#283A7E"/>
<path d="M15.0274 41.6383L26.287 46.8744C26.5781 47.0091 26.888 47.0775 27.2084 47.0775C27.6257 47.0775 28.0324 46.959 28.386 46.7341C29.0191 46.3295 29.3973 45.64 29.3973 44.8896V44.8321C29.3973 43.984 28.9002 43.205 28.1308 42.8477L21.0886 39.5757L28.1308 36.3033C28.9002 35.9456 29.3973 35.1669 29.3973 34.3191V34.2621C29.3973 33.5107 29.0191 32.8209 28.386 32.4177C28.036 32.194 27.6282 32.0757 27.2071 32.0757C26.8896 32.0757 26.5712 32.1455 26.2861 32.2779L15.0272 37.5135C14.2584 37.8711 13.7617 38.6502 13.7617 39.4977V39.6542C13.7615 40.5004 14.2579 41.2792 15.0274 41.6383Z" fill="#BE3F3B"/>
<path d="M29.4949 52.3031C29.9056 52.8652 30.5662 53.2009 31.2619 53.2009H31.3183C32.2736 53.2009 33.1105 52.5894 33.4016 51.6807L40.8186 28.6986C41.0314 28.0353 40.9134 27.3032 40.5025 26.7401C40.0918 26.1778 39.4313 25.8423 38.7353 25.8423H38.6791C37.7235 25.8423 36.8857 26.4536 36.5946 27.3623L29.1768 50.3462C28.9657 51.0103 29.0846 51.7414 29.4949 52.3031Z" fill="#BE3F3B"/>
<path d="M40.6055 34.3189C40.6055 35.1658 41.1022 35.9447 41.8718 36.3042L48.914 39.5757L41.8718 42.8474C41.1026 43.205 40.6055 43.984 40.6055 44.8318V44.8892C40.6055 45.6398 40.9833 46.3293 41.6171 46.7341C41.9695 46.9586 42.3764 47.0775 42.7943 47.0775C43.1143 47.0775 43.424 47.0091 43.717 46.8737L54.976 41.6378C55.7447 41.2792 56.2414 40.5004 56.2414 39.6539V39.4973C56.2414 38.6499 55.7447 37.8708 54.9753 37.5131L43.7163 32.2776C43.4323 32.1455 43.1143 32.0757 42.7967 32.0757C42.3764 32.0757 41.968 32.1937 41.618 32.417C40.9842 32.8209 40.606 33.5105 40.606 34.262V34.3187H40.6055V34.3189Z" fill="#BE3F3B"/>
</svg>
