<svg width="70" height="70" viewBox="0 0 70 70" fill="none" xmlns="http://www.w3.org/2000/svg">
<g clip-path="url(#clip0_4885_2553)">
<path d="M37.4875 39.1411C37.2718 39.5763 36.9823 39.9844 36.6197 40.3465C34.7473 42.2194 31.662 42.1404 29.8922 40.1093C27.8612 38.3395 27.7821 35.2542 29.6545 33.3813C30.0172 33.0192 30.4252 32.7297 30.8604 32.5134C31.8223 32.0354 32.727 31.4517 33.5312 30.7457L25.1914 22.4059L33.5312 14.066C34.2378 14.8708 34.8215 15.7755 35.2995 16.7379C35.5153 17.1726 35.8047 17.5806 36.1674 17.9433C38.0403 19.8162 41.1261 19.7366 42.896 17.7045C44.928 15.9347 45.0076 12.8484 43.1347 10.9754C42.7726 10.6133 42.3646 10.3239 41.9293 10.1076C40.9675 9.62959 40.0628 9.04587 39.2579 8.33984L47.5978 0L55.9376 8.33984C56.6437 7.53502 57.2274 6.63033 57.7054 5.66849C57.9217 5.23323 58.2106 4.82574 58.5732 4.46312C60.4462 2.59018 63.5314 2.66975 65.3013 4.70024C67.3323 6.47011 67.4113 9.55536 65.5384 11.4283C65.1758 11.7904 64.7683 12.0798 64.333 12.2961C63.3712 12.7741 62.4665 13.3578 61.6617 14.0639L70.0015 22.4037L61.6617 30.7436C60.9556 29.9387 60.3719 29.034 59.8939 28.0722C59.6776 27.6369 59.3887 27.2295 59.0261 26.8668C57.1532 24.9939 54.0668 25.0735 52.297 27.1056C50.2649 28.8754 50.1853 31.9612 52.0582 33.8342C52.4209 34.1968 52.8289 34.4862 53.2636 34.702C54.226 35.18 55.1307 35.7642 55.935 36.4703L47.5951 44.8101L39.2553 36.4703C38.5493 37.2746 37.9655 38.1792 37.4875 39.1411Z" fill="#BE3F3B"/>
<path d="M8.33984 39.2538C7.53502 38.5478 6.63033 37.9641 5.66849 37.4861C5.23323 37.2698 4.82574 36.9809 4.46312 36.6182C2.59018 34.7458 2.66975 31.6606 4.70024 29.8902C6.47011 27.8597 9.55536 27.7807 11.4283 29.6531C11.7904 30.0157 12.0798 30.4237 12.2961 30.8584C12.7741 31.8208 13.3578 32.7255 14.0639 33.5298L22.4037 25.1899L27.3571 30.1433C27.1889 30.2875 27.0255 30.4387 26.8679 30.5962C25.2011 32.2635 24.2911 34.5712 24.3717 36.928C24.4492 39.194 25.4404 41.3548 27.1018 42.8982C28.6452 44.5591 30.806 45.5504 33.0721 45.6283C35.4288 45.709 37.7365 44.7989 39.4038 43.1321C39.5614 42.9741 39.7125 42.8112 39.8562 42.6424L44.8101 47.5963L36.4703 55.9362C37.2746 56.6422 38.1792 57.2259 39.1411 57.7039C39.5763 57.9197 39.9844 58.2091 40.347 58.5717C42.2194 60.4442 42.1404 63.5294 40.1093 65.2993C38.3395 67.3303 35.2542 67.4093 33.3818 65.5369C33.0192 65.1743 32.7297 64.7663 32.514 64.331C32.036 63.3692 31.4523 62.4645 30.7462 61.6597L22.4064 69.9995L14.0665 61.6597C14.8708 60.9536 15.7755 60.3699 16.7379 59.8919C17.1726 59.6762 17.5806 59.3867 17.9433 59.0241C19.8162 57.1512 19.7366 54.0654 17.7045 52.2955C15.9347 50.2634 12.8484 50.1838 10.9754 52.0568C10.6133 52.4189 10.3239 52.8269 10.1076 53.2621C9.62959 54.224 9.04587 55.1287 8.33984 55.9335L0 47.5937L8.33984 39.2538Z" fill="#283A7E"/>
</g>
<defs>
<clipPath id="clip0_4885_2553">
<rect width="70" height="70" fill="white"/>
</clipPath>
</defs>
</svg>
