<svg width="70" height="70" viewBox="0 0 70 70" fill="none" xmlns="http://www.w3.org/2000/svg">
<path d="M30.6478 45.8618C28.6411 45.8618 27.0078 47.4951 27.0078 49.4901V58.2051C27.0078 60.2001 28.6411 61.8335 30.6478 61.8335H39.3511C41.3578 61.8335 42.9795 60.2001 42.9795 58.2051V49.4901C42.9795 47.4951 41.3578 45.8618 39.3511 45.8618H30.6478Z" fill="url(#paint0_linear_4885_2541)"/>
<path d="M23.5078 11.8065V20.5098C23.5078 22.5165 25.1411 24.1498 27.1478 24.1498H42.8511C44.8578 24.1498 46.4911 22.5165 46.4911 20.5098V11.8065C46.4911 9.79984 44.8578 8.1665 42.8511 8.1665H27.1478C25.1411 8.1665 23.5078 9.79984 23.5078 11.8065Z" fill="url(#paint1_linear_4885_2541)"/>
<path d="M60.527 45.8618H51.8236C49.817 45.8618 48.1953 47.4951 48.1953 49.4901V58.2051C48.1953 60.2001 49.817 61.8335 51.8236 61.8335H60.527C62.5336 61.8335 64.167 60.2001 64.167 58.2051V49.4901C64.167 47.4951 62.5336 45.8618 60.527 45.8618Z" fill="url(#paint2_linear_4885_2541)"/>
<path d="M9.46036 61.8335H18.1754C20.1704 61.8335 21.8037 60.2001 21.8037 58.2051V49.4901C21.8037 47.4951 20.1704 45.8618 18.1754 45.8618H9.46036C7.46536 45.8618 5.83203 47.4951 5.83203 49.4901V58.2051C5.83203 60.2001 7.46536 61.8335 9.46036 61.8335Z" fill="url(#paint3_linear_4885_2541)"/>
<path d="M55.0117 41.7024C55.0117 42.3464 55.5343 42.8691 56.1783 42.8691C56.8223 42.8691 57.345 42.3464 57.345 41.7024C57.345 37.3648 53.8158 33.8344 49.477 33.8344H36.1653V28.3009C36.1653 27.6569 35.6427 27.1343 34.9987 27.1343C34.3547 27.1343 33.832 27.6569 33.832 28.3009V33.8344H20.5203C16.1827 33.8344 12.6523 37.3648 12.6523 41.7024C12.6523 42.3464 13.175 42.8691 13.819 42.8691C14.4642 42.8691 14.9857 42.3464 14.9857 41.7024C14.9857 38.6504 17.4683 36.1678 20.5203 36.1678H33.832V41.7024C33.832 42.3464 34.3547 42.8691 34.9987 42.8691C35.6427 42.8691 36.1653 42.3464 36.1653 41.7024V36.1678H49.477C52.529 36.1678 55.0117 38.6504 55.0117 41.7024Z" fill="#C03434"/>
<defs>
<linearGradient id="paint0_linear_4885_2541" x1="27.0078" y1="46.3555" x2="42.1292" y2="62.6238" gradientUnits="userSpaceOnUse">
<stop offset="0.203582" stop-color="#4F59A7"/>
<stop offset="1" stop-color="#161D4F"/>
</linearGradient>
<linearGradient id="paint1_linear_4885_2541" x1="23.5078" y1="8.66053" x2="37.3428" y2="30.0634" gradientUnits="userSpaceOnUse">
<stop offset="0.203582" stop-color="#4F59A7"/>
<stop offset="1" stop-color="#161D4F"/>
</linearGradient>
<linearGradient id="paint2_linear_4885_2541" x1="48.1953" y1="46.3555" x2="63.3167" y2="62.6238" gradientUnits="userSpaceOnUse">
<stop offset="0.203582" stop-color="#4F59A7"/>
<stop offset="1" stop-color="#161D4F"/>
</linearGradient>
<linearGradient id="paint3_linear_4885_2541" x1="5.83203" y1="46.3555" x2="20.9535" y2="62.6238" gradientUnits="userSpaceOnUse">
<stop offset="0.203582" stop-color="#4F59A7"/>
<stop offset="1" stop-color="#161D4F"/>
</linearGradient>
</defs>
</svg>
