<svg width="70" height="70" viewBox="0 0 70 70" fill="none" xmlns="http://www.w3.org/2000/svg">
<path d="M49.4654 39.1712L43.5591 35.9629L36.457 65.6254H52.4987V44.29C52.4989 43.2431 52.2174 42.2154 51.6837 41.3148C51.15 40.4141 50.3838 39.6737 49.4654 39.1712Z" fill="#BE3F3B"/>
<path d="M26.2513 13.1252C26.2513 11.683 25.8237 10.2732 25.0224 9.07413C24.2212 7.87502 23.0824 6.94043 21.75 6.38854C20.4177 5.83666 18.9516 5.69226 17.5371 5.97361C16.1227 6.25496 14.8234 6.94942 13.8037 7.96918C12.7839 8.98894 12.0894 10.2882 11.8081 11.7026C11.5267 13.1171 11.6711 14.5832 12.223 15.9156C12.7749 17.2479 13.7095 18.3867 14.9086 19.188C16.1077 19.9892 17.5175 20.4168 18.9596 20.4168C20.5034 20.4011 22.0013 19.8899 23.2326 18.9585C23.8959 17.6003 24.7889 16.3669 25.8721 15.3127C26.1166 14.6089 26.2446 13.8701 26.2513 13.1252Z" fill="#283A7E"/>
<path d="M35.0013 35.0002C40.6392 35.0002 45.2096 30.4297 45.2096 24.7918C45.2096 19.1539 40.6392 14.5835 35.0013 14.5835C29.3634 14.5835 24.793 19.1539 24.793 24.7918C24.793 30.4297 29.3634 35.0002 35.0013 35.0002Z" fill="#BE3F3B"/>
<path d="M58.3333 13.1252C58.3333 11.1913 57.5651 9.33663 56.1977 7.96918C54.8302 6.60172 52.9755 5.8335 51.0417 5.8335C49.1078 5.8335 47.2531 6.60172 45.8857 7.96918C44.5182 9.33663 43.75 11.1913 43.75 13.1252C43.7503 13.8897 43.8784 14.6488 44.1292 15.371C45.207 16.4077 46.0997 17.621 46.7687 18.9585C48 19.8899 49.4979 20.4011 51.0417 20.4168C51.9992 20.4168 52.9474 20.2282 53.8321 19.8618C54.7167 19.4953 55.5206 18.9582 56.1977 18.2812C56.8747 17.6041 57.4118 16.8002 57.7783 15.9156C58.1447 15.0309 58.3333 14.0827 58.3333 13.1252Z" fill="#283A7E"/>
<path d="M21.8751 24.792C21.8766 24.1422 21.9303 23.4936 22.0355 22.8524C21.0399 23.1671 20.0025 23.3293 18.9584 23.3337C16.8735 23.336 14.8378 22.6998 13.1251 21.5107L8.16676 23.3337C7.04792 23.7517 6.08435 24.5031 5.40626 25.4863C4.72817 26.4695 4.36824 27.6372 4.3751 28.8316V49.5837H14.5834V44.2899C14.5858 42.7193 15.0109 41.1784 15.814 39.8287C16.6172 38.479 17.7688 37.3703 19.148 36.6191L25.0834 33.367C23.0194 30.9864 21.8806 27.9428 21.8751 24.792Z" fill="#283A7E"/>
<path d="M61.8346 23.3337L56.8763 21.5107C55.1636 22.6998 53.1279 23.336 51.043 23.3337C49.9989 23.3293 48.9614 23.1671 47.9659 22.8524C48.0711 23.4936 48.1248 24.1422 48.1263 24.792C48.1208 27.9428 46.982 30.9864 44.918 33.367L50.8534 36.6191C52.2326 37.3703 53.3842 38.479 54.1874 39.8287C54.9905 41.1784 55.4156 42.7193 55.418 44.2899V49.5837H65.6263V28.8316C65.6332 27.6372 65.2732 26.4695 64.5951 25.4863C63.917 24.5031 62.9535 23.7517 61.8346 23.3337Z" fill="#283A7E"/>
<path d="M36.4596 40.8333V53.2L35.0013 59.325L33.543 53.2V40.8333C33.543 40.4466 33.6966 40.0756 33.9701 39.8021C34.2436 39.5286 34.6145 39.375 35.0013 39.375C35.3881 39.375 35.759 39.5286 36.0325 39.8021C36.306 40.0756 36.4596 40.4466 36.4596 40.8333Z" fill="#283A7E"/>
<path d="M36.4596 40.8333V53.2L35.0013 59.325L33.543 53.2V40.8333C33.543 40.4466 33.6966 40.0756 33.9701 39.8021C34.2436 39.5286 34.6145 39.375 35.0013 39.375C35.3881 39.375 35.759 39.5286 36.0325 39.8021C36.306 40.0756 36.4596 40.4466 36.4596 40.8333Z" fill="#283A7E"/>
<path d="M20.5333 39.1712C19.6149 39.6737 18.8487 40.4141 18.315 41.3148C17.7813 42.2154 17.4998 43.2431 17.5 44.29V65.6254H33.5417L26.4396 35.9629L20.5333 39.1712Z" fill="#BE3F3B"/>
</svg>
