<svg width="70" height="70" viewBox="0 0 70 70" fill="none" xmlns="http://www.w3.org/2000/svg">
<path d="M15.3125 30.625C17.7287 30.625 19.6875 28.6662 19.6875 26.25C19.6875 23.8338 17.7287 21.875 15.3125 21.875C12.8963 21.875 10.9375 23.8338 10.9375 26.25C10.9375 28.6662 12.8963 30.625 15.3125 30.625Z" fill="#283A7E"/>
<path d="M13.125 39.3751L16.4062 45.9376H25.0009C26.2948 45.9376 27.3438 44.8887 27.3438 43.5947C27.3438 42.4288 26.4862 41.4401 25.3323 41.2749L19.6875 40.4688L15.2283 33.3343C14.5841 32.3029 13.5428 31.5832 12.3506 31.3447C10.2637 30.928 8.17687 32.059 7.38609 34.0343L3.81281 42.9691C2.73875 45.6521 2.1875 48.5166 2.1875 51.4063H10.9375L13.125 39.3751Z" fill="#283A7E"/>
<path d="M56.875 30.625C59.2912 30.625 61.25 28.6662 61.25 26.25C61.25 23.8338 59.2912 21.875 56.875 21.875C54.4588 21.875 52.5 23.8338 52.5 26.25C52.5 28.6662 54.4588 30.625 56.875 30.625Z" fill="#283A7E"/>
<path d="M35 57.9688C38.6244 57.9688 41.5625 55.0306 41.5625 51.4062C41.5625 47.7819 38.6244 44.8438 35 44.8438C31.3756 44.8438 28.4375 47.7819 28.4375 51.4062C28.4375 55.0306 31.3756 57.9688 35 57.9688Z" fill="#283A7E"/>
<path d="M66.1872 42.9691L62.6139 34.0343C61.8231 32.059 59.7363 30.928 57.6494 31.3447C56.4572 31.5832 55.4159 32.3029 54.7717 33.3343L50.3125 40.4688L44.6677 41.2749C43.5138 41.4401 42.6562 42.4288 42.6562 43.5947C42.6562 44.8887 43.7052 45.9376 44.9991 45.9376H53.5938L56.875 39.3751L59.0625 51.4063H67.8125C67.8125 48.5166 67.2612 45.6521 66.1872 42.9691Z" fill="#283A7E"/>
<path d="M41.5625 59.0625H28.4375C26.0214 59.0625 24.0625 61.0214 24.0625 63.4375V67.8125H45.9375V63.4375C45.9375 61.0214 43.9786 59.0625 41.5625 59.0625Z" fill="#283A7E"/>
<path d="M13.1251 57.0826L16.6251 48.1248H15.0501L14.6236 47.2607L13.3001 50.6404L12.1408 53.5936L11.0142 56.4811C10.9617 56.6057 10.9354 56.7392 10.9376 56.8748V61.2498C10.9376 61.8536 11.4276 62.3436 12.0314 62.3436H21.9736C22.0917 61.5703 22.3586 60.8276 22.7611 60.1561H13.1251V57.0826Z" fill="#283A7E"/>
<path d="M57.8586 53.5938L56.6992 50.6517V50.6407L55.3758 47.272L54.9492 48.1251H53.3742L56.8742 57.0829V60.1563H47.2383C47.6397 60.8279 47.9077 61.5706 48.0258 62.3438H57.968C58.5717 62.3438 59.0617 61.8538 59.0617 61.2501V56.8751C59.0639 56.7395 59.0377 56.606 58.9852 56.4813L57.8586 53.5938Z" fill="#283A7E"/>
<path d="M5.46875 32.8125H5.54531C5.93797 31.9681 6.51328 31.2211 7.22969 30.625H6.5625V4.375H63.4375V30.625H62.7703C63.4867 31.2211 64.062 31.9681 64.4547 32.8125H64.5312C65.135 32.8125 65.625 32.3225 65.625 31.7188V3.28125C65.625 2.6775 65.135 2.1875 64.5312 2.1875H5.46875C4.865 2.1875 4.375 2.6775 4.375 3.28125V31.7188C4.375 32.3225 4.865 32.8125 5.46875 32.8125Z" fill="#BE3F3B"/>
<path d="M52.9148 32.1781C53.2791 31.593 53.733 31.0691 54.2602 30.625H48.1242H21.8742H15.7383C16.2655 31.0691 16.7194 31.593 17.0836 32.1781L17.4773 32.8125H20.2773L19.1945 35.5578L20.6383 37.8656L22.618 32.8125H47.3805L49.3602 37.8656L50.8039 35.5578L49.7211 32.8125H52.5211L52.9148 32.1781Z" fill="#BE3F3B"/>
<path d="M31.3981 15.633C30.9705 15.2064 30.2781 15.2064 29.8516 15.633L22.1953 23.2892L23.7419 24.8358L30.6248 17.9528L36.4141 23.742C36.8406 24.1686 37.533 24.1686 37.9606 23.742L50.3123 11.3903V15.3125H52.4998V8.75C52.4998 8.14625 52.0098 7.65625 51.4061 7.65625H44.8436V9.84375H48.7658L37.1873 21.4222L31.3981 15.633Z" fill="#BE3F3B"/>
<path d="M12.0312 7.65625H25.1562V9.84375H12.0312V7.65625Z" fill="#BE3F3B"/>
<path d="M12.0312 12.0312H19.6875V14.2188H12.0312V12.0312Z" fill="#BE3F3B"/>
</svg>
