<svg width="70" height="70" viewBox="0 0 70 70" fill="none" xmlns="http://www.w3.org/2000/svg">
<path fill-rule="evenodd" clip-rule="evenodd" d="M8.01953 35.0002C8.01953 20.1 20.0985 8.021 34.9987 8.021C49.8227 8.021 61.8545 19.9771 61.977 34.7721C61.9869 35.9802 62.9745 36.9514 64.1826 36.9412C65.3907 36.9313 66.3619 35.944 66.3517 34.7359C66.2097 17.5409 52.2269 3.646 34.9987 3.646C17.6823 3.646 3.64453 17.6837 3.64453 35.0002C3.64453 52.2283 17.5394 66.2111 34.7344 66.3532C35.9425 66.3634 36.9298 65.3921 36.9397 64.184C36.9499 62.976 35.9787 61.9884 34.7706 61.9785C19.9756 61.856 8.01953 49.8241 8.01953 35.0002ZM34.9987 22.6043C28.1527 22.6043 22.6029 28.1541 22.6029 35.0002C22.6029 40.202 25.8078 44.6607 30.3589 46.4991C31.4792 46.9515 32.0205 48.2264 31.5678 49.3467C31.1154 50.467 29.8406 51.008 28.7203 50.5556C22.5722 48.0721 18.2279 42.046 18.2279 35.0002C18.2279 25.7379 25.7364 18.2293 34.9987 18.2293C42.0445 18.2293 48.0706 22.5737 50.5542 28.7217C51.0065 29.842 50.4655 31.1169 49.3452 31.5693C48.2249 32.022 46.95 31.4806 46.4977 30.3603C44.6593 25.8092 40.2006 22.6043 34.9987 22.6043ZM42.7859 62.0126L35.1658 39.152C34.3448 36.6895 36.688 34.3462 39.1506 35.1673L62.0111 42.7874C64.8835 43.7449 64.8835 47.8075 62.0111 48.7648L53.5697 51.5788C52.6291 51.8923 51.8909 52.6305 51.5773 53.5712L48.7633 62.0126C47.8061 64.8849 43.7434 64.8849 42.7859 62.0126Z" fill="#BE3F3B"/>
<path fill-rule="evenodd" clip-rule="evenodd" d="M8.01953 35.0002C8.01953 20.1 20.0985 8.021 34.9987 8.021C49.8227 8.021 61.8545 19.9771 61.977 34.7721C61.9869 35.9802 62.9745 36.9514 64.1826 36.9412C65.3907 36.9313 66.3619 35.944 66.3517 34.7359C66.2097 17.5409 52.2269 3.646 34.9987 3.646C17.6823 3.646 3.64453 17.6837 3.64453 35.0002C3.64453 52.2283 17.5394 66.2111 34.7344 66.3532C35.9425 66.3634 36.9298 65.3921 36.9397 64.184C36.9499 62.976 35.9787 61.9884 34.7706 61.9785C19.9756 61.856 8.01953 49.8241 8.01953 35.0002ZM34.9987 22.6043C28.1527 22.6043 22.6029 28.1541 22.6029 35.0002C22.6029 40.202 25.8078 44.6607 30.3589 46.4991C31.4792 46.9515 32.0205 48.2264 31.5678 49.3467C31.1154 50.467 29.8406 51.008 28.7203 50.5556C22.5722 48.0721 18.2279 42.046 18.2279 35.0002C18.2279 25.7379 25.7364 18.2293 34.9987 18.2293C42.0445 18.2293 48.0706 22.5737 50.5542 28.7217C51.0065 29.842 50.4655 31.1169 49.3452 31.5693C48.2249 32.022 46.95 31.4806 46.4977 30.3603C44.6593 25.8092 40.2006 22.6043 34.9987 22.6043Z" fill="#283A7E"/>
</svg>
