<svg width="32" height="36" viewBox="0 0 32 36" fill="none" xmlns="http://www.w3.org/2000/svg">
<path d="M18.766 23.215C16.0996 25.4346 12.7012 27.7295 8.59672 30.0565C11.7778 27.7455 14.3189 25.5304 16.2574 23.4183C19.6578 19.7135 21.2556 16.2678 21.1111 13.1412C20.9655 9.99271 19.0625 7.31598 15.8058 5.14357C14.0961 4.00304 11.9987 2.99046 9.5515 2.1092C14.3137 3.00917 17.9927 4.21642 20.6433 5.66313C24.5539 7.79757 26.1285 10.3865 25.8155 13.2321C25.4938 16.1565 23.171 19.5481 18.766 23.215Z" fill="#C03434" stroke="#C03434"/>
<path d="M26.5781 17.9767C27.3949 16.173 27.9735 14.617 28.3276 13.2564C28.9379 10.9118 28.8946 9.09657 28.2052 7.57984C27.5197 6.07171 26.2329 4.94417 24.5455 3.89355C23.5633 3.28194 22.4185 2.68101 21.1421 2.0399C22.0633 2.21217 23.0093 2.42157 23.9311 2.68884C26.0022 3.28938 27.877 4.16243 29.0642 5.49443C30.2211 6.79232 30.7762 8.58362 30.102 11.1765C29.623 13.0191 28.5235 15.258 26.5781 17.9767Z" fill="#C03434" stroke="#C03434"/>
</svg>
