<svg width="46" height="46" viewBox="0 0 46 46" fill="none" xmlns="http://www.w3.org/2000/svg">
<path d="M13.9782 32.0218C14.3376 32.3811 14.8251 32.5829 15.3333 32.5829C15.8415 32.5829 16.3289 32.3811 16.6884 32.0218L23 25.7102L29.3115 32.0218C29.673 32.3709 30.1572 32.5641 30.6597 32.5597C31.1623 32.5554 31.643 32.3538 31.9984 31.9984C32.3537 31.643 32.5553 31.1623 32.5597 30.6598C32.564 30.1572 32.3708 29.6731 32.0217 29.3116L25.7101 23L32.0217 16.6884C32.2048 16.5116 32.3508 16.3001 32.4512 16.0663C32.5517 15.8324 32.6046 15.5809 32.6068 15.3264C32.609 15.072 32.5605 14.8196 32.4641 14.584C32.3677 14.3485 32.2254 14.1345 32.0455 13.9545C31.8655 13.7745 31.6515 13.6322 31.4159 13.5359C31.1804 13.4395 30.928 13.391 30.6735 13.3932C30.419 13.3954 30.1675 13.4483 29.9337 13.5487C29.6998 13.6492 29.4883 13.7952 29.3115 13.9783L23 20.2898L16.6884 13.9783C16.5116 13.7952 16.3001 13.6492 16.0662 13.5487C15.8324 13.4483 15.5809 13.3954 15.3264 13.3932C15.0719 13.391 14.8195 13.4395 14.584 13.5359C14.3484 13.6322 14.1344 13.7745 13.9544 13.9545C13.7745 14.1345 13.6322 14.3485 13.5358 14.584C13.4394 14.8196 13.3909 15.072 13.3931 15.3264C13.3954 15.5809 13.4482 15.8324 13.5487 16.0663C13.6491 16.3001 13.7951 16.5116 13.9782 16.6884L20.2898 23L13.9782 29.3116C13.6189 29.671 13.417 30.1584 13.417 30.6667C13.417 31.1749 13.6189 31.6623 13.9782 32.0218Z" fill="white"/>
</svg>
