<svg width="320" height="142" viewBox="0 0 320 142" fill="none" xmlns="http://www.w3.org/2000/svg">
<g clip-path="url(#clip0_4826_2274)">
<mask id="mask0_4826_2274" style="mask-type:luminance" maskUnits="userSpaceOnUse" x="0" y="0" width="320" height="140">
<path d="M319.713 0H0V139.647H319.713V0Z" fill="white"/>
</mask>
<g mask="url(#mask0_4826_2274)">
<path d="M259.495 38.0807C267.267 26.0315 254.268 12.3452 243.222 10.2209C235.695 8.81048 218.584 6.54705 213.34 -0.0522461C215.814 23.1933 233.726 48.8242 253.572 44.8541C254.402 48.7913 254.362 52.8624 253.45 56.7816C253.293 57.7915 256.047 59.3764 256.272 57.844C264.707 19.1885 227.819 23.019 221.303 10.6911C228.778 18.8575 255.019 17.778 259.495 38.0287" fill="#74A156"/>
<path d="M258.778 45.7078C256.321 36.2529 267.96 30.2458 275.54 31.2557C280.767 31.9523 292.269 34.1287 297.059 30.9771C290.508 45.4816 273.467 58.2449 261.48 51.454C260.161 53.3854 259.379 55.6331 259.214 57.9662C259.092 58.6452 256.984 59.0981 257.159 57.9662C260.643 31.8476 284.2 42.4169 289.62 36.1484C283.05 39.8399 265.941 32.3702 258.778 45.6208" fill="#74A156"/>
<path opacity="0.99" d="M13.9044 69.9285C16.794 67.8901 20.2468 66.8007 23.7838 66.8116C32.9139 66.8116 38.5246 73.3239 38.5246 83.7538C38.5246 95.9424 31.2588 103.865 20.055 103.865C15.4203 103.776 10.7975 103.362 6.22036 102.629V60.108C6.22036 57.078 4.77417 56.1031 0 56.0333L0.418159 52.2374L13.9044 50.4961V69.9285ZM13.9044 97.7884C15.6164 98.1979 17.3712 98.4026 19.1316 98.3978C26.1012 98.3978 30.1958 93.4354 30.1958 84.7812C30.1958 76.7717 27.3732 72.4186 22.1808 72.4186C19.0789 72.4632 16.1018 73.6469 13.8172 75.7442L13.9044 97.7884Z" fill="#2C2C2C"/>
<path opacity="0.99" d="M70.0446 74.2639C68.559 74.0105 67.0561 73.8708 65.5494 73.846C62.4515 73.7727 59.4484 74.9168 57.1858 77.0323V94.6538C57.1858 97.6312 58.6494 98.7979 62.4129 99.0766L62.1343 103.099C57.6388 102.751 55.7048 102.681 53.701 102.681C51.6972 102.681 49.6761 102.681 45.4595 103.099L45.0588 99.0068C48.2298 98.5192 49.4843 97.2656 49.4843 94.6538V76.336C49.4843 73.2366 48.0207 72.2617 43.3164 72.1919L43.8041 68.396L55.8443 66.8114L56.8024 72.035C60.2873 68.3087 63.3713 66.8114 67.797 66.8114C69.3225 66.7903 70.8411 67.0198 72.2923 67.4904L70.0446 74.2639Z" fill="#2C2C2C"/>
<path opacity="0.99" d="M110.101 85.5996C110.101 96.5172 102.765 103.848 91.9099 103.848C81.0547 103.848 73.7891 96.4477 73.7891 85.3907C73.7891 74.334 81.316 66.8115 92.2408 66.8115C102.695 66.8115 110.101 74.6821 110.101 85.5996ZM82.2221 85.5996C82.2221 89.8832 82.9887 92.7909 84.6441 94.8629C85.5093 96.0458 86.6636 96.987 87.9967 97.5966C89.3299 98.2062 90.797 98.4641 92.2583 98.3454C98.6878 98.3454 101.789 94.2535 101.789 85.6171C101.789 76.9805 98.5485 72.488 92.1888 72.488C85.4106 72.488 82.2221 76.7021 82.2221 85.6171" fill="#2C2C2C"/>
<path opacity="0.99" d="M116.863 71.6695C121.024 68.5179 126.104 66.8172 131.325 66.8288C133.211 66.7185 135.1 66.9868 136.88 67.6177C138.661 68.2488 140.297 69.2297 141.692 70.5028C143.74 73.2731 144.746 76.6765 144.532 80.1145V94.8977C144.532 97.8054 145.438 98.6239 149.028 99.0418L148.54 103.047C146.98 102.838 145.409 102.727 143.835 102.716C142.285 102.735 140.737 102.845 139.2 103.047H138.869L137.963 99.4597C134.754 102.294 130.624 103.866 126.341 103.882C119.564 103.882 115.277 100.226 115.277 94.4798C115.277 90.3354 117.49 87.0968 121.916 84.8854C126.619 82.8944 131.582 81.5867 136.656 81.0025C136.865 78.9265 136.528 76.8322 135.681 74.9256C134.914 73.4108 132.841 72.4356 130.07 72.4356C126.337 72.6199 122.706 73.7138 119.494 75.6222L116.863 71.6695ZM136.726 85.8431C126.272 87.9153 123.223 89.6391 123.223 93.5221C123.223 96.4125 125.244 98.0843 128.554 98.0843C131.575 97.9824 134.464 96.8309 136.726 94.8282V85.8431Z" fill="#2C2C2C"/>
<path opacity="0.99" d="M187.832 94.6541C187.832 97.7013 189.348 99.0072 193.059 99.0769L192.78 103.082C189.012 102.641 185.206 102.641 181.438 103.082L180.897 99.2859C177.679 102.31 173.414 103.97 168.997 103.918C159.797 103.918 153.855 96.9525 153.855 86.0175C153.855 74.5429 160.703 66.864 171 66.864C174.175 66.8132 177.296 67.6779 179.991 69.354V59.6202C179.991 56.9214 178.615 56.1379 173.91 56.0159L174.538 52.1505L187.815 50.5659L187.832 94.6541ZM180.009 75.1522C177.812 73.4157 175.072 72.5095 172.272 72.5927C165.756 72.5927 162.236 77.2939 162.236 85.791C162.236 93.3307 165.564 97.98 171.157 97.98C174.479 97.9115 177.647 96.5714 180.009 94.2362V75.1522Z" fill="#2C2C2C"/>
<path opacity="0.99" d="M209.121 94.6536C209.121 97.7007 210.358 98.7279 214.348 99.0763L214.07 103.099C209.295 102.75 207.222 102.681 205.149 102.681C203.075 102.681 200.862 102.681 196.576 103.099L196.158 99.0763C200.026 98.7279 201.385 97.631 201.385 94.6536V60.177C201.385 57.1298 200.008 56.1548 195.234 56.0851L195.653 52.2891L209.069 50.5479L209.121 94.6536Z" fill="#2C2C2C"/>
<path opacity="0.99" d="M250.07 99.9121C246.116 102.538 241.471 103.932 236.724 103.917C225.711 103.917 218.934 96.9521 218.934 85.46C218.934 73.9679 225.502 66.8809 235.887 66.8809C245.645 66.8809 251.098 72.9577 251.098 83.8057C251.091 84.8479 251.021 85.8888 250.889 86.9226H227.419C227.698 94.8627 230.66 98.1883 237.508 98.1883C241.257 98.2033 244.933 97.1461 248.101 95.1411L250.07 99.9121ZM243.763 81.873C243.554 75.4478 240.94 72.3309 235.678 72.3309C230.416 72.3309 227.523 75.6567 227.314 81.873H243.763Z" fill="#2C2C2C"/>
<path opacity="0.99" d="M257.043 71.6697C261.201 68.518 266.281 66.8176 271.503 66.829C273.404 66.7068 275.309 66.9692 277.106 67.6006C278.902 68.232 280.552 69.2192 281.957 70.503C284.005 73.2733 285.012 76.6767 284.797 80.1146V94.8978C284.797 97.8055 285.703 98.6241 289.293 99.042L288.806 103.047C287.245 102.838 285.675 102.727 284.101 102.716C282.556 102.735 281.013 102.846 279.483 103.047H279.136L278.23 99.4598C275.02 102.294 270.889 103.866 266.606 103.883C259.829 103.883 255.543 100.226 255.543 94.4799C255.543 90.3358 257.756 87.097 262.181 84.8856C266.885 82.8945 271.848 81.5868 276.923 81.0026C277.131 78.9269 276.794 76.8324 275.946 74.9258C275.18 73.4109 273.107 72.4357 270.354 72.4357C266.614 72.6173 262.978 73.7114 259.76 75.6223L257.043 71.6697ZM276.905 85.8436C266.451 87.9155 263.419 89.6395 263.419 93.5225C263.419 96.4129 265.421 98.0845 268.646 98.0845C271.666 97.9828 274.556 96.8311 276.817 94.8284L276.905 85.8436Z" fill="#2C2C2C"/>
<path opacity="0.99" d="M318.179 57.4093C315.853 56.6481 313.429 56.2256 310.983 56.1554C310.453 56.1161 309.923 56.1888 309.425 56.3689C308.925 56.5489 308.471 56.8322 308.091 57.2001C307.185 58.0881 306.906 59.272 306.906 62.4237V67.8044H314.868V73.2022H306.906V94.6891C306.906 97.7363 308.212 98.8332 312.133 99.1119L311.854 103.117C307.078 102.786 304.883 102.647 303.003 102.647C301.12 102.647 299.134 102.786 294.29 103.117L293.871 99.1119C297.462 99.1119 299.098 97.6665 299.098 94.6891V73.2022H294.046V67.8044H299.098V62.2147C298.9 59.6701 299.375 57.1174 300.476 54.8145C302.062 52.046 305.249 50.6009 309.816 50.6009C313.173 50.5837 316.495 51.2904 319.555 52.6728L318.179 57.4093Z" fill="#2C2C2C"/>
<path d="M143.153 137.662C141.278 138.92 139.069 139.587 136.811 139.578C131.34 139.578 127.785 135.764 127.785 129.844C127.785 123.523 131.078 119.919 136.88 119.919C138.829 119.908 140.758 120.306 142.543 121.086V125.613H140.644C140.278 123.071 139.564 122.426 137.02 122.426C133.535 122.426 131.688 124.864 131.688 129.809C131.688 134.755 133.605 137.07 137.281 137.07C139.066 137.102 140.83 136.676 142.404 135.834L143.153 137.662Z" fill="#74A156"/>
<path d="M164.848 130.036C164.743 132.517 163.682 134.861 161.888 136.579C160.095 138.297 157.706 139.256 155.222 139.256C152.737 139.256 150.348 138.297 148.555 136.579C146.761 134.861 145.7 132.517 145.595 130.036C145.539 128.738 145.747 127.443 146.206 126.227C146.665 125.012 147.366 123.902 148.265 122.964C149.164 122.026 150.244 121.28 151.44 120.77C152.635 120.26 153.922 119.998 155.222 119.998C156.521 119.998 157.808 120.26 159.003 120.77C160.199 121.28 161.279 122.026 162.178 122.964C163.077 123.902 163.778 125.012 164.236 126.227C164.695 127.443 164.904 128.738 164.848 130.036ZM149.445 130.036C149.445 134.824 151.327 137.105 155.23 137.105C159.133 137.105 160.997 134.824 160.997 130.001C160.997 125.178 159.011 122.462 155.335 122.462C151.658 122.462 149.445 124.969 149.445 130.036Z" fill="#74A156"/>
<path d="M174.29 123.297C176.267 121.291 178.932 120.109 181.747 119.989C182.826 119.848 183.917 120.133 184.789 120.784C185.66 121.434 186.244 122.398 186.417 123.471C187.359 122.417 188.506 121.564 189.788 120.966C191.07 120.367 192.46 120.035 193.874 119.989C197.481 119.989 199.345 122.009 199.345 125.874V135.085C199.345 136.827 200.094 137.523 202.464 137.593L202.273 139.23C199.833 139.021 199.084 138.968 198.038 138.968C196.658 138.976 195.279 139.063 193.909 139.23L193.77 137.489C195.338 137.175 195.791 136.652 195.791 135.051V126.345C195.791 123.837 194.815 122.636 192.759 122.636C190.424 122.813 188.252 123.901 186.713 125.665V134.998C186.713 136.739 187.48 137.436 189.832 137.506L189.64 139.143C187.584 138.968 186.451 138.881 185.441 138.881C184.43 138.881 184.552 138.881 181.259 139.143L181.137 137.401C182.723 137.123 183.158 136.566 183.158 134.963V126.257C183.158 123.646 182.409 122.548 180.615 122.548C178.252 122.772 176.053 123.849 174.429 125.578V134.911C174.429 136.861 175.074 137.384 177.513 137.419L177.321 139.055C174.812 138.881 173.645 138.794 172.669 138.794C171.693 138.794 170.613 138.794 167.912 139.055L167.721 137.419C170.055 137.419 170.875 136.739 170.875 134.911V124.464C170.875 122.374 170.317 121.957 167.512 121.922L167.686 120.546L173.732 119.745L174.29 123.297Z" fill="#74A156"/>
<path d="M211.075 123.297C213.052 121.291 215.717 120.109 218.532 119.989C219.611 119.848 220.702 120.133 221.574 120.784C222.446 121.434 223.029 122.398 223.202 123.471C224.144 122.417 225.291 121.564 226.573 120.966C227.855 120.367 229.245 120.035 230.659 119.989C234.266 119.989 236.13 122.009 236.13 125.874V135.085C236.13 136.827 236.88 137.523 239.249 137.593L239.058 139.23C236.618 139.021 235.869 138.968 234.824 138.968C233.449 138.976 232.076 139.063 230.712 139.23L230.555 137.489C232.123 137.175 232.576 136.652 232.576 135.051V126.345C232.576 123.837 231.6 122.636 229.544 122.636C227.214 122.812 225.047 123.901 223.515 125.665V134.998C223.515 136.739 224.265 137.436 226.617 137.506L226.425 139.143C224.369 138.968 223.254 138.881 222.244 138.881C221.233 138.881 221.338 138.881 218.044 139.143L217.922 137.401C219.508 137.123 219.961 136.566 219.961 134.963V126.257C219.961 123.646 219.212 122.548 217.4 122.548C215.042 122.769 212.847 123.848 211.232 125.578V134.911C211.232 136.861 211.859 137.384 214.298 137.419L214.106 139.055C211.597 138.881 210.43 138.794 209.454 138.794C208.479 138.794 207.398 138.794 204.698 139.055L204.523 137.419C206.841 137.419 207.66 136.739 207.66 134.911V124.464C207.66 122.374 207.102 121.957 204.297 121.922L204.488 120.546L210.517 119.745L211.075 123.297Z" fill="#74A156"/>
<path d="M257.752 137.628C255.814 138.941 253.526 139.645 251.184 139.648C245.417 139.648 241.723 135.869 241.723 129.949C241.723 124.029 245.016 119.989 250.435 119.989C251.81 119.893 253.184 120.195 254.393 120.859C255.6 121.523 256.593 122.521 257.247 123.733C257.973 125.412 258.305 127.234 258.224 129.061C258.224 129.461 258.224 129.81 258.224 130.401H245.678C245.817 135.155 247.42 136.983 251.515 136.983C253.439 137.029 255.344 136.611 257.072 135.765L257.752 137.628ZM254.86 127.999C254.86 124.081 253.484 122.549 250.26 122.549C247.037 122.549 245.643 124.29 245.573 127.999H254.86Z" fill="#74A156"/>
<path d="M275.158 123.471C274.476 123.39 273.79 123.344 273.103 123.332C271.164 123.304 269.289 124.028 267.876 125.352V135.085C267.876 136.827 268.746 137.558 270.994 137.593L270.801 139.229C268.746 139.055 267.508 138.968 266.569 138.968C265.628 138.968 264.389 138.968 262.438 139.229L262.299 137.488C263.902 137.14 264.321 136.618 264.321 135.05V124.603C264.321 122.513 263.763 122.096 261.027 122.061L261.202 120.685L267.092 119.884L267.876 123.192C268.589 122.163 269.54 121.324 270.652 120.748C271.763 120.171 272.999 119.874 274.252 119.884C274.925 119.874 275.592 119.962 276.239 120.145L275.158 123.471Z" fill="#74A156"/>
<path d="M292.656 137.662C290.803 138.935 288.614 139.626 286.365 139.647C280.895 139.647 277.34 135.834 277.34 129.914C277.34 123.593 280.633 119.989 286.434 119.989C288.383 119.974 290.314 120.372 292.097 121.155V125.683H290.146C289.781 123.14 289.065 122.496 286.523 122.496C282.95 122.496 281.189 124.934 281.189 129.879C281.189 134.824 283.107 137.14 286.784 137.14C288.568 137.172 290.331 136.746 291.905 135.904L292.656 137.662Z" fill="#74A156"/>
<path d="M311.191 137.628C309.258 138.939 306.977 139.643 304.64 139.648C298.872 139.648 295.16 135.869 295.16 129.949C295.16 124.029 298.454 119.989 303.874 119.989C305.249 119.893 306.622 120.195 307.829 120.859C309.037 121.523 310.029 122.521 310.687 123.733C311.41 125.412 311.745 127.234 311.661 129.061C311.661 129.461 311.661 129.81 311.661 130.401H299.116C299.256 135.155 300.859 136.983 304.952 136.983C306.87 137.029 308.773 136.611 310.494 135.765L311.191 137.628ZM308.317 127.999C308.317 124.081 306.921 122.549 303.699 122.549C300.476 122.549 299.098 124.29 299.03 127.999H308.317Z" fill="#74A156"/>
</g>
</g>
<defs>
<clipPath id="clip0_4826_2274">
<rect width="319.713" height="142" fill="white"/>
</clipPath>
</defs>
</svg>
