<svg width="511" height="100" viewBox="0 0 511 100" fill="none" xmlns="http://www.w3.org/2000/svg">
<g clip-path="url(#clip0_4828_2320)">
<path d="M99.1854 52.297C101.87 52.2994 104.544 51.9681 107.146 51.3107L108.028 57.2801C105.134 58.0402 102.152 58.4155 99.1595 58.3961C85.5197 58.3961 81.5781 49.8832 81.5781 39.891C81.5781 29.8988 87.5682 21.9829 99.0817 21.9829C102.077 21.9925 105.059 22.3939 107.95 23.1768L106.757 29.1202C104.313 28.525 101.805 28.2287 99.2891 28.2378C92.0543 28.3675 88.5017 33.714 88.3721 39.9689C88.2424 46.2238 90.8356 52.297 99.1854 52.297Z" fill="#003037"/>
<path d="M127.14 22.0088C138.368 22.0088 143.347 30.4178 143.347 40.1764C143.347 49.9351 139.043 58.3441 127.062 58.3441C115.082 58.3441 110.855 49.7274 110.855 40.1764C110.855 30.6254 115.886 22.1386 127.14 22.0088ZM127.14 52.3488C134.297 52.3488 136.605 46.4832 136.605 40.2024C136.605 34.4666 134.012 27.9782 127.062 27.9782C120.113 27.9782 117.52 34.4147 117.52 40.2024C117.494 46.7428 120.372 52.3488 127.14 52.3488Z" fill="#003037"/>
<path d="M189.764 57.7212V35.2711C189.764 29.6132 187.664 28.056 184.111 28.056C181.207 28.2907 178.467 29.4975 176.332 31.4819C176.332 32.2345 176.514 33.7139 176.514 34.0773V57.6433H169.642V35.0116C169.642 29.3537 167.956 27.9781 164.456 27.9781C161.496 28.3506 158.705 29.5668 156.417 31.4819V57.7212H149.441V22.7614H156.365V25.6163C158.949 23.4487 162.155 22.1583 165.519 21.9309C170.394 21.9309 173.298 23.566 174.75 26.1873C177.622 23.6274 181.282 22.1257 185.123 21.9309C196.558 21.7492 196.714 30.9109 196.714 34.9078V57.8509L189.764 57.7212Z" fill="#003037"/>
<path d="M244.634 57.7212V35.2711C244.634 29.6132 242.534 28.056 238.955 28.056C236.051 28.2907 233.311 29.4975 231.176 31.4819C231.176 32.2345 231.357 33.7139 231.357 34.0773V57.6433H224.356V35.0116C224.356 29.3537 222.67 27.9781 219.17 27.9781C216.203 28.3543 213.405 29.5698 211.105 31.4819V57.7212H204.285V22.7614H211.209V25.6163C213.834 23.4327 217.085 22.1419 220.492 21.9309C225.341 21.9309 228.271 23.566 229.724 26.1873C232.596 23.6274 236.255 22.1257 240.096 21.9309C251.506 21.7492 251.687 30.9109 251.687 34.9078V57.8509L244.634 57.7212Z" fill="#003037"/>
<path d="M283.841 51.3108L284.904 56.9947C281.404 58.0379 277.769 58.5626 274.117 58.5519C260.269 58.5519 256.898 49.2605 256.898 39.995C256.898 30.7295 261.021 22.1128 272.613 22.1128C279.796 22.1128 285.76 26.5249 285.838 37.6851V41.3446H263.77C263.77 48.1964 267.582 52.3749 274.506 52.3749C277.648 52.3858 280.781 52.0286 283.841 51.3108ZM264.03 36.1019H279.433C279.173 29.0165 275.621 27.5631 272.327 27.5631C267.167 27.4852 264.574 31.0409 264.03 36.0759V36.1019Z" fill="#003037"/>
<path d="M311.251 29.0424C309.782 28.6958 308.275 28.5302 306.765 28.5493C305.211 28.5198 303.67 28.8403 302.256 29.4872C300.842 30.1341 299.592 31.0909 298.597 32.2867V57.7214H291.699V22.7616H298.597V25.8761C299.647 24.7751 300.906 23.8939 302.299 23.2836C303.692 22.6732 305.193 22.3458 306.713 22.3204C308.691 22.2662 310.661 22.5831 312.522 23.2547L311.251 29.0424Z" fill="#003037"/>
<path d="M331.529 52.2971C334.222 52.2998 336.905 51.9685 339.516 51.3109L340.372 57.2802C337.486 58.0405 334.513 58.4157 331.529 58.3962C317.863 58.3962 313.922 49.8834 313.922 39.8912C313.922 29.899 319.912 21.9312 331.451 21.9312C334.447 21.9408 337.428 22.3421 340.32 23.125L339.127 29.0684C336.674 28.4711 334.157 28.1748 331.633 28.186C324.398 28.3158 320.846 33.6623 320.742 39.9171C320.638 46.172 323.05 52.2971 331.529 52.2971Z" fill="#003037"/>
<path d="M370.142 51.3108L371.179 56.9947C367.678 58.0379 364.044 58.5626 360.392 58.5519C346.57 58.5519 343.199 49.2605 343.199 39.995C343.199 30.7295 347.322 22.1128 358.914 22.1128C366.071 22.1128 372.061 26.5249 372.138 37.6851V41.3446H350.071C350.201 48.1964 353.857 52.3749 360.781 52.3749C363.932 52.3875 367.074 52.0304 370.142 51.3108ZM350.304 36.1019H365.707C365.474 29.0165 361.922 27.5631 358.602 27.5631C353.364 27.4852 350.927 31.0409 350.304 36.0759V36.1019Z" fill="#003037"/>
<path d="M395.554 28.3677H386.012V45.3675C386.012 48.9232 386.453 51.4147 390.083 51.9078C392.099 52.0505 394.125 51.9722 396.125 51.6743L396.566 57.6436C394.522 57.9425 392.459 58.09 390.394 58.0849C382.226 57.7734 379.166 53.5948 379.166 47.0545V28.3677H374.109V23.5663L379.166 22.9953V14.9756H386.012V22.7617H395.554V28.4975V28.3677Z" fill="#003037"/>
<path d="M415.704 22.0088C426.932 22.0088 431.911 30.4178 431.911 40.1764C431.911 49.9351 427.633 58.3441 415.652 58.3441C403.672 58.3441 399.445 49.7274 399.445 40.1764C399.445 30.6254 404.606 22.1386 415.704 22.0088ZM415.704 52.3488C422.887 52.3488 425.195 46.4832 425.195 40.2024C425.195 34.4666 422.602 27.9782 415.652 27.9782C408.703 27.9782 406.11 34.4147 406.11 40.2024C406.11 46.7428 408.988 52.3488 415.704 52.3488Z" fill="#003037"/>
<path d="M452.992 22.0088C464.22 22.0088 469.199 30.4178 469.199 40.1764C469.199 49.9351 464.894 58.3441 452.914 58.3441C440.934 58.3441 436.707 49.7274 436.707 40.1764C436.707 30.6254 441.764 22.1386 452.992 22.0088ZM452.992 52.3488C460.149 52.3488 462.457 46.4832 462.457 40.2024C462.457 34.4666 459.864 27.9782 452.914 27.9782C445.964 27.9782 443.501 34.4147 443.501 40.2024C443.501 46.7428 446.25 52.3488 452.992 52.3488Z" fill="#003037"/>
<path d="M474.617 57.7214V10.0962H481.282V57.7214H474.617Z" fill="#003037"/>
<path d="M488.387 50.9211C491.632 51.7888 494.962 52.2936 498.318 52.4264C501.067 52.4264 503.868 51.8555 504.049 48.5593C504.231 45.2632 500.626 43.9915 496.503 42.2526C491.836 40.332 486.779 37.7106 486.909 31.2222C486.909 27.978 488.983 21.6452 499.33 21.9307C502.689 22.0314 506.027 22.4925 509.287 23.3063L508.12 29.068C505.142 28.3035 502.091 27.8598 499.019 27.7444C496.011 27.7444 493.832 28.6787 493.599 31.4817C493.599 33.8695 495.388 35.1153 500.004 36.9839C504.62 38.8526 511.31 41.3961 510.999 48.767C510.791 53.4386 507.757 58.5515 498.318 58.4218C494.481 58.3931 490.666 57.8252 486.986 56.7348L488.387 50.9211Z" fill="#003037"/>
<path d="M0.90941 57.3838C0.64057 57.5128 0.413652 57.7153 0.254822 57.9679C0.0959925 58.2205 0.0117188 58.5128 0.0117188 58.8112C0.0117188 59.1097 0.0959925 59.402 0.254822 59.6546C0.413652 59.9071 0.64057 60.1096 0.90941 60.2387L31.197 74.4614C31.5989 74.6653 32.043 74.772 32.4936 74.7728V43.0054C32.038 43.0101 31.5881 43.1072 31.1711 43.2909L0.90941 57.3838Z" fill="#FF761C"/>
<path d="M32.5938 42.9795V74.6691C33.0674 74.6772 33.5368 74.5797 33.9681 74.3836L64.3076 60.2128C64.5764 60.0827 64.8037 59.8802 64.964 59.6281C65.1243 59.376 65.2113 59.0842 65.2152 58.7854C65.2143 58.4859 65.1285 58.1928 64.9679 57.9401C64.8072 57.6874 64.5783 57.4855 64.3076 57.3579L33.9162 43.2909C33.5009 43.099 33.051 42.9931 32.5938 42.9795Z" fill="#FF8C1E"/>
<path d="M0.0782392 15.8318C0.0791303 16.1313 0.164878 16.4244 0.325528 16.6771C0.486179 16.9297 0.71514 17.1316 0.985831 17.2593L31.1957 31.4819C31.6035 31.6656 32.045 31.7628 32.4922 31.7674C32.9321 31.7916 33.3725 31.7299 33.7888 31.5857L34.6445 31.1964L64.2839 17.2852C64.554 17.1607 64.7829 16.9613 64.9433 16.7106C65.1037 16.4599 65.189 16.1684 65.189 15.8707C65.189 15.573 65.1037 15.2816 64.9433 15.0309C64.7829 14.7802 64.554 14.5808 64.2839 14.4562L33.9184 0.311421C33.5112 0.126453 33.0691 0.0307617 32.6219 0.0307617C32.1746 0.0307617 31.7326 0.126453 31.3253 0.311421L0.908038 14.4043C0.653762 14.545 0.442329 14.752 0.296217 15.0034C0.150106 15.2547 0.0747765 15.541 0.0782392 15.8318Z" fill="#00C1AD"/>
<path d="M32.5955 33.5585V42.9797C32.1399 42.9845 31.69 43.0816 31.273 43.2652L0.907593 57.3841C0.636902 57.5117 0.407941 57.7136 0.24729 57.9663C0.0866403 58.2189 0.000891053 58.512 0 58.8115V15.832C0.000891053 16.1315 0.0866403 16.4246 0.24729 16.6773C0.407941 16.93 0.636902 17.1318 0.907593 17.2595L31.1952 31.4822C31.6031 31.6658 32.0445 31.7631 32.4918 31.7677C32.9316 31.7918 33.372 31.7301 33.7883 31.586C32.7252 32.0272 32.5955 32.4684 32.5955 33.5585Z" fill="#D1D1D1"/>
<path d="M200.966 90.423V75.811H203.559V94.8352H201.225L191.527 80.2491V94.8352H188.934V75.811H191.267L200.966 90.423Z" fill="#003037"/>
<path d="M219.534 89.0214H209.161C209.275 90.1242 209.77 91.1526 210.561 91.9282C211.327 92.642 212.343 93.0244 213.388 92.9923C214.065 93.0242 214.739 92.8722 215.337 92.5523C215.935 92.2325 216.435 91.7568 216.785 91.1756H219.197C218.74 92.306 217.965 93.2797 216.966 93.9786C215.925 94.7513 214.659 95.1615 213.362 95.1465C212.217 95.1318 211.098 94.8091 210.121 94.2122C209.094 93.5928 208.266 92.6922 207.735 91.6168C207.142 90.4797 206.839 89.2137 206.853 87.9313C206.779 86.7085 207.011 85.4864 207.528 84.3757C208.087 83.3117 208.919 82.4159 209.939 81.7803C210.918 81.1664 212.051 80.8425 213.206 80.846C214.345 80.8224 215.464 81.1386 216.422 81.7543C217.383 82.3532 218.17 83.1946 218.704 84.194C219.296 85.2492 219.617 86.4355 219.637 87.6458C219.645 88.1066 219.61 88.567 219.534 89.0214ZM210.561 84.1421C209.749 84.9299 209.236 85.9758 209.109 87.1008H217.355C217.247 86.0048 216.782 84.9745 216.033 84.168C215.701 83.8111 215.3 83.5256 214.854 83.3293C214.408 83.1329 213.927 83.0297 213.44 83.0261C212.909 83.0025 212.379 83.0896 211.884 83.2817C211.388 83.4738 210.938 83.7668 210.561 84.1421Z" fill="#003037"/>
<path d="M228.09 87.8538L232.835 94.8354H230.087L226.586 89.5148L223.085 94.8354H220.492L225.212 87.8538L220.751 81.1577H223.345L226.612 86.3485L229.853 81.1577H232.446L228.09 87.8538Z" fill="#003037"/>
<path d="M237.529 93.9266C236.728 93.002 236.318 91.8007 236.388 90.5785V83.3115H234.055V81.2611H235.092C235.314 81.2732 235.537 81.2403 235.746 81.1645C235.955 81.0887 236.147 80.9715 236.311 80.8199C236.464 80.6632 236.583 80.4758 236.659 80.2701C236.735 80.0644 236.766 79.8449 236.752 79.626V77.5757H238.644V81.1573H241.756V83.3115H238.644V90.5007C238.606 91.1637 238.809 91.8182 239.215 92.3434C239.424 92.5459 239.672 92.7033 239.944 92.806C240.216 92.9086 240.506 92.9544 240.797 92.9403C241.126 92.9506 241.454 92.8886 241.756 92.7587V94.9128C241.296 95.0639 240.815 95.1427 240.33 95.1464C239.804 95.1521 239.282 95.0464 238.799 94.8362C238.317 94.626 237.884 94.316 237.529 93.9266Z" fill="#003037"/>
<path d="M254.202 99.4032C253.462 99.0629 252.806 98.5631 252.282 97.9394C251.757 97.3157 251.377 96.5836 251.168 95.7956H253.528C253.737 96.445 254.194 96.9858 254.799 97.3009C255.499 97.7043 256.299 97.9022 257.106 97.8719C258.065 97.886 258.992 97.5332 259.7 96.8857C260.035 96.5443 260.298 96.1382 260.472 95.692C260.646 95.2459 260.727 94.7689 260.711 94.2903V92.4735C260.236 93.0751 259.634 93.564 258.948 93.9051C258.262 94.2461 257.509 94.4308 256.743 94.446C255.653 94.4422 254.585 94.1368 253.658 93.5636C252.698 92.9709 251.918 92.1274 251.402 91.1239C250.833 90.0825 250.547 88.9103 250.572 87.724C250.548 86.5211 250.833 85.3324 251.402 84.2721C251.916 83.2756 252.686 82.4336 253.632 81.8324C254.554 81.2475 255.625 80.9411 256.717 80.95C257.628 80.9253 258.527 81.1593 259.311 81.6248C259.909 81.9516 260.431 82.4029 260.841 82.9485L261.359 81.2355H263.122V94.2124C263.153 94.9941 263.021 95.7736 262.736 96.5018C262.45 97.2299 262.017 97.8909 261.463 98.4429C260.26 99.5323 258.675 100.101 257.055 100.026C256.069 100.037 255.094 99.8243 254.202 99.4032ZM258.844 91.617C259.464 91.1989 259.964 90.6265 260.296 89.956C260.667 89.2434 260.854 88.4494 260.841 87.6461C260.854 86.8262 260.667 86.0154 260.296 85.2843C259.978 84.6044 259.475 84.0285 258.844 83.6233C258.26 83.2338 257.574 83.026 256.873 83.026C256.172 83.026 255.486 83.2338 254.902 83.6233C254.277 84.0357 253.776 84.6097 253.45 85.2843C253.079 86.0154 252.892 86.8262 252.906 87.6461C252.892 88.4494 253.079 89.2434 253.45 89.956C253.79 90.6208 254.289 91.1913 254.902 91.617C255.486 92.0065 256.172 92.2143 256.873 92.2143C257.574 92.2143 258.26 92.0065 258.844 91.617Z" fill="#003037"/>
<path d="M278.891 89.0214H268.518C268.621 90.1273 269.118 91.1593 269.919 91.9282C270.296 92.284 270.74 92.5613 271.225 92.744C271.711 92.9266 272.227 93.0111 272.745 92.9923C273.42 93.028 274.091 92.8774 274.685 92.5569C275.28 92.2365 275.775 91.7586 276.116 91.1756H278.554C278.097 92.306 277.322 93.2797 276.324 93.9786C275.282 94.7513 274.016 95.1615 272.719 95.1465C271.538 95.1472 270.378 94.8233 269.368 94.21C268.357 93.5968 267.534 92.7178 266.989 91.6687C266.385 90.5356 266.082 89.2669 266.107 87.9833C266.096 86.7228 266.409 85.4808 267.015 84.3757C267.574 83.3117 268.406 82.4159 269.426 81.7803C270.404 81.1638 271.538 80.8396 272.693 80.846C273.832 80.8224 274.951 81.1386 275.909 81.7543C276.869 82.347 277.649 83.1905 278.165 84.194C278.742 85.2518 279.037 86.4407 279.021 87.6458C279.036 88.108 278.993 88.5703 278.891 89.0214ZM269.945 84.1421C269.125 84.9273 268.602 85.973 268.467 87.1008H276.713C276.626 85.999 276.159 84.9619 275.39 84.168C275.06 83.8086 274.66 83.5215 274.213 83.325C273.767 83.1284 273.285 83.0266 272.797 83.0261C272.271 83.0062 271.746 83.095 271.255 83.287C270.764 83.479 270.318 83.7701 269.945 84.1421Z" fill="#003037"/>
<path d="M281.82 94.835V81.1574H283.584L284.102 82.8703C284.549 82.249 285.137 81.7435 285.818 81.3959C286.499 81.0482 287.253 80.8686 288.018 80.8719C289.011 80.8614 289.988 81.1216 290.844 81.6245C291.682 82.1304 292.364 82.8579 292.815 83.7268C293.298 84.7018 293.538 85.7792 293.515 86.8672V94.835H291.13V87.0489C291.19 86.0169 290.846 85.002 290.17 84.2199C289.846 83.8582 289.445 83.5745 288.996 83.3902C288.546 83.2059 288.061 83.1258 287.577 83.1558C287.094 83.1384 286.613 83.2242 286.166 83.4077C285.719 83.5912 285.316 83.8681 284.984 84.2199C284.301 84.9994 283.948 86.0137 283.999 87.0489V94.835H281.82Z" fill="#003037"/>
<path d="M309.125 89.0214H298.753C298.866 90.1242 299.362 91.1526 300.153 91.9282C300.918 92.642 301.934 93.0244 302.98 92.9923C303.654 93.028 304.325 92.8774 304.92 92.5569C305.514 92.2365 306.009 91.7586 306.351 91.1756H308.788C308.331 92.306 307.557 93.2797 306.558 93.9786C305.516 94.7513 304.25 95.1615 302.954 95.1465C301.772 95.1472 300.613 94.8233 299.602 94.21C298.592 93.5968 297.769 92.7178 297.223 91.6687C296.62 90.5356 296.316 89.2669 296.341 87.9833C296.331 86.7228 296.643 85.4808 297.249 84.3757C297.808 83.3117 298.641 82.4159 299.66 81.7803C300.64 81.1664 301.772 80.8425 302.928 80.846C304.066 80.8224 305.185 81.1386 306.143 81.7543C307.104 82.3532 307.891 83.1946 308.425 84.194C308.982 85.2586 309.267 86.4444 309.255 87.6458C309.271 88.108 309.227 88.5703 309.125 89.0214ZM300.179 84.1421C299.367 84.9299 298.853 85.9758 298.727 87.1008H306.973C306.865 86.0048 306.4 84.9745 305.651 84.168C305.317 83.8134 304.915 83.5296 304.47 83.3334C304.024 83.1373 303.544 83.0327 303.057 83.0261C302.527 83.0025 301.997 83.0896 301.501 83.2817C301.006 83.4738 300.556 83.7668 300.179 84.1421Z" fill="#003037"/>
<path d="M312.082 94.8354V81.1577H313.845L314.364 82.8707C314.752 82.327 315.246 81.8679 315.816 81.5211C316.421 81.09 317.148 80.8627 317.891 80.8722C318.243 80.8245 318.601 80.8245 318.954 80.8722V83.234C318.607 83.1444 318.249 83.1008 317.891 83.1043C317.408 83.0901 316.928 83.1775 316.481 83.3608C316.035 83.5441 315.631 83.8192 315.297 84.1684C314.609 84.9651 314.256 85.9976 314.312 87.0492V94.8354H312.082Z" fill="#003037"/>
<path d="M328.781 81.5468C329.559 81.9831 330.198 82.631 330.623 83.4155C331.09 84.2551 331.323 85.2055 331.297 86.1666V94.8351H329.534L329.041 93.1222H328.911C328.49 93.6972 327.951 94.1751 327.329 94.5237C326.54 94.9698 325.642 95.1856 324.736 95.1466C323.909 95.158 323.091 94.9711 322.351 94.6015C321.689 94.2653 321.133 93.7535 320.743 93.1222C320.359 92.4987 320.161 91.7783 320.172 91.0459C320.164 90.2181 320.439 89.4123 320.95 88.7619C321.531 88.0705 322.282 87.5427 323.129 87.2307C324.149 86.8519 325.23 86.667 326.318 86.6856H328.911V86.0627C328.935 85.6596 328.875 85.2559 328.737 84.8765C328.599 84.4971 328.385 84.15 328.107 83.8567C327.836 83.5772 327.508 83.3587 327.146 83.2155C326.784 83.0724 326.396 83.0078 326.007 83.0262C325.304 82.984 324.61 83.2061 324.062 83.649C323.585 84.066 323.265 84.6338 323.154 85.2582H320.795C320.895 84.48 321.169 83.7346 321.599 83.0781C322.048 82.3877 322.675 81.8317 323.414 81.4689C324.217 81.0624 325.107 80.8575 326.007 80.872C326.976 80.8434 327.934 81.0765 328.781 81.5468ZM327.9 92.084C328.255 91.7562 328.533 91.3529 328.712 90.9039C328.892 90.4548 328.968 89.9713 328.937 89.4886V88.4505H326.525C325.508 88.392 324.493 88.6165 323.595 89.0993C323.28 89.266 323.016 89.5164 322.833 89.8231C322.65 90.1299 322.555 90.481 322.558 90.8382C322.547 91.1343 322.604 91.4289 322.726 91.699C322.847 91.9692 323.029 92.2075 323.258 92.3955C323.807 92.8137 324.489 93.0168 325.177 92.9665C325.667 93.0058 326.159 92.9481 326.626 92.7967C327.093 92.6453 327.526 92.4031 327.9 92.084Z" fill="#003037"/>
<path d="M336.613 93.9266C335.83 92.9927 335.431 91.7958 335.498 90.5785V83.3115H333.164V81.2611H334.201C334.424 81.2732 334.646 81.2403 334.856 81.1645C335.065 81.0887 335.257 80.9715 335.42 80.8199C335.573 80.6632 335.692 80.4758 335.768 80.2701C335.844 80.0644 335.876 79.8449 335.861 79.626V77.5757H337.832V81.1573H340.943V83.3115H337.832V90.5007C337.793 91.1637 337.996 91.8182 338.402 92.3434C338.611 92.5459 338.859 92.7033 339.131 92.806C339.403 92.9086 339.694 92.9544 339.984 92.9403C340.313 92.9506 340.641 92.8886 340.943 92.7587V94.9128C340.483 95.0639 340.002 95.1427 339.517 95.1464C338.974 95.1603 338.435 95.0587 337.934 94.8484C337.434 94.6381 336.983 94.3239 336.613 93.9266Z" fill="#003037"/>
<path d="M343.51 78.692C343.373 78.5518 343.265 78.3853 343.194 78.2024C343.123 78.0195 343.089 77.8241 343.095 77.6279C343.086 77.4313 343.118 77.2349 343.19 77.0516C343.261 76.8682 343.37 76.702 343.51 76.5638C343.793 76.3043 344.164 76.1647 344.547 76.1745C344.947 76.1593 345.337 76.2988 345.637 76.5638C345.777 76.702 345.886 76.8682 345.957 77.0516C346.029 77.2349 346.061 77.4313 346.051 77.6279C346.059 77.8266 346.024 78.0246 345.948 78.2083C345.872 78.392 345.757 78.557 345.611 78.692C345.474 78.8354 345.309 78.9487 345.126 79.0247C344.942 79.1006 344.746 79.1376 344.547 79.1332C344.353 79.1356 344.161 79.0976 343.983 79.0216C343.804 78.9457 343.643 78.8334 343.51 78.692ZM345.74 94.8352H343.381V81.1576H345.74V94.8352Z" fill="#003037"/>
<path d="M351.835 94.2125C350.812 93.5808 349.979 92.6841 349.423 91.6171C348.818 90.5026 348.505 89.2522 348.516 87.9836C348.505 86.7231 348.818 85.4811 349.423 84.376C349.983 83.312 350.815 82.4162 351.835 81.7806C352.825 81.1697 353.965 80.8462 355.128 80.8462C356.291 80.8462 357.432 81.1697 358.422 81.7806C359.449 82.4146 360.29 83.3102 360.859 84.376C361.457 85.4831 361.761 86.7253 361.741 87.9836C361.76 89.2501 361.457 90.5006 360.859 91.6171C360.295 92.6859 359.453 93.5825 358.422 94.2125C357.432 94.8234 356.291 95.1469 355.128 95.1469C353.965 95.1469 352.825 94.8234 351.835 94.2125ZM357.255 92.3178C357.921 91.8785 358.458 91.2693 358.811 90.553C359.21 89.7475 359.406 88.8564 359.381 87.9576C359.41 87.0584 359.214 86.1663 358.811 85.3622C358.457 84.6533 357.92 84.0526 357.255 83.6233C356.623 83.211 355.883 82.9943 355.128 83.0004C354.375 83.0017 353.637 83.2178 353.002 83.6233C352.337 84.0526 351.799 84.6533 351.446 85.3622C351.043 86.1663 350.847 87.0584 350.876 87.9576C350.851 88.8564 351.047 89.7475 351.446 90.553C351.799 91.2693 352.336 91.8785 353.002 92.3178C353.637 92.7248 354.375 92.9411 355.128 92.9411C355.882 92.9411 356.62 92.7248 357.255 92.3178Z" fill="#003037"/>
<path d="M364.594 94.835V81.1573H366.331L366.85 82.8703H366.979C367.382 82.3048 367.905 81.8351 368.509 81.4947C369.231 81.0681 370.057 80.8524 370.895 80.8718C371.888 80.8587 372.866 81.1191 373.722 81.6245C374.571 82.1156 375.257 82.847 375.692 83.7267C376.175 84.7017 376.415 85.7792 376.392 86.8671V94.835H374.033V87.0488C374.083 86.0136 373.73 84.9993 373.047 84.2199C372.726 83.855 372.325 83.5693 371.875 83.3847C371.425 83.2002 370.939 83.1218 370.454 83.1558C369.971 83.1366 369.489 83.2217 369.042 83.4053C368.594 83.5889 368.192 83.8667 367.861 84.2199C367.514 84.6008 367.245 85.0471 367.072 85.5328C366.898 86.0184 366.823 86.5337 366.85 87.0488V94.835H364.594Z" fill="#003037"/>
<path d="M389.279 94.2124C388.256 93.5808 387.422 92.684 386.867 91.617C386.269 90.5006 385.966 89.25 385.985 87.9835C385.966 86.7252 386.269 85.483 386.867 84.3759C387.426 83.3119 388.259 82.4161 389.279 81.7805C390.266 81.1632 391.408 80.8392 392.572 80.8462C393.579 80.8275 394.573 81.0783 395.45 81.5729C396.301 82.0571 397.035 82.7214 397.602 83.5194C398.15 84.298 398.529 85.1818 398.717 86.1148H396.358C396.138 85.2686 395.668 84.5087 395.009 83.9347C394.336 83.3486 393.464 83.0422 392.572 83.0782C391.826 83.0757 391.096 83.2922 390.471 83.7011C389.792 84.1216 389.244 84.724 388.89 85.44C388.486 86.244 388.29 87.1362 388.319 88.0354C388.295 88.9342 388.49 89.8253 388.89 90.6308C389.242 91.3471 389.779 91.9563 390.445 92.3956C391.078 92.808 391.817 93.0246 392.572 93.0185C393.464 93.0545 394.336 92.7481 395.009 92.1621C395.668 91.5881 396.138 90.8281 396.358 89.9819H398.717C398.529 90.915 398.15 91.7987 397.602 92.5773C397.035 93.3753 396.301 94.0397 395.45 94.5238C394.573 95.0184 393.579 95.2693 392.572 95.2506C391.397 95.2266 390.255 94.8663 389.279 94.2124Z" fill="#003037"/>
<path d="M403.956 94.2125C402.933 93.5808 402.1 92.6841 401.545 91.6171C400.939 90.5026 400.627 89.2522 400.637 87.9836C400.626 86.7231 400.939 85.4811 401.545 84.376C402.104 83.312 402.936 82.4162 403.956 81.7806C404.946 81.1697 406.086 80.8462 407.249 80.8462C408.412 80.8462 409.553 81.1697 410.543 81.7806C411.576 82.4075 412.419 83.3049 412.98 84.376C413.578 85.4831 413.882 86.7253 413.862 87.9836C413.881 89.2501 413.578 90.5006 412.98 91.6171C412.423 92.6913 411.579 93.5897 410.543 94.2125C409.553 94.8234 408.412 95.1469 407.249 95.1469C406.086 95.1469 404.946 94.8234 403.956 94.2125ZM409.376 92.3178C410.042 91.8785 410.579 91.2693 410.932 90.553C411.331 89.7475 411.527 88.8564 411.502 87.9576C411.531 87.0584 411.335 86.1663 410.932 85.3622C410.578 84.6533 410.041 84.0526 409.376 83.6233C408.746 83.2155 408.012 82.9985 407.262 82.9985C406.512 82.9985 405.779 83.2155 405.149 83.6233C404.47 84.0439 403.922 84.6462 403.567 85.3622C403.164 86.1663 402.968 87.0584 402.997 87.9576C402.972 88.8564 403.168 89.7475 403.567 90.553C403.92 91.2693 404.457 91.8785 405.123 92.3178C405.758 92.7248 406.496 92.9411 407.249 92.9411C408.003 92.9411 408.741 92.7248 409.376 92.3178Z" fill="#003037"/>
<path d="M432.792 81.5469C433.521 82.0334 434.097 82.7175 434.452 83.5194C434.875 84.4649 435.079 85.4942 435.048 86.53V94.8352H432.714V86.5819C432.772 85.6517 432.496 84.7316 431.936 83.9865C431.693 83.6834 431.386 83.4388 431.036 83.2707C430.685 83.1026 430.302 83.0153 429.914 83.0153C429.526 83.0153 429.142 83.1026 428.792 83.2707C428.442 83.4388 428.134 83.6834 427.891 83.9865C427.291 84.7125 426.994 85.6421 427.061 86.5819V94.8352H424.702V86.5819C424.753 85.6564 424.488 84.7409 423.95 83.9865C423.701 83.6949 423.39 83.4622 423.04 83.3051C422.69 83.148 422.31 83.0705 421.927 83.0782C421.537 83.0698 421.151 83.1495 420.796 83.3112C420.441 83.473 420.128 83.7127 419.878 84.0125C419.296 84.7482 419.001 85.6706 419.049 86.6079V94.8612H416.715V81.1576H418.452L418.971 82.8705H419.101C419.441 82.3407 419.881 81.8823 420.397 81.5209C420.987 81.0797 421.709 80.851 422.446 80.8721C423.371 80.814 424.288 81.0801 425.039 81.6248C425.627 82.0741 426.105 82.6508 426.439 83.3118C426.846 82.6473 427.384 82.0732 428.021 81.6248C428.781 81.0986 429.691 80.8344 430.614 80.8721C431.387 80.9007 432.138 81.1335 432.792 81.5469Z" fill="#003037"/>
<path d="M454.702 81.5466C455.425 82.0403 455.999 82.7224 456.362 83.5191C456.773 84.4685 456.977 85.4951 456.958 86.5297V94.835H454.625V86.5816C454.682 85.6515 454.406 84.7313 453.847 83.9863C453.6 83.698 453.294 83.4673 452.949 83.3104C452.604 83.1534 452.229 83.0741 451.85 83.0779C451.454 83.0687 451.061 83.1505 450.701 83.3169C450.342 83.4834 450.025 83.7301 449.775 84.0382C449.187 84.7704 448.891 85.6954 448.946 86.6336V94.8869H446.612V86.5816C446.669 85.6515 446.393 84.7313 445.834 83.9863C445.588 83.698 445.281 83.4673 444.936 83.3104C444.591 83.1534 444.216 83.0741 443.837 83.0779C443.448 83.0695 443.061 83.1492 442.706 83.3109C442.352 83.4727 442.038 83.7124 441.789 84.0122C441.196 84.742 440.899 85.6688 440.959 86.6076V94.8609H438.625V81.1573H440.362L440.881 82.8703C441.222 82.3404 441.662 81.882 442.178 81.5207C442.766 81.0757 443.489 80.8466 444.226 80.8718C445.108 80.8415 445.975 81.1064 446.69 81.6245C447.292 82.066 447.78 82.6442 448.116 83.3115C448.514 82.6408 449.054 82.0652 449.698 81.6245C450.455 81.093 451.367 80.8283 452.291 80.8718C453.142 80.8631 453.979 81.0971 454.702 81.5466Z" fill="#003037"/>
<path d="M472.465 89.0215H462.092C462.206 90.1244 462.701 91.1527 463.492 91.9284C463.874 92.285 464.323 92.5625 464.813 92.7451C465.302 92.9277 465.823 93.0118 466.345 92.9925C467.018 93.0224 467.687 92.8693 468.281 92.5494C468.874 92.2296 469.37 91.7549 469.716 91.1757H472.024C471.576 92.3117 470.8 93.2878 469.794 93.9787C468.762 94.7513 467.504 95.1618 466.215 95.1466C465.029 95.1521 463.864 94.8304 462.849 94.217C461.833 93.6035 461.006 92.7218 460.458 91.6688C459.875 90.5295 459.581 89.2636 459.603 87.9834C459.583 86.7251 459.887 85.4829 460.484 84.3758C461.044 83.3118 461.876 82.416 462.896 81.7804C463.883 81.1631 465.025 80.8391 466.189 80.8461C467.319 80.8261 468.429 81.1423 469.379 81.7545C470.346 82.3465 471.134 83.1896 471.661 84.1941C472.217 85.2588 472.502 86.4445 472.49 87.646C472.537 88.1039 472.528 88.5657 472.465 89.0215ZM463.492 84.1422C462.689 84.9363 462.177 85.979 462.04 87.101H470.286C470.178 86.0049 469.713 84.9747 468.964 84.1682C468.634 83.8088 468.233 83.5217 467.787 83.3251C467.341 83.1286 466.858 83.0268 466.371 83.0262C465.84 83.0043 465.311 83.092 464.815 83.284C464.32 83.4761 463.87 83.7682 463.492 84.1422Z" fill="#003037"/>
<path d="M475.398 94.8352V81.1576H477.214L477.732 82.8705H477.862C478.255 82.3314 478.748 81.8732 479.314 81.5209C479.927 81.0862 480.663 80.8589 481.414 80.8721C481.767 80.8258 482.125 80.8258 482.478 80.8721V83.2339C482.13 83.1459 481.773 83.1023 481.414 83.1041C480.931 83.0849 480.45 83.17 480.002 83.3536C479.555 83.5373 479.152 83.8151 478.821 84.1682C478.471 84.5578 478.202 85.013 478.028 85.5075C477.854 86.0019 477.78 86.5258 477.81 87.0491V94.8352H475.398Z" fill="#003037"/>
<path d="M486.728 94.2121C485.705 93.5805 484.871 92.6837 484.316 91.6167C483.718 90.5003 483.415 89.2497 483.434 87.9832C483.415 86.7249 483.718 85.4827 484.316 84.3756C484.876 83.3116 485.708 82.4158 486.728 81.7802C487.724 81.1621 488.875 80.8382 490.047 80.8459C491.045 80.8305 492.03 81.0813 492.899 81.5726C493.755 82.0496 494.491 82.7153 495.052 83.5191C495.599 84.2977 495.978 85.1815 496.167 86.1145H493.833C493.593 85.2773 493.126 84.5228 492.484 83.9344C491.807 83.3551 490.938 83.0497 490.047 83.0779C489.292 83.0718 488.553 83.2885 487.921 83.7008C487.255 84.1301 486.718 84.7308 486.365 85.4397C485.944 86.2382 485.738 87.1328 485.768 88.0351C485.738 88.9374 485.944 89.832 486.365 90.6305C486.716 91.3396 487.243 91.9471 487.895 92.3953C488.594 92.7686 489.389 92.9224 490.177 92.8365C491.067 92.8648 491.937 92.5594 492.614 91.9801C493.256 91.3917 493.723 90.6372 493.963 89.7999H496.296C496.108 90.733 495.728 91.6167 495.181 92.3953C494.621 93.1992 493.885 93.8648 493.029 94.3419C492.16 94.8331 491.175 95.0839 490.177 95.0686C488.968 95.1246 487.77 94.827 486.728 94.2121Z" fill="#003037"/>
<path d="M510.923 89.0217H500.551C500.663 90.1305 501.169 91.1622 501.977 91.9285C502.353 92.2868 502.797 92.5656 503.282 92.7484C503.768 92.9312 504.285 93.0143 504.804 92.9926C505.477 93.0225 506.146 92.8694 506.739 92.5496C507.333 92.2297 507.829 91.755 508.175 91.1759H510.586C510.139 92.3118 509.362 93.2879 508.356 93.9789C507.324 94.7514 506.066 95.1619 504.778 95.1468C503.597 95.1579 502.437 94.834 501.433 94.2125C500.398 93.5947 499.562 92.6943 499.021 91.6171C498.437 90.4777 498.143 89.2119 498.165 87.9316C498.145 86.6734 498.449 85.4311 499.047 84.3241C499.606 83.2601 500.439 82.3643 501.458 81.7287C502.446 81.1114 503.588 80.7874 504.752 80.7943C505.881 80.7744 506.991 81.0905 507.941 81.7027C508.914 82.2874 509.704 83.1324 510.223 84.1424C510.743 85.2341 510.984 86.4382 510.923 87.6462C510.978 88.103 510.978 88.5648 510.923 89.0217ZM501.951 84.1424C501.147 84.9364 500.636 85.9791 500.499 87.1011H508.745C508.637 86.0051 508.172 84.9748 507.423 84.1683C507.093 83.8089 506.692 83.5218 506.246 83.3253C505.799 83.1287 505.317 83.027 504.829 83.0264C504.295 83.0024 503.761 83.0891 503.261 83.2811C502.761 83.4732 502.307 83.7664 501.925 84.1424H501.951Z" fill="#003037"/>
</g>
<defs>
<clipPath id="clip0_4828_2320">
<rect width="511" height="100" fill="white"/>
</clipPath>
</defs>
</svg>
