<svg width="228" height="61" viewBox="0 0 228 61" fill="none" xmlns="http://www.w3.org/2000/svg">
<path d="M125.335 1.09335V1.17799H125.41C125.485 1.17799 125.485 1.17799 125.485 1.25323V1.32846L125.811 1.33223L126.134 1.33787L126.14 1.41687L126.146 1.49775H126.39H126.633V1.58239V1.66703H126.877H127.122V1.74227V1.81563L127.363 1.82127L127.601 1.82691L127.607 1.90591L127.613 1.98679H127.773H127.931V2.07144V2.15608H128.175H128.42V2.23131V2.30655H128.664H128.909V2.3912V2.47584H129.078H129.247V2.56048V2.64512H129.492H129.736V2.72036V2.7956H129.896H130.056V2.88024V2.96488H130.216H130.376V3.04952V3.13417H130.545H130.714V3.20941V3.28464H130.874H131.034V3.36929V3.45393H131.194H131.354V3.53857V3.62321H131.523H131.693V3.69845V3.77369H131.852H132.012V3.85833V3.94297H132.172H132.332V4.02762V4.11226H132.501H132.671V4.1875V4.26273H132.831H132.99V4.34737V4.43202H133.15H133.31V4.51666V4.6013H133.395H133.479V4.67654V4.75178H133.639H133.799V4.83642V4.92106H133.957H134.117L134.123 5.00006C134.128 5.08094 134.128 5.08094 134.209 5.08659C134.288 5.09223 134.288 5.09223 134.288 5.16747V5.24082H134.448H134.608V5.32547V5.41011H134.693H134.777V5.49475V5.57939H134.937H135.097V5.65463V5.72987H135.182H135.266V5.81451V5.89915H135.351H135.436V5.98379V6.06844H135.595H135.755V6.14368V6.21891H135.84H135.925V6.30355V6.3882H135.998C136.073 6.3882 136.073 6.3882 136.079 6.4672C136.085 6.54808 136.085 6.54808 136.165 6.55372C136.244 6.55936 136.244 6.55936 136.244 6.6346V6.70796H136.404H136.564V6.7926V6.87724H136.649H136.733V6.96189V7.04653H136.818H136.903V7.12176V7.197H136.978H137.053V7.28165V7.36629H137.138H137.223V7.45093V7.53557H137.307H137.392V7.61081V7.68605H137.467H137.542V7.77069V7.85533H137.627H137.712V7.93997V8.02462H137.796H137.881V8.09986V8.17509H137.956H138.031V8.25974V8.34438H138.116H138.201V8.42902V8.51366H138.285H138.37V8.67354V8.83342H138.443C138.518 8.83342 138.518 8.83342 138.524 8.91242C138.53 8.9933 138.53 8.9933 138.611 8.99894C138.69 9.00459 138.69 9.00459 138.69 9.07983V9.15318H138.774H138.859V9.23782V9.32247H138.934H139.009V9.48235V9.64223H139.094H139.179V9.72687V9.81151H139.263H139.348V9.97139V10.1313H139.423H139.497L139.502 10.2949L139.508 10.4604L139.589 10.4661L139.668 10.4717V10.6316V10.7896H139.752H139.837V10.9495V11.1094H139.912H139.986L139.991 11.273L139.997 11.4385L140.078 11.4442L140.157 11.4498V11.6097V11.7677H140.241H140.326V12.0122V12.2567H140.401H140.477V12.5013V12.7458H140.561H140.646V13.0637V13.3834L140.727 13.3891L140.806 13.3947L140.811 14.0474L140.815 14.702H140.89H140.966V15.3509V15.9998H140.89H140.815V16.6581V17.3165H140.73H140.646V17.6344V17.9541L140.567 17.9598L140.486 17.9654L140.48 18.2889L140.477 18.6143H140.401H140.326V18.8588V19.1034H140.241H140.157V19.3479V19.5924H140.072H139.987V19.7523V19.9122H139.912H139.837V20.1567V20.4012H139.752H139.668V20.5705V20.7417L139.504 20.736L139.339 20.7304L139.333 20.6495C139.327 20.5705 139.327 20.5705 139.252 20.5705H139.179V20.4859V20.4012H139.094H139.009V20.3279C139.009 20.2526 139.009 20.2526 138.93 20.247C138.85 20.2413 138.85 20.2413 138.844 20.1605C138.838 20.0815 138.838 20.0815 138.763 20.0815H138.69V19.9968V19.9122H138.605H138.52V19.7523V19.5924H138.436H138.351V19.5078V19.4231H138.276H138.201V19.3479V19.2727H138.116H138.031V19.188V19.1034H137.947H137.862V19.0187V18.9341H137.787H137.712V18.8588V18.7836H137.627H137.542V18.699V18.6143H137.458H137.373V18.5297V18.445H137.298H137.223V18.3698V18.2946H137.138H137.053V18.2118V18.1272L136.974 18.1215C136.893 18.1159 136.893 18.1159 136.888 18.035C136.882 17.956 136.882 17.956 136.807 17.956H136.733V17.7961V17.6362H136.649H136.564V17.5516V17.4669H136.48H136.395V17.3917V17.3165H136.32H136.244V17.2318V17.1472H136.16H136.075V17.0625V16.9779H135.99H135.906V16.9027V16.8274H135.831H135.755V16.7428V16.6581H135.671H135.586V16.5735V16.4889H135.501H135.417V16.4136V16.3384H135.342H135.266V16.2537V16.1691H135.182H135.097V16.0845V15.9998H135.012H134.928V15.8399V15.6801H134.853C134.777 15.6801 134.777 15.6801 134.777 15.6067C134.777 15.5315 134.777 15.5315 134.698 15.5258C134.617 15.5202 134.617 15.5202 134.612 15.4412C134.606 15.3622 134.606 15.3622 134.527 15.3565C134.448 15.3509 134.448 15.3509 134.442 15.27C134.437 15.191 134.437 15.191 134.362 15.191C134.288 15.191 134.288 15.191 134.288 15.1177C134.288 15.0424 134.288 15.0424 134.209 15.0368C134.128 15.0311 134.128 15.0311 134.123 14.9521C134.117 14.8731 134.117 14.8731 134.038 14.8675C133.959 14.8618 133.959 14.8618 133.953 14.781C133.948 14.702 133.948 14.702 133.873 14.702C133.799 14.702 133.799 14.702 133.799 14.6286C133.799 14.5534 133.799 14.5534 133.72 14.5477C133.639 14.5421 133.639 14.5421 133.634 14.4631C133.628 14.3841 133.628 14.3841 133.549 14.3784C133.47 14.3728 133.47 14.3728 133.464 14.2919C133.459 14.2129 133.459 14.2129 133.384 14.2129C133.31 14.2129 133.31 14.2129 133.31 14.1396C133.31 14.0643 133.31 14.0643 133.231 14.0587L133.15 14.053L133.145 13.8875L133.139 13.7239H133.056H132.972V13.6486V13.5734H132.896H132.821V13.4888V13.4041H132.736H132.652V13.3195V13.2348H132.567H132.483V13.1596V13.0844H132.407H132.332V12.9997V12.9151H132.247H132.163V12.8304V12.7458H132.078H131.993V12.6705V12.5953H131.918H131.843V12.5107V12.426H131.758H131.674V12.3414V12.2567H131.589H131.504V12.1815V12.1063H131.429H131.354V11.937V11.7677H131.269H131.185V11.6943C131.185 11.6191 131.185 11.6191 131.106 11.6135C131.025 11.6078 131.025 11.6078 131.019 11.5269C131.014 11.4479 131.014 11.4479 130.938 11.4479H130.865V11.3633V11.2786H130.78H130.696V11.2034V11.1282H130.62H130.545V11.0435V10.9589H130.461H130.376V10.8742V10.7896H130.291H130.207V10.7144V10.6391H130.131H130.056V10.5545V10.4698H126.473H122.89V10.6297V10.7896H122.965H123.04V10.8742V10.9589H123.125H123.209V11.0322C123.209 11.1075 123.209 11.1075 123.29 11.1131C123.369 11.1188 123.369 11.1188 123.375 11.1978C123.381 11.2786 123.381 11.2786 123.456 11.2786H123.529V11.3633V11.4479H123.614H123.699V11.5213C123.699 11.5965 123.699 11.5965 123.779 11.6022C123.858 11.6078 123.858 11.6078 123.864 11.6868C123.87 11.7677 123.87 11.7677 123.945 11.7677H124.018V11.9276V12.0875H124.103H124.188V12.1721V12.2567H124.272H124.357V12.3414V12.426H124.432H124.507V12.5013V12.5765H124.592H124.677V12.6611V12.7458H124.761H124.846V12.8304V12.9151H124.921H124.996V12.9903V13.0655H125.081H125.166V13.1502V13.2348H125.25H125.335V13.3947V13.5546H125.41H125.485V13.6392V13.7239H125.57H125.655V13.7972C125.655 13.8725 125.655 13.8725 125.736 13.8781C125.815 13.8838 125.815 13.8838 125.82 13.9628C125.826 14.0436 125.826 14.0436 125.901 14.0436H125.974V14.1283V14.2129H126.059H126.144V14.2863C126.144 14.3615 126.144 14.3615 126.225 14.3672C126.304 14.3728 126.304 14.3728 126.309 14.4518C126.315 14.5327 126.315 14.5327 126.39 14.5327H126.464V14.6173V14.702H126.548H126.633V14.86V15.0198L126.714 15.0255C126.793 15.0311 126.793 15.0311 126.798 15.1101C126.804 15.191 126.804 15.191 126.879 15.191C126.953 15.191 126.953 15.191 126.953 15.2644C126.953 15.3396 126.953 15.3396 127.033 15.3452C127.112 15.3509 127.112 15.3509 127.118 15.4299C127.124 15.5089 127.124 15.5089 127.203 15.5145C127.282 15.5202 127.282 15.5202 127.287 15.5992C127.293 15.6801 127.293 15.6801 127.368 15.6801C127.442 15.6801 127.442 15.6801 127.442 15.7534C127.442 15.8286 127.442 15.8286 127.522 15.8343C127.601 15.8399 127.601 15.8399 127.607 15.9189C127.613 15.9979 127.613 15.9979 127.692 16.0036C127.771 16.0092 127.771 16.0092 127.776 16.0882C127.782 16.1691 127.782 16.1691 127.857 16.1691H127.931V16.329V16.4889H128.015H128.1V16.5735V16.6581H128.185H128.269V16.7334V16.8086H128.344H128.42V16.8933V16.9779H128.504H128.589V17.0625V17.1472H128.674H128.758V17.2224V17.2977H128.834H128.909V17.3823V17.4669H128.993H129.078V17.5516V17.6362H129.163H129.247V17.7115V17.7867H129.323H129.398V17.956V18.1253H129.482H129.567V18.1986C129.567 18.2739 129.567 18.2739 129.648 18.2795C129.727 18.2852 129.727 18.2852 129.733 18.3642C129.738 18.445 129.738 18.445 129.813 18.445H129.887V18.5297V18.6143H129.971H130.056V18.6877C130.056 18.7629 130.056 18.7629 130.137 18.7686C130.216 18.7742 130.216 18.7742 130.222 18.8532C130.227 18.9341 130.227 18.9341 130.303 18.9341H130.376V19.0187V19.1034H130.461H130.545V19.1767C130.545 19.252 130.545 19.252 130.626 19.2576L130.705 19.2632L130.711 19.4269L130.716 19.5924H130.79C130.865 19.5924 130.865 19.5924 130.865 19.6658C130.865 19.741 130.865 19.741 130.946 19.7467C131.025 19.7523 131.025 19.7523 131.03 19.8313C131.036 19.9103 131.036 19.9103 131.115 19.9159C131.194 19.9216 131.194 19.9216 131.2 20.0006C131.205 20.0815 131.205 20.0815 131.281 20.0815C131.354 20.0815 131.354 20.0815 131.354 20.1548C131.354 20.2301 131.354 20.2301 131.435 20.2357C131.514 20.2413 131.514 20.2413 131.519 20.3203C131.525 20.3993 131.525 20.3993 131.604 20.405C131.683 20.4106 131.683 20.4106 131.689 20.4896C131.694 20.5705 131.694 20.5705 131.77 20.5705C131.843 20.5705 131.843 20.5705 131.843 20.6439C131.843 20.7191 131.843 20.7191 131.924 20.7247L132.003 20.7304L132.009 20.894L132.014 21.0595H132.097H132.182V21.1348V21.21H132.257H132.332V21.2947V21.3793H132.417H132.501V21.4639V21.5486H132.586H132.671V21.6238V21.6991H132.746H132.821V21.7837V21.8684H132.906H132.99V21.953V22.0376H133.066H133.141V22.1129V22.1881H133.226H133.31V22.3574V22.5267H133.395H133.479V22.6019V22.6772H133.555H133.63V22.7618V22.8464H133.715H133.799V22.9311V23.0157H133.884H133.968V23.091V23.1662H134.044H134.119V23.2508V23.3355H134.204H134.288V23.4201V23.5048H134.373H134.458V23.58V23.6552H134.533H134.608V23.7399V23.8245H134.693H134.777V23.9825V24.1424L134.858 24.1481C134.937 24.1537 134.937 24.1537 134.943 24.2327C134.948 24.3136 134.948 24.3136 135.022 24.3136C135.095 24.3136 135.095 24.3136 135.101 24.3926C135.106 24.4735 135.106 24.4735 135.187 24.4791C135.266 24.4847 135.266 24.4847 135.266 24.5581C135.266 24.6315 135.266 24.6315 135.347 24.6371C135.426 24.6427 135.426 24.6427 135.432 24.7217C135.437 24.8026 135.437 24.8026 135.511 24.8026C135.584 24.8026 135.584 24.8026 135.59 24.8816C135.595 24.9625 135.595 24.9625 135.676 24.9681C135.755 24.9738 135.755 24.9738 135.755 25.0471C135.755 25.1205 135.755 25.1205 135.836 25.1261L135.915 25.1318L135.921 25.2954L135.927 25.461H135.84H135.755V25.5456V25.6302H135.671H135.586V25.7055V25.7807H135.511H135.436V25.8654V25.95H135.351H135.266V26.0346V26.1193H135.182H135.097V26.1945V26.2698H135.022H134.947V26.3544V26.439H134.862H134.777V26.5237V26.6083H134.693H134.608V26.6836V26.7588H134.448H134.288V26.8434V26.9281H134.204H134.119V27.0127V27.0974H134.044H133.968V27.1726V27.2478H133.884H133.799V27.3325V27.4171H133.715H133.63V27.5018V27.5864H133.555C133.479 27.5864 133.479 27.5864 133.479 27.6617V27.735L133.316 27.7407L133.15 27.7463L133.145 27.8253C133.139 27.9062 133.139 27.9062 133.066 27.9062C132.992 27.9062 132.992 27.9062 132.987 27.9852C132.981 28.0661 132.981 28.0661 132.902 28.0717C132.821 28.0773 132.821 28.0773 132.821 28.1526C132.821 28.2259 132.821 28.2259 132.748 28.2259C132.673 28.2259 132.673 28.2259 132.667 28.3049C132.661 28.3858 132.661 28.3858 132.582 28.3915C132.503 28.3971 132.503 28.3971 132.498 28.4761L132.492 28.5551L132.338 28.5607L132.182 28.5664V28.6397V28.715H132.097H132.012V28.7996V28.8843H131.928H131.843V28.9689V29.0536H131.768H131.693V29.1288V29.204H131.523H131.354V29.2887V29.3733H131.281C131.205 29.3733 131.205 29.3733 131.2 29.4523C131.194 29.5332 131.194 29.5332 131.115 29.5388C131.034 29.5445 131.034 29.5445 131.034 29.6197V29.6931H130.95H130.865V29.7777V29.8624H130.705H130.545V29.947V30.0316H130.461H130.376V30.1069C130.376 30.1821 130.376 30.1821 130.303 30.1821C130.227 30.1821 130.227 30.1821 130.222 30.2611L130.216 30.342L130.052 30.3476L129.887 30.3533V30.436V30.5207H129.812H129.736V30.5959V30.6712H129.652H129.567V30.7558V30.8404H129.409H129.249L129.244 30.9194C129.238 31.0003 129.238 31.0003 129.159 31.006C129.078 31.0116 129.078 31.0116 129.078 31.0869V31.1602H128.993H128.909V31.2448V31.3295H128.749H128.589V31.4141V31.4988H128.504H128.42V31.574V31.6493H128.26H128.1V31.7339V31.8185H128.015H127.931V31.9032V31.9878H127.855H127.78V32.0631V32.1383H127.611H127.442V32.2229V32.3076H127.368C127.293 32.3076 127.293 32.3076 127.287 32.3866L127.282 32.4675L127.118 32.4731L126.953 32.4787V32.5521C126.953 32.6273 126.953 32.6273 126.879 32.6273C126.804 32.6273 126.804 32.6273 126.798 32.7063L126.793 32.7872L126.629 32.7929L126.464 32.7985V32.8813V32.9659H126.388H126.313V33.0411V33.1164H126.144H125.974V33.201V33.2857H125.899H125.824V33.3609V33.4361H125.739H125.655V33.5208V33.6054H125.495H125.335V33.6901V33.7747H125.25H125.166V33.85V33.9252H125.006H124.846V34.0098V34.0945H124.761H124.677V34.1791V34.2638H124.517H124.357V34.339V34.4142H124.272H124.188V34.4989V34.5835H124.028H123.868V34.6682V34.7528H123.783H123.699V34.828V34.9033H123.539H123.379V34.9879V35.0726H123.209H123.04V35.1572V35.2419H122.965C122.89 35.2419 122.89 35.2419 122.89 35.3171V35.3904L122.726 35.3961L122.561 35.4017L122.555 35.4807C122.549 35.5616 122.549 35.5616 122.474 35.5616H122.401V35.6463V35.7309H122.231H122.062V35.8061V35.8814H121.987H121.912V35.966V36.0507H121.742H121.573V36.1353V36.2199H121.498C121.423 36.2199 121.423 36.2199 121.423 36.2952V36.3685L121.259 36.3742L121.093 36.3798L121.088 36.4588L121.082 36.5397H120.922H120.764V36.6243V36.709H120.68H120.595V36.7842V36.8595H120.435H120.275V36.9441V37.0287H120.115H119.955V37.1134V37.198H119.871H119.786V37.2733V37.3485H119.626H119.466V37.4331V37.5178H119.382H119.297V37.6024V37.6871H119.137H118.977V37.7623V37.8357L118.814 37.8413L118.648 37.847L118.643 37.926C118.637 38.0068 118.637 38.0068 118.562 38.0068H118.488V38.0915V38.1761H118.319H118.15V38.2514V38.3266H117.99H117.83V38.4112V38.4959H117.745H117.661V38.5805V38.6652H117.501H117.341V38.7404V38.8156H117.181H117.021V38.9003V38.9849H116.852H116.683V39.1448V39.3047H116.927H117.172V39.22V39.1354H117.576H117.98V39.0602V38.9849H118.223H118.468L118.473 38.904L118.479 38.825L118.718 38.8194L118.957 38.8138L118.962 38.7348L118.968 38.6558L119.209 38.6501L119.448 38.6445V38.5711V38.4959H119.692H119.937V38.4112V38.3266H120.179H120.424L120.429 38.2457L120.435 38.1667L120.676 38.1611L120.915 38.1554V38.0821V38.0068H121.084H121.253V37.9222V37.8376H121.498H121.742V37.7529V37.6683H121.902H122.062V37.593V37.5178H122.307H122.551V37.4331V37.3485H122.709H122.869L122.875 37.2676L122.88 37.1886L123.121 37.183L123.36 37.1773V37.104V37.0287H123.529H123.699V36.9441V36.8595H123.858H124.018V36.7748V36.6902H124.178H124.338V36.6149V36.5416L124.504 36.5359L124.667 36.5303L124.673 36.4494L124.679 36.3704H124.838H124.996V36.2858V36.2011H125.156H125.316V36.1259V36.0507H125.561H125.805V35.966V35.8814H125.974H126.144V35.7967V35.7121H126.219C126.294 35.7121 126.294 35.7121 126.294 35.6369V35.5635L126.46 35.5579L126.623 35.5522L126.629 35.4713L126.635 35.3923H126.795H126.953V35.3077V35.223H127.112H127.272V35.1478V35.0726H127.442H127.611V34.9879V34.9033H127.771H127.931V34.8186V34.734H128.091H128.25V34.6588V34.5835H128.42H128.589V34.4989V34.4142H128.662C128.738 34.4142 128.738 34.4142 128.743 34.3334L128.749 34.2544L128.914 34.2487L129.078 34.2431V34.1697V34.0945H129.238H129.398V34.0098V33.9252H129.556H129.716L129.721 33.8443C129.727 33.7653 129.727 33.7653 129.808 33.7597C129.887 33.754 129.887 33.754 129.887 33.6788V33.6054H130.047H130.207V33.5208V33.4361H130.376H130.545V33.3515V33.2669H130.62H130.696V33.1916V33.1164H130.854H131.014L131.019 33.0355L131.025 32.9565L131.19 32.9509L131.354 32.9452V32.8625V32.7778H131.429H131.504V32.7026V32.6273H131.674H131.843V32.5427V32.4581H131.916C131.992 32.4581 131.992 32.4581 131.997 32.3772L132.003 32.2982L132.168 32.2925L132.332 32.2869V32.2135C132.332 32.1383 132.332 32.1383 132.405 32.1383C132.481 32.1383 132.481 32.1383 132.486 32.0574L132.492 31.9784L132.657 31.9728L132.821 31.9671V31.8844V31.7997H132.896H132.972V31.7245V31.6493H133.141H133.31V31.5646V31.48H133.384C133.459 31.48 133.459 31.48 133.464 31.3991L133.47 31.3201L133.636 31.3144L133.799 31.3088V31.2354C133.799 31.1602 133.799 31.1602 133.873 31.1602C133.948 31.1602 133.948 31.1602 133.953 31.0793L133.959 31.0003L134.125 30.9947L134.288 30.989V30.9157C134.288 30.8404 134.288 30.8404 134.363 30.8404H134.439V30.7558V30.6712H134.608H134.777V30.5865V30.5019H134.853H134.928V30.4266V30.3514H135.012H135.097V30.2668V30.1821H135.255H135.415L135.421 30.1012C135.426 30.0222 135.426 30.0222 135.507 30.0166C135.586 30.011 135.586 30.011 135.586 29.9376C135.586 29.8642 135.586 29.8642 135.667 29.8586C135.746 29.853 135.746 29.853 135.752 29.7721L135.757 29.6931H135.917H136.075V29.6084V29.5238H136.16H136.244V29.4486V29.3733H136.32H136.395V29.2887V29.204H136.564H136.733V29.1194V29.0347H136.809H136.884V28.9595V28.8843H136.969H137.053V28.7996V28.715H137.138H137.223V28.6303V28.5457H137.382H137.542V28.4723C137.542 28.3971 137.542 28.3971 137.623 28.3915C137.702 28.3858 137.702 28.3858 137.708 28.3049C137.713 28.2259 137.713 28.2259 137.789 28.2259H137.862V28.1413V28.0567H137.947H138.031V27.9814V27.9062H138.201H138.37V27.9814V28.0567H138.445H138.52V28.1413V28.2259H138.605H138.69V28.3839V28.5438L138.771 28.5495C138.85 28.5551 138.85 28.5551 138.855 28.6341C138.861 28.715 138.861 28.715 138.934 28.715C139.008 28.715 139.008 28.715 139.013 28.794C139.019 28.8749 139.019 28.8749 139.1 28.8805C139.179 28.8861 139.179 28.8861 139.179 28.9595C139.179 29.0329 139.179 29.0329 139.26 29.0385C139.339 29.0441 139.339 29.0441 139.344 29.1231C139.35 29.204 139.35 29.204 139.425 29.204H139.498V29.2887V29.3733H139.583H139.668V29.4467C139.668 29.5219 139.668 29.5219 139.749 29.5275C139.828 29.5332 139.828 29.5332 139.833 29.6122C139.839 29.6931 139.839 29.6931 139.914 29.6931H139.987V29.853V30.0128H140.072H140.157V30.0975V30.1821H140.241H140.326V30.2668V30.3514H140.401H140.477V30.4266V30.5019H140.561H140.646V30.5865V30.6712H140.73H140.815V30.7558V30.8404H140.89H140.966V30.9157V30.9909H141.05H141.135V31.0756V31.1602H141.22H141.304V31.2354V31.3107H141.379H141.455V31.48V31.6493H141.539H141.624V31.7226C141.624 31.7978 141.624 31.7978 141.705 31.8035C141.784 31.8091 141.784 31.8091 141.789 31.8881C141.795 31.969 141.795 31.969 141.87 31.969H141.944V32.0537V32.1383H142.028H142.113V32.2117C142.113 32.2869 142.113 32.2869 142.194 32.2925C142.273 32.2982 142.273 32.2982 142.278 32.3772C142.284 32.4581 142.284 32.4581 142.359 32.4581H142.433V32.5427V32.6273H142.517H142.602V32.7007C142.602 32.7759 142.602 32.7759 142.683 32.7816L142.762 32.7872L142.768 32.9509L142.773 33.1164H142.847C142.922 33.1164 142.922 33.1164 142.922 33.1897C142.922 33.265 142.922 33.265 143.003 33.2706C143.082 33.2763 143.082 33.2763 143.087 33.3553L143.093 33.4361H143.178H143.26V33.5208V33.6054H143.336C143.411 33.6054 143.411 33.6054 143.411 33.6788C143.411 33.754 143.411 33.754 143.492 33.7597C143.571 33.7653 143.571 33.7653 143.576 33.8462L143.582 33.9252H143.667H143.749V34.0098V34.0945H143.825C143.9 34.0945 143.9 34.0945 143.9 34.1678C143.9 34.2431 143.9 34.2431 143.981 34.2487L144.06 34.2544L144.065 34.418L144.071 34.5835H144.154H144.238V34.6588V34.734H144.314H144.389V34.8186V34.9033H144.474H144.558V34.9879V35.0726H144.643H144.727V35.1478V35.223H144.803H144.878V35.3077V35.3923H144.963H145.047V35.477V35.5616H145.132H145.217V35.6369V35.7121H145.292H145.367V35.8814V36.0507H145.452H145.536V36.124C145.536 36.1993 145.536 36.1993 145.617 36.2049C145.696 36.2105 145.696 36.2105 145.702 36.2914C145.707 36.3704 145.707 36.3704 145.783 36.3704H145.856V36.4551V36.5397H149.844H153.831V36.4551V36.3704H153.756H153.681V36.2952V36.2199H153.596H153.511V36.1372V36.0525L153.432 36.0469C153.352 36.0413 153.352 36.0413 153.346 35.9604C153.34 35.8814 153.34 35.8814 153.265 35.8814C153.192 35.8814 153.192 35.8814 153.192 35.8061V35.7309H153.107H153.022V35.5616V35.3923H152.938H152.853V35.3171V35.2419H152.778H152.703V35.1572V35.0726H152.618H152.533V34.9879V34.9033H152.449H152.364V34.828V34.7528H152.289H152.214V34.6682V34.5835H152.129H152.044V34.4989V34.4142H151.96H151.875V34.339V34.2638H151.8H151.725V34.1791V34.0945H151.64H151.555V34.0098V33.9252H151.471H151.386V33.85V33.7747H151.311H151.236V33.6054V33.4361H151.151H151.066V33.3628C151.066 33.2876 151.066 33.2876 150.987 33.2819C150.906 33.2763 150.906 33.2763 150.901 33.1954C150.895 33.1164 150.895 33.1164 150.82 33.1164C150.746 33.1164 150.746 33.1164 150.746 33.043C150.746 32.9678 150.746 32.9678 150.667 32.9622C150.587 32.9565 150.587 32.9565 150.581 32.8775C150.575 32.7985 150.575 32.7985 150.496 32.7929C150.417 32.7872 150.417 32.7872 150.412 32.7063C150.406 32.6273 150.406 32.6273 150.331 32.6273C150.257 32.6273 150.257 32.6273 150.257 32.554C150.257 32.4787 150.257 32.4787 150.178 32.4731C150.098 32.4675 150.098 32.4675 150.092 32.3885C150.086 32.3095 150.086 32.3095 150.007 32.3038C149.928 32.2982 149.928 32.2982 149.923 32.2173C149.917 32.1383 149.917 32.1383 149.842 32.1383C149.768 32.1383 149.768 32.1383 149.768 32.0649C149.768 31.9897 149.768 31.9897 149.689 31.9841C149.609 31.9784 149.609 31.9784 149.603 31.8994C149.597 31.8204 149.597 31.8204 149.518 31.8148L149.439 31.8091L149.434 31.653L149.428 31.4988H149.355H149.279V31.4141V31.3295H149.195H149.11V31.2448V31.1602H149.025H148.941V31.085V31.0097H148.866H148.79V30.9251V30.8404H148.706H148.621V30.7558V30.6712H148.536H148.452V30.5959V30.5207H148.376H148.301V30.436V30.3514H148.217H148.132V30.2668V30.1821H148.057H147.981V30.1069V30.0316H147.897H147.812V29.947V29.8624H147.728H147.643V29.7025V29.5426H147.568H147.492V29.458V29.3733H147.408H147.323V29.2887V29.204H147.239H147.154V29.1288V29.0536H147.079H147.003V28.9689V28.8843H146.919H146.834V28.7996V28.715H146.749H146.665V28.6397V28.5645H146.59H146.514V28.4799V28.3952H146.43H146.345V28.3106V28.2259H146.26H146.176V28.1507V28.0755H146.101H146.025V27.9908V27.9062H145.941H145.856V27.7482V27.5883L145.777 27.5827C145.696 27.577 145.696 27.577 145.691 27.4961C145.685 27.4171 145.685 27.4171 145.612 27.4171C145.538 27.4171 145.538 27.4171 145.533 27.3363C145.527 27.2573 145.527 27.2573 145.448 27.2516C145.367 27.246 145.367 27.246 145.367 27.1726C145.367 27.0993 145.367 27.0993 145.288 27.0936C145.207 27.088 145.207 27.088 145.201 27.0071C145.196 26.9281 145.196 26.9281 145.122 26.9281C145.049 26.9281 145.049 26.9281 145.043 26.8472C145.038 26.7682 145.038 26.7682 144.959 26.7626C144.878 26.7569 144.878 26.7569 144.878 26.6836C144.878 26.6102 144.878 26.6102 144.799 26.6046C144.718 26.5989 144.718 26.5989 144.712 26.518C144.707 26.439 144.707 26.439 144.633 26.439C144.56 26.439 144.56 26.439 144.554 26.3582C144.549 26.2792 144.549 26.2792 144.47 26.2735C144.389 26.2679 144.389 26.2679 144.389 26.1945C144.389 26.1212 144.389 26.1212 144.31 26.1155C144.229 26.1099 144.229 26.1099 144.223 26.029C144.218 25.95 144.218 25.95 144.142 25.95H144.069V25.7901V25.6302H143.984H143.9V25.5456V25.461H143.815H143.731V25.3763V25.2917H143.655H143.58V25.2164V25.1412H143.495H143.411V25.0565V24.9719H143.326H143.242V24.8873V24.8026H143.166H143.091V24.7274V24.6521H143.006H142.922V24.5675V24.4829H142.837H142.752V24.3982V24.3136H142.677H142.602V24.2383V24.1631H142.517H142.433V23.9938V23.8245H142.517H142.602V23.6647V23.5048H142.677H142.752V23.4201V23.3355H142.837H142.922V23.2508V23.1662H143.006H143.091V23.091V23.0157H143.166H143.242V22.9311V22.8464H143.326H143.411V22.7618V22.6772H143.495H143.58V22.5173V22.3574H143.653C143.729 22.3574 143.729 22.3574 143.734 22.2765C143.74 22.1975 143.74 22.1975 143.821 22.1919C143.9 22.1862 143.9 22.1862 143.9 22.1129C143.9 22.0395 143.9 22.0395 143.981 22.0339L144.06 22.0282L144.065 21.8627L144.071 21.6991H144.144C144.22 21.6991 144.22 21.6991 144.22 21.6238V21.5486H144.304H144.389V21.4639V21.3793H144.474H144.558V21.2194V21.0595H144.633H144.709V20.9749V20.8903H144.793H144.878V20.7323V20.5724L144.959 20.5667C145.038 20.5611 145.038 20.5611 145.043 20.4802C145.049 20.4012 145.049 20.4012 145.124 20.4012H145.198V20.2413V20.0815H145.282H145.367V19.9122V19.7429H145.452H145.536V19.6676C145.536 19.5924 145.536 19.5924 145.612 19.5924H145.685L145.691 19.4269L145.696 19.2632L145.777 19.2576L145.856 19.252V19.0921V18.9341H145.941H146.025V18.7742V18.6143H146.101H146.174L146.18 18.4488L146.185 18.2852L146.266 18.2795L146.345 18.2739V18.114V17.956H146.43H146.514V17.7115V17.4669H146.59H146.665V17.2224V16.9779H146.749H146.834V16.7334V16.4889H146.919H147.003V16.1597V15.8305H147.079H147.154L147.158 15.3452L147.163 14.8618L147.244 14.8562L147.323 14.8506V13.8819V12.9151H147.239H147.154V12.426V11.937H147.079H147.003V11.6925V11.4479H146.919H146.834V11.2034V10.9589H146.749H146.665V10.799V10.6391H146.59H146.516L146.511 10.4736L146.505 10.31L146.426 10.3043L146.345 10.2987V10.1388V9.9808H146.26H146.176V9.82092V9.66104H146.101H146.025V9.57639V9.49175H145.941H145.856V9.33375V9.17387L145.777 9.16823C145.696 9.16259 145.696 9.16259 145.691 9.08171C145.685 9.00271 145.685 9.00271 145.612 9.00271C145.538 9.00271 145.538 9.00271 145.533 8.92183C145.527 8.84283 145.527 8.84283 145.448 8.83719C145.367 8.83154 145.367 8.83154 145.367 8.7563V8.68295H145.282H145.198V8.51366V8.34438H145.122H145.047V8.26914V8.1939H144.963H144.878V8.10926V8.02462H144.793H144.709V7.93997V7.85533H144.633H144.558V7.7801V7.70486H144.474H144.389V7.62022V7.53557H144.231H144.071L144.065 7.45469C144.06 7.37569 144.06 7.37569 143.981 7.37005C143.9 7.36441 143.9 7.36441 143.9 7.29105C143.9 7.21769 143.9 7.21769 143.821 7.21205C143.74 7.20641 143.74 7.20641 143.734 7.12553C143.729 7.04653 143.729 7.04653 143.655 7.04653C143.582 7.04653 143.582 7.04653 143.576 6.96565L143.571 6.88665L143.407 6.881L143.242 6.87536V6.80201C143.242 6.72677 143.242 6.72677 143.166 6.72677H143.091V6.64212V6.55748H143.006H142.922V6.47284V6.3882H142.762H142.602V6.31296V6.23772H142.517H142.433V6.15308V6.06844H142.275H142.115L142.109 5.98756L142.104 5.90856L141.94 5.90292L141.774 5.89727V5.82391C141.774 5.74868 141.774 5.74868 141.699 5.74868H141.624V5.66404V5.57939H141.455H141.285V5.49475V5.41011H141.125H140.966V5.33487V5.25963H140.806H140.646V5.17499V5.09035H140.477H140.307V5.0057V4.92106H140.147H139.987V4.84583V4.77059H139.828H139.668V4.68594V4.6013H139.498H139.329V4.51666V4.43202H139.085H138.84V4.35678V4.28154H138.68H138.52V4.1969V4.11226H138.276H138.031V4.02762V3.94297H137.871H137.712V3.86773V3.7925H137.467H137.223V3.70785V3.62321H136.98H136.735L136.73 3.54233L136.724 3.46333L136.485 3.45769L136.244 3.45205V3.37869V3.30345H136H135.755V3.21881V3.13417H135.513H135.268L135.263 3.05329L135.257 2.97429L134.933 2.96865L134.608 2.96488V2.88964V2.81441L134.284 2.81065L133.959 2.805L133.953 2.72412L133.948 2.64512H133.703H133.461V2.56048V2.47584H133.141H132.821V2.4006V2.32536H132.492H132.163V2.24072V2.15608H131.758H131.354V2.07144V1.98679H130.95H130.545V1.91156V1.83632H130.131H129.718V1.75167V1.66703H129.313H128.909V1.58239V1.49775H128.504H128.1V1.42251V1.34727H127.526H126.953V1.26263V1.17799H126.464H125.974V1.09335V1.0087H125.655H125.335V1.09335Z" fill="#C03434"/>
<path d="M122.556 10.4043H130.004L154.043 36.6858H146.143L122.556 10.4043Z" fill="#363E7B"/>
<path d="M137.881 1.33832V1.4982H138.125H138.37V1.58284V1.66749H138.614H138.859V1.74272V1.81608L139.1 1.82172L139.339 1.82737L139.344 1.90637L139.35 1.98725H139.51H139.668V2.07189V2.15653H139.828H139.988V2.23177V2.30701H140.232H140.477V2.39165V2.47629H140.646H140.815V2.56093V2.64558H140.975H141.135V2.72081V2.79605H141.295H141.455V2.88069V2.96534H141.624H141.793V3.04998V3.13462H141.953H142.113V3.20986V3.2851H142.273H142.433V3.36974V3.45438H142.602H142.771V3.53902V3.62367H142.931H143.091V3.6989V3.77414H143.251H143.411V3.85878V3.94343H143.58H143.749V4.02807V4.11271H143.825C143.9 4.11271 143.9 4.11271 143.9 4.18795V4.2613L144.065 4.26695L144.229 4.27259L144.235 4.35159C144.24 4.43247 144.24 4.43247 144.316 4.43247H144.389V4.51711V4.60176H144.558H144.727V4.67699V4.75223H144.803H144.878V4.83687V4.92152H145.047H145.217V5.00616V5.0908H145.292C145.367 5.0908 145.367 5.0908 145.367 5.16604V5.23939L145.533 5.24504L145.696 5.25068L145.702 5.32968C145.707 5.41056 145.707 5.41056 145.783 5.41056H145.856V5.4952V5.57985H145.941H146.025V5.6532C146.025 5.72844 146.025 5.72844 146.106 5.73408C146.185 5.73973 146.185 5.73973 146.191 5.81872L146.197 5.89961H146.356H146.514V5.98425V6.06889H146.599H146.684V6.14413V6.21937H146.759H146.834V6.30401V6.38865H146.919H147.003V6.47329V6.55794H147.088H147.173V6.63317V6.70841H147.248H147.323V6.79305V6.8777H147.408H147.492V6.96234V7.04698H147.577H147.662V7.12222V7.19746H147.737H147.812V7.36674V7.53602H147.897H147.982V7.60938C147.982 7.68462 147.982 7.68462 148.062 7.69026C148.141 7.69591 148.141 7.69591 148.147 7.7749C148.153 7.85579 148.153 7.85579 148.228 7.85579H148.301V8.01567V8.17555H148.386H148.471V8.34483V8.51411H148.555H148.64V8.58935V8.66459H148.715H148.79V8.90911V9.15364H148.875H148.96V9.32292V9.4922H149.044H149.129V9.89661V10.301H149.204H149.279V11.9374V13.5738H149.204H149.129L149.125 13.9726L149.119 14.3732L149.04 14.3789L148.96 14.3845V14.7889V15.1915H148.875H148.79V15.5206V15.8498H148.715H148.642L148.636 16.0887L148.63 16.3294L148.551 16.3351L148.471 16.3407V16.5852V16.8279H148.386H148.301V17.0724V17.3169H148.226H148.151V17.4768V17.6367H148.066H147.982V17.8812V18.1257H147.897H147.812V18.2856V18.4455H147.737H147.662V18.69V18.9345H147.577H147.492V19.1038V19.2731H147.408H147.323V19.433V19.5929H147.248H147.173V19.7527V19.9126H147.088H147.003V20.0819V20.2512H146.919H146.834V20.4111V20.571H146.759H146.684V20.7308V20.8907H146.599H146.514V21.06V21.2293H146.43H146.345V21.3892V21.549H146.272C146.197 21.549 146.197 21.549 146.191 21.628C146.185 21.7089 146.185 21.7089 146.106 21.7146L146.025 21.7202V21.8801V22.0381H145.941H145.856V22.198V22.3578H145.781H145.706V22.4425V22.5271H145.621H145.536V22.687V22.8469H145.452H145.367V23.0162V23.1855H145.292H145.217V23.2607V23.3359H145.132H145.047V23.5052V23.6745H144.963H144.878V23.7497C144.878 23.825 144.878 23.825 144.803 23.825H144.729L144.724 23.9886L144.718 24.1541L144.639 24.1598C144.558 24.1654 144.558 24.1654 144.558 24.2407V24.314H144.474H144.389V24.4739V24.6338H144.549H144.709V24.5586V24.4833H144.793H144.878V24.3987V24.314H144.963H145.047V24.2294V24.1447H145.122H145.198V24.0695V23.9943H145.282H145.367V23.9096V23.825H145.452H145.536V23.7403V23.6557H145.612H145.687V23.5805V23.5052H145.771H145.856V23.4206V23.3359H145.941H146.025V23.2513V23.1667H146.101H146.176V23.0914V23.0162H146.26H146.345V22.9315V22.8469H146.43H146.514V22.7623V22.6776H146.59H146.665V22.5177V22.3578H146.75H146.834V22.2732V22.1886H146.919H147.003V22.1133V22.0381H147.079H147.154V21.9534V21.8688H147.239H147.323V21.7842V21.6995H147.408H147.492V21.6243V21.549H147.568H147.643V21.3798V21.2105H147.728H147.812V21.1371C147.812 21.0619 147.812 21.0619 147.893 21.0562C147.972 21.0506 147.972 21.0506 147.978 20.9697C147.983 20.8907 147.983 20.8907 148.059 20.8907H148.132V20.7308V20.571H148.217H148.301V20.4863V20.4017H148.375C148.45 20.4017 148.45 20.4017 148.456 20.3208C148.461 20.2418 148.461 20.2418 148.542 20.2361L148.621 20.2305V20.0706V19.9126H148.706H148.79V19.828V19.7433H148.866H148.941V19.6681V19.5929H149.025H149.108L149.114 19.4273L149.119 19.2637L149.2 19.2581C149.279 19.2524 149.279 19.2524 149.279 19.1772C149.279 19.1038 149.279 19.1038 149.355 19.1038H149.428L149.434 18.9383L149.439 18.7747L149.52 18.769C149.599 18.7634 149.599 18.7634 149.599 18.6881V18.6148H149.684H149.768V18.4455V18.2762H149.844H149.917L149.923 18.1201L149.928 17.9658L150.007 17.9602C150.086 17.9546 150.086 17.9546 150.092 17.8756C150.098 17.7966 150.098 17.7966 150.178 17.7909L150.257 17.7853V17.6254V17.4674H150.333H150.408V17.3075V17.1476H150.493H150.577V16.9784V16.8091H150.662H150.747V16.6492V16.4893H150.822H150.897V16.3294V16.1695H150.982H151.066V16.0003V15.831H151.151H151.236V15.6711V15.5112H151.311H151.386V15.3513V15.1915H151.471H151.555V15.0222V14.8529H151.64H151.725V14.6084V14.3638H151.8H151.873L151.879 14.1231L151.884 13.8842L151.965 13.8786L152.044 13.8729V13.6284V13.3858H152.129H152.214V13.066V12.7462H152.289H152.364V12.3418V11.9374H152.449H152.533V10.4703V9.00316H152.449H152.364V8.67399V8.34483H152.289H152.214V8.10031V7.85579H152.129H152.044V7.61126V7.36674H151.96H151.875V7.20686V7.04698H151.8H151.725V6.96234V6.8777H151.64H151.555V6.71782V6.55794H151.471H151.386V6.39805V6.23817H151.311H151.236V6.15353V6.06889H151.151H151.066V5.98425V5.89961H150.982H150.897V5.82437V5.74913H150.822H150.747V5.66449V5.57985H150.662H150.577V5.4952V5.41056H150.493H150.408V5.33532V5.26008H150.333H150.257V5.17544V5.0908H150.173H150.088V5.00616V4.92152H150.004H149.919V4.84628V4.77104H149.844H149.768V4.6864V4.60176H149.599H149.43V4.51711V4.43247H149.355H149.279V4.35723V4.282H149.195H149.11V4.19735V4.11271H148.95H148.79V4.02807V3.94343H148.621H148.452V3.86819V3.79295H148.292H148.132V3.70831V3.62367H148.059C147.983 3.62367 147.983 3.62367 147.978 3.54278L147.972 3.46379L147.733 3.45814L147.492 3.4525V3.37914V3.30391H147.323H147.154V3.21926V3.13462H146.994H146.834V3.04998V2.96534H146.59H146.345V2.8901V2.81486H146.185H146.025V2.73022V2.64558H145.783H145.538L145.533 2.56469L145.527 2.4857L145.203 2.48005L144.878 2.47629V2.40105V2.32582H144.633H144.389V2.24117V2.15653H144.06H143.731V2.07189V1.98725H143.326H142.922V1.91201V1.83677H142.517H142.113V1.75213V1.66749H141.626H141.137L141.131 1.5866L141.125 1.50761L140.473 1.50196L139.818 1.4982V1.42296V1.34773H139.009H138.201V1.26308V1.17844H138.041H137.881V1.33832Z" fill="#C03434"/>
<path d="M0.985352 23.5051V36.54H14.4247H27.864V34.0196V31.4991L17.6844 31.4954L7.50282 31.4897L7.49717 20.979L7.49341 10.4702H4.23938H0.985352V23.5051Z" fill="#363E7B"/>
<path d="M80.188 10.5491L80.1824 10.63L79.2946 10.6356L78.4049 10.6394V10.7146V10.7899H77.9911H77.5773V10.8745V10.9591H77.3327H77.0882V11.0438V11.1284H76.8437H76.5992V11.2037V11.2789H76.4393H76.2794V11.3635V11.4482H76.1948H76.1101V11.5328V11.6175H75.9503H75.7904V11.6927V11.7679H75.7057H75.6211V11.8526V11.9372H75.5477C75.4725 11.9372 75.4725 11.9372 75.4669 12.0162C75.4612 12.0971 75.4612 12.0971 75.3822 12.1028C75.3013 12.1084 75.3013 12.1084 75.3013 12.1836V12.257H75.2167H75.132V12.4263V12.5956H75.0568H74.9835L74.9778 12.7498L74.9722 12.9059L74.8932 12.9116L74.8123 12.9172V13.0771V13.2351H74.7276H74.643V13.5642V13.8934H74.5678H74.4925V14.2978V14.7022H74.4079H74.3232V23.5784V32.4564L74.4041 32.4621L74.4831 32.4677L74.4888 32.8665L74.4925 33.2671H74.5678H74.643V33.5963V33.9254H74.7276H74.8123V34.0834V34.2433L74.8932 34.249L74.9722 34.2546L74.9778 34.4183L74.9835 34.5838H75.0568H75.132V34.7437V34.9035H75.2167H75.3013V34.9882V35.0728H75.386H75.4706V35.1481V35.2233H75.5459H75.6211V35.3079V35.3926H75.7057H75.7904V35.4772V35.5619H75.9503H76.1101V35.6352C76.1101 35.7105 76.1101 35.7105 76.191 35.7161C76.27 35.7217 76.27 35.7217 76.2757 35.8007L76.2813 35.8816H76.4412H76.5992V35.9663V36.0509H76.8437H77.0882V36.1261V36.2014H77.3327H77.5773V36.286V36.3707L77.9873 36.3744L78.3955 36.3801L78.4011 36.4591L78.4068 36.54H79.3002H80.1918V36.6152V36.6904H90.4523H100.713V36.6152V36.54H101.606H102.5V36.4553V36.3707H102.914H103.327V36.286V36.2014H103.572H103.816V36.1261V36.0509H104.061H104.305V35.9663V35.8816H104.463H104.623L104.629 35.8007L104.635 35.7217L104.791 35.7161L104.945 35.7105V35.6371V35.5619H105.03H105.114V35.4772V35.3926H105.199H105.284V35.3079V35.2233H105.359H105.434V35.1481V35.0728H105.519H105.603V34.9882V34.9035H105.688H105.773V34.7437V34.5838H105.848H105.921L105.927 34.4183L105.932 34.2546L106.013 34.249L106.092 34.2433V34.0834V33.9254H106.177H106.262V33.6809V33.4364H106.337H106.412L106.416 33.111L106.422 32.7875L106.502 32.7818L106.581 32.7762V31.9674V31.1605H106.666H106.751L106.747 26.2738L106.741 21.389L98.3579 21.3833L89.9727 21.3796V23.7401V26.1007H95.1829H100.393L100.389 28.7942L100.384 31.4896H90.5276H80.6714V23.505V15.5204L90.5332 15.5148L100.393 15.511V16.8935V18.276H100.553H100.713V18.2008V18.1255H101.202H101.691V18.0409V17.9562H102.178H102.667L102.673 17.8754L102.678 17.7964L103.164 17.7907L103.647 17.787V17.7117V17.6365H104.052H104.456V17.5518V17.4672H104.943H105.432L105.438 17.3863L105.443 17.3073L105.929 17.3017L106.412 17.2979V17.2227V17.1474H106.581H106.751V16.4139V15.6803H106.666H106.581V14.9467V14.2132H106.497H106.412V13.8934V13.5737H106.337H106.262V13.331V13.0865L106.183 13.0808L106.102 13.0752L106.096 12.9097L106.09 12.746H106.008H105.923V12.6708V12.5956H105.848H105.773V12.4263V12.257H105.688H105.603V12.1836C105.603 12.1084 105.603 12.1084 105.524 12.1028C105.443 12.0971 105.443 12.0971 105.438 12.0162C105.432 11.9372 105.432 11.9372 105.357 11.9372H105.284V11.8526V11.7679H105.199H105.114V11.6946C105.114 11.6194 105.114 11.6194 105.035 11.6137C104.954 11.6081 104.954 11.6081 104.949 11.5272L104.943 11.4482H104.783H104.625V11.3635V11.2789H104.465H104.305V11.2037V11.1284H104.061H103.816V11.0438V10.9591H103.572H103.327V10.8745V10.7899H102.914H102.5V10.7146V10.6394L101.612 10.6356L100.722 10.63L100.717 10.5491L100.711 10.4701H90.4523H80.1937L80.188 10.5491Z" fill="#363E7B"/>
<path d="M112.789 23.5051V36.54H115.958H119.128V23.5051V10.4702H115.958H112.789V23.5051Z" fill="#363E7B"/>
<path d="M172.754 10.63V10.7899H172.669H172.584V10.8745V10.9591H172.5H172.415V11.119V11.2789H172.34H172.266L172.261 11.4425L172.255 11.6081L172.176 11.6137C172.095 11.6194 172.095 11.6194 172.095 11.6946V11.7679H172.011H171.926V11.9372V12.1065H171.851H171.775V12.2664V12.4263H171.693H171.608L171.602 12.5053C171.597 12.5862 171.597 12.5862 171.518 12.5918L171.437 12.5974V12.7573V12.9153H171.362H171.286V13.0752V13.2351H171.202H171.117V13.3197V13.4044H171.032H170.948V13.5642V13.7241H170.873H170.799L170.794 13.8878L170.788 14.0533L170.709 14.0589L170.628 14.0646V14.2245V14.3825H170.543H170.459V14.4671V14.5517H170.384H170.308V14.7116V14.8715H170.224H170.139V15.0314V15.1913H170.054H169.97V15.2759V15.3605H169.894H169.819V15.5204V15.6803H169.735H169.65V15.8383V15.9982L169.571 16.0038C169.49 16.0095 169.49 16.0095 169.484 16.0885C169.479 16.1694 169.479 16.1694 169.404 16.1694H169.33V16.3292V16.4891H169.246H169.161V16.6584V16.8277H169.076H168.992V16.9029V16.9782H168.916H168.841V17.1474V17.3167H168.757H168.672V17.4766V17.6365H168.587H168.503V17.7211V17.8058H168.427H168.352V17.9657V18.1255H168.267H168.183V18.2854V18.4453H168.109C168.034 18.4453 168.034 18.4453 168.029 18.5243C168.023 18.6052 168.023 18.6052 167.944 18.6108L167.863 18.6165V18.7763V18.9343H167.778H167.694V19.1036V19.2729H167.619H167.545L167.54 19.4271L167.534 19.5833L167.455 19.5889L167.374 19.5945V19.6792V19.762H167.289H167.205V19.9218V20.0817H167.129H167.054V20.2416V20.4015H166.97H166.885V20.4861V20.5708H166.8H166.716V20.7306V20.8905H166.64H166.567L166.561 21.0542L166.556 21.2197L166.477 21.2253C166.396 21.231 166.396 21.231 166.396 21.3062V21.3796H166.311H166.227V21.5488V21.7181H166.151H166.078L166.072 21.8724L166.067 22.0285L165.988 22.0341C165.909 22.0398 165.909 22.0398 165.903 22.1188C165.897 22.1978 165.897 22.1978 165.818 22.2034L165.738 22.2091V22.3689V22.5269H165.662H165.587V22.6868V22.8467H165.502H165.418V22.9313V23.016H165.333H165.249V23.1759V23.3357H165.173H165.1L165.094 23.4994L165.089 23.6649L165.01 23.6705L164.929 23.6762V23.8361V23.9941H164.844H164.76V24.0787V24.1634H164.684H164.611L164.605 24.3176L164.6 24.4737L164.521 24.4794L164.44 24.485V24.6449V24.8029H164.355H164.27V24.8875V24.9722H164.195H164.12V25.132V25.2919H164.035H163.951V25.4612V25.6305H163.866H163.781V25.7057C163.781 25.781 163.781 25.781 163.706 25.781H163.633L163.627 25.9446L163.622 26.1101L163.543 26.1158L163.462 26.1214V26.2813V26.4393H163.377H163.292V26.5239V26.6086H163.217H163.144L163.138 26.7628L163.132 26.9189L163.053 26.9246L162.973 26.9302V27.0901V27.2481H162.888H162.803V27.3327V27.4174H162.728H162.653V27.5773V27.7371H162.568H162.485L162.48 27.9008L162.474 28.0663L162.395 28.072C162.314 28.0776 162.314 28.0776 162.314 28.1528C162.314 28.2262 162.314 28.2262 162.239 28.2262H162.166L162.16 28.3898L162.154 28.5554L162.075 28.561L161.995 28.5666V28.7265V28.8845H161.91H161.825V29.0444V29.2043H161.752C161.677 29.2043 161.677 29.2043 161.671 29.2833C161.665 29.3642 161.665 29.3642 161.586 29.3698L161.505 29.3754V29.5353V29.6933H161.421H161.336V29.8626V30.0319H161.261H161.186V30.1071V30.1824H161.101H161.018L161.013 30.346L161.007 30.5115L160.928 30.5172L160.847 30.5228V30.6827V30.8407H160.774C160.699 30.8407 160.699 30.8407 160.693 30.9197C160.687 31.0006 160.687 31.0006 160.608 31.0062L160.527 31.0119V31.1717V31.3297H160.443H160.358V31.4896V31.6495H160.285C160.21 31.6495 160.21 31.6495 160.204 31.7285C160.198 31.8094 160.198 31.8094 160.119 31.815L160.038 31.8207V31.9806V32.1385H159.954H159.869V32.3078V32.4771H159.794H159.719V32.5524V32.6276H159.634H159.551L159.546 32.7912L159.54 32.9568L159.461 32.9624L159.38 32.968V33.1279V33.2859H159.305H159.23V33.3612V33.4364H159.145H159.06V33.6057V33.775H158.976H158.891V33.9348V34.0947H158.816H158.74V34.2546V34.4145H158.656H158.571V34.4991V34.5838H158.487H158.402V34.7437V34.9035H158.327H158.253L158.248 35.0672L158.242 35.2327L158.163 35.2383C158.082 35.244 158.082 35.244 158.082 35.3173C158.082 35.3907 158.082 35.3907 158.003 35.3963L157.922 35.402L157.917 35.5656L157.911 35.7311H157.838H157.762V35.891V36.0509H157.678H157.593V36.1356V36.2202H157.508H157.424V36.4553V36.6904H160.603H163.781V36.6152V36.54H163.866H163.951V36.4553V36.3707H164.026H164.101V36.2108V36.0509H164.186H164.27V35.8816V35.7123H164.355H164.44V35.5525V35.3926H164.513C164.588 35.3926 164.588 35.3926 164.594 35.3117C164.6 35.2327 164.6 35.2327 164.681 35.2271L164.76 35.2214V35.0615V34.9035H164.844H164.929V34.7437V34.5838H165.004H165.079V34.4991V34.4145H165.164H165.249V34.2546V34.0947H165.333H165.418V33.9254V33.7562H165.493H165.568V33.5963V33.4364H165.653H165.738V33.3518V33.2671H165.813H165.886L165.892 33.111L165.897 32.9568L165.978 32.9511L166.057 32.9455V32.7856V32.6276H166.142H166.227V32.4583V32.289H166.302H166.377V32.2138V32.1385H166.462H166.545L166.55 31.973L166.556 31.8094L166.637 31.8037L166.716 31.7981V31.6382V31.4802H166.791H166.866V31.3203V31.1605H166.951H167.035V31.0758V30.9912H175.594H184.152V31.0758V31.1605H184.237H184.321V31.2338C184.321 31.3091 184.321 31.3091 184.402 31.3147L184.481 31.3203L184.487 31.484L184.492 31.6495H184.566H184.641V31.8094V31.9693H184.726H184.81V32.1273V32.2871L184.891 32.2928C184.97 32.2984 184.97 32.2984 184.976 32.3774C184.982 32.4583 184.982 32.4583 185.057 32.4583H185.13V32.6163V32.7762L185.211 32.7818L185.29 32.7875L185.296 32.9511L185.301 33.1166H185.384H185.469V33.2765V33.4364H185.544H185.619V33.521V33.6057H185.704H185.788V33.7656V33.9254H185.864H185.939V34.0853V34.2452H186.024H186.108V34.4145V34.5838H186.193H186.277V34.659V34.7342H186.353H186.428V34.9035V35.0728H186.513H186.597V35.2327V35.3926H186.682H186.767V35.5525V35.7123H186.842H186.917V35.797V35.8816H187.002H187.086V36.0396V36.1995L187.167 36.2051L187.246 36.2108L187.252 36.3744L187.257 36.54H187.331C187.406 36.54 187.406 36.54 187.406 36.6152V36.6904H190.989H194.572V36.4553V36.2202H194.497H194.422V36.0509V35.8816H194.337H194.253V35.8083C194.253 35.733 194.253 35.733 194.174 35.7274L194.093 35.7217L194.087 35.5562L194.082 35.3926H194.008H193.933V35.2327V35.0728H193.848H193.764V34.9882V34.9035H193.679H193.594V34.7437V34.5838H193.519H193.444V34.4239V34.264H193.359H193.275V34.1794V34.0947H193.19H193.105V33.9348V33.775H193.03H192.955V33.6057V33.4364H192.87H192.786V33.363C192.786 33.2878 192.786 33.2878 192.707 33.2822L192.626 33.2765L192.62 33.1204L192.614 32.9662H192.541H192.466V32.7969V32.6276H192.381H192.296V32.5542C192.296 32.479 192.296 32.479 192.217 32.4734L192.137 32.4677L192.131 32.3022L192.125 32.1385H192.052H191.977V31.9787V31.8188H191.892H191.807V31.7341V31.6495H191.723H191.638V31.4896V31.3297H191.563H191.488V31.2451V31.1605H191.403H191.318V31.0006V30.8407H191.234H191.149V30.6808V30.5209H191.074H190.999V30.4363V30.3517H190.914H190.829V30.1937V30.0338L190.75 30.0281L190.669 30.0225L190.664 29.857L190.658 29.6933H190.585C190.51 29.6933 190.51 29.6933 190.51 29.62C190.51 29.5447 190.51 29.5447 190.431 29.5391L190.35 29.5334L190.344 29.3679L190.338 29.2043H190.256H190.171V29.0444V28.8845H190.096H190.021V28.7999V28.7152H189.936H189.851V28.5572V28.3974L189.772 28.3917L189.691 28.3861L189.686 28.23L189.68 28.0757H189.607H189.532V27.9911V27.9064H189.447H189.362V27.7484V27.5886L189.283 27.5829L189.202 27.5773L189.197 27.4117L189.191 27.2481H189.118C189.042 27.2481 189.042 27.2481 189.042 27.1747C189.042 27.0995 189.042 27.0995 188.963 27.0939L188.883 27.0882L188.877 26.9227L188.871 26.7591H188.789H188.704V26.5992V26.4393H188.629H188.553V26.3547V26.27H188.469H188.384V26.112V25.9521L188.305 25.9465L188.224 25.9408L188.219 25.7847L188.213 25.6305H188.14H188.064V25.5458V25.4612H187.98H187.895V25.3032V25.1433L187.816 25.1377L187.735 25.132L187.73 24.9665L187.724 24.8029H187.651C187.575 24.8029 187.575 24.8029 187.575 24.7276V24.6524H187.491H187.406V24.4831V24.3138H187.321H187.237V24.154V23.9941H187.162H187.086V23.9094V23.8248H187.002H186.917V23.6668V23.5069L186.838 23.5013L186.757 23.4956L186.751 23.3395L186.746 23.1853H186.672H186.597V23.1006V23.016H186.513H186.428V22.858V22.6981L186.349 22.6925L186.268 22.6868L186.262 22.5213L186.257 22.3577H186.183C186.108 22.3577 186.108 22.3577 186.108 22.2824V22.2072H186.024H185.939V22.0379V21.8686H185.854H185.77V21.7087V21.5488H185.694H185.619V21.4642V21.3796H185.535H185.45V21.2216V21.0617L185.371 21.056L185.29 21.0504L185.284 20.8943L185.279 20.74H185.205H185.13V20.6554V20.5708H185.045H184.961V20.4128V20.2529L184.882 20.2472L184.801 20.2416L184.795 20.0761L184.79 19.9124H184.716C184.641 19.9124 184.641 19.9124 184.641 19.8372V19.762H184.556H184.472V19.5927V19.4234H184.387H184.302V19.3481V19.2729H184.227H184.152V19.1036V18.9343H184.067H183.983V18.7763V18.6165L183.904 18.6108C183.823 18.6052 183.823 18.6052 183.817 18.5243C183.812 18.4453 183.812 18.4453 183.736 18.4453H183.663V18.2854V18.1255H183.578H183.494V17.9657V17.8058H183.418H183.343V17.7211V17.6365H183.259H183.174V17.4766V17.3167H183.089H183.005V17.1474V16.9782H182.929H182.854V16.9029V16.8277H182.77H182.685V16.6584V16.4891H182.6H182.516V16.3292V16.1694H182.442C182.367 16.1694 182.367 16.1694 182.361 16.0885C182.356 16.0095 182.356 16.0095 182.277 16.0038L182.196 15.9982V15.8383V15.6803H182.111H182.027V15.5204V15.3605H181.951H181.876V15.2759V15.1913H181.791H181.707V15.0314V14.8715H181.622H181.538V14.7116V14.5517H181.462H181.387V14.4671V14.3825H181.302H181.218V14.2245V14.0646L181.139 14.0589L181.058 14.0533L181.052 13.8878L181.047 13.7241H180.973C180.898 13.7241 180.898 13.7241 180.898 13.6508C180.898 13.5755 180.898 13.5755 180.819 13.5699L180.738 13.5642L180.732 13.3987L180.727 13.2351H180.644H180.559V13.0752V12.9153H180.484H180.409V12.8307V12.746H180.324H180.24V12.5862V12.4263H180.155H180.07V12.2664V12.1065H179.995H179.92V12.0219V11.9372H179.835H179.751V11.7792V11.6194L179.672 11.6137L179.591 11.6081L179.585 11.4425L179.579 11.2789H179.506C179.431 11.2789 179.431 11.2789 179.431 11.2055C179.431 11.1303 179.431 11.1303 179.352 11.1247L179.271 11.119L179.265 10.9535L179.26 10.7899H179.177H179.092V10.63V10.4701H175.923H172.754V10.63ZM175.838 15.5957V15.6803H175.923H176.008V15.7537C176.008 15.8289 176.008 15.8289 176.088 15.8345L176.167 15.8402L176.173 16.0038L176.179 16.1694H176.252H176.327V16.3292V16.4891H176.412H176.497V16.6471V16.807L176.577 16.8126L176.656 16.8183L176.662 16.9819L176.668 17.1474H176.741C176.816 17.1474 176.816 17.1474 176.816 17.2208C176.816 17.296 176.816 17.296 176.897 17.3017L176.976 17.3073L176.982 17.471L176.988 17.6365H177.07H177.155V17.7964V17.9562H177.23H177.305V18.1142V18.2741L177.386 18.2798L177.465 18.2854L177.471 18.4491L177.477 18.6146H177.559H177.644V18.6898V18.7651H177.719H177.794V18.9343V19.1036H177.879H177.964V19.2635V19.4234H178.048H178.133V19.5833V19.7431H178.208H178.283V19.8278V19.9124H178.368H178.453V20.0704V20.2303L178.534 20.2359L178.613 20.2416L178.618 20.4052L178.624 20.5708H178.697H178.773V20.7306V20.8905H178.857H178.942V21.0485V21.2084L179.023 21.214C179.102 21.2197 179.102 21.2197 179.107 21.2987C179.113 21.3796 179.113 21.3796 179.188 21.3796H179.262V21.5394V21.6993H179.346H179.431V21.8686V22.0379H179.515H179.6V22.1978V22.3577H179.675H179.751V22.5175V22.6774H179.835H179.92V22.7602V22.8448L180.001 22.8505L180.08 22.8561L180.085 23.0103L180.091 23.1665H180.164H180.24V23.3357V23.505H180.324H180.409V23.663V23.8229L180.49 23.8285L180.569 23.8342L180.574 23.9884L180.58 24.1445H180.653H180.729V24.2292V24.3138H180.813H180.898V24.4718V24.6317L180.979 24.6374L181.058 24.643L181.064 24.8066L181.069 24.9722H181.143H181.218V25.132V25.2919H181.302H181.387V25.3766V25.4612H181.472H181.556V25.6211V25.781H181.632H181.707V25.8656V25.9503H175.923H170.139V25.781V25.6117H170.214H170.289V25.5364V25.4612H170.374H170.459V25.2919V25.1226H170.543H170.628V24.9628V24.8029H170.703H170.779V24.643V24.4831H170.863H170.948V24.3138V24.1445H171.032H171.117V23.9847V23.8248H171.19C171.266 23.8248 171.266 23.8248 171.271 23.7439C171.277 23.6649 171.277 23.6649 171.358 23.6593L171.437 23.6536V23.4937V23.3357H171.521H171.606V23.1759V23.016H171.681H171.755L171.76 22.8505L171.766 22.6868L171.847 22.6812L171.926 22.6755V22.5156V22.3577H172.011H172.095V22.1978V22.0379H172.17H172.244L172.249 21.8724L172.255 21.7087L172.336 21.7031C172.415 21.6974 172.415 21.6974 172.415 21.6222V21.5488H172.5H172.584V21.3796V21.2103H172.659H172.735V21.0504V20.8905H172.819H172.904V20.7306V20.5708H172.989H173.073V20.4015V20.2322H173.149H173.224V20.0723V19.9124H173.307H173.391L173.397 19.8315C173.402 19.7525 173.402 19.7525 173.483 19.7469L173.562 19.7413V19.5814V19.4234H173.638H173.713V19.2635V19.1036H173.797H173.88L173.886 18.9381L173.891 18.7745L173.972 18.7688L174.051 18.7632V18.6033V18.4453H174.127H174.202V18.2854V18.1255H174.286H174.369L174.375 17.96L174.381 17.7964L174.461 17.7907C174.54 17.7851 174.54 17.7851 174.54 17.7098C174.54 17.6365 174.54 17.6365 174.616 17.6365H174.689L174.695 17.471L174.7 17.3073L174.781 17.3017L174.86 17.296V17.1362V16.9782H174.945H175.029V16.8183V16.6584H175.105H175.178L175.184 16.4929L175.189 16.3292L175.27 16.3236L175.349 16.3179V16.1581V16.0001H175.434H175.518V15.8402V15.6803H175.594C175.669 15.6803 175.669 15.6803 175.669 15.6088C175.669 15.5185 175.676 15.511 175.767 15.511H175.838V15.5957Z" fill="#363E7B"/>
<path d="M200.29 23.5803V36.6904H213.729H227.169V34.17V31.6495H216.983H206.798V21.0598V10.4701H203.544H200.29V23.5803Z" fill="#363E7B"/>
<path d="M38.7925 10.7146V10.7899H38.3034H37.8144V10.8745V10.9591H37.4965H37.1767L37.1711 11.0381L37.1654 11.119L36.9266 11.1247L36.6858 11.1303V11.2037V11.2789H36.5165H36.3472V11.3635V11.4482H36.1892H36.0293L36.0237 11.5272L36.0181 11.6081L35.8638 11.6137L35.7077 11.6194V11.6927V11.7679H35.6231H35.5384V11.8526V11.9372H35.4538H35.3691V12.0219V12.1065H35.2939H35.2187V12.1818V12.257H35.134H35.0513L35.0456 12.4206L35.04 12.5862L34.961 12.5918L34.8801 12.5974V12.7573V12.9153H34.8049H34.7296V13.0752V13.2351H34.645H34.5603V13.4796V13.7241H34.4757H34.391V14.0533V14.3825H34.3158H34.2406V15.0314V15.6803H34.1559H34.0713V23.6649V31.6495H34.1559H34.2406V32.2984V32.9474H34.3158H34.391V33.2765V33.6057H34.4757H34.5603V33.8502V34.0947H34.645H34.7296V34.2546V34.4145H34.8049H34.8801V34.5725V34.7324L34.961 34.738L35.04 34.7437L35.0456 34.9073L35.0513 35.0728H35.134H35.2187V35.1481V35.2233H35.2939H35.3691V35.3079V35.3926H35.4538H35.5384V35.4772V35.5619H35.6231H35.7077V35.6371V35.7105L35.8638 35.7161L36.0181 35.7217L36.0237 35.8007L36.0293 35.8816H36.1892H36.3472V35.9663V36.0509H36.5165H36.6858V36.1261V36.1995L36.9266 36.2051L37.1654 36.2108L37.1711 36.2898L37.1767 36.3707H37.4965H37.8144V36.4553V36.54H38.3881H38.9617V36.6152V36.6904H50.9339H62.9061V36.6152V36.54H63.4798H64.0535V36.4553V36.3707H64.3714H64.6911L64.6968 36.2898L64.7024 36.2108L64.9432 36.2051L65.1821 36.1995V36.1261V36.0509H65.3514H65.5206V35.9663V35.8816H65.6786H65.8385L65.8442 35.8007L65.8498 35.7217L66.0059 35.7161L66.1602 35.7105V35.6371V35.5619H66.2448H66.3294V35.4772V35.3926H66.4141H66.4987V35.3079V35.2233H66.574H66.6492V35.1481V35.0728H66.7338H66.8185V34.9882V34.9035H66.9031H66.9878V34.7437V34.5838H67.063H67.1364L67.142 34.4183L67.1477 34.2546L67.2267 34.249L67.3057 34.2433L67.3113 34.0044L67.3169 33.7656L67.3978 33.7599L67.4768 33.7543V33.5098V33.2671H67.5521H67.6273L67.6311 32.7818L67.6367 32.2984L67.7176 32.2928L67.7966 32.2871V23.5803V14.8734L67.7176 14.8677L67.6367 14.8621L67.6311 14.4615L67.6273 14.0627H67.5521H67.4768V13.7335V13.4044H67.3922H67.3075V13.2464V13.0865L67.2285 13.0808L67.1477 13.0752L67.142 12.9097L67.1364 12.746H67.063H66.9878V12.5862V12.4263H66.9031H66.8185V12.3416V12.257H66.7338H66.6492V12.1818V12.1065H66.574H66.4987V12.0219V11.9372H66.4141H66.3294V11.8526V11.7679H66.2448H66.1602V11.6927V11.6175H66.0849H66.0097V11.5328V11.4501L65.846 11.4444L65.6805 11.4388L65.6749 11.3579L65.6692 11.2789H65.5094H65.3514V11.2037V11.1303L65.1125 11.1247L64.8717 11.119L64.8661 11.04L64.8604 10.9591L64.5369 10.9554L64.2134 10.9497L64.2077 10.8689L64.2021 10.7899H63.6378H63.0754V10.7146V10.6394H50.9339H38.7925V10.7146ZM61.2885 23.5803V31.6495H50.9339H40.5793V23.5803V15.511H50.9339H61.2885V23.5803Z" fill="#363E7B"/>
<path d="M0.666016 55.6128V60.334H1.71934H2.77267V58.5377V56.7414H5.79158H8.81049V56.6567V56.5721H9.13025H9.45001V56.4969V56.4216H9.6193H9.78858V56.337V56.2523H9.86194C9.93718 56.2523 9.93718 56.2523 9.94282 56.1715C9.94846 56.0925 9.94846 56.0925 10.0293 56.0868C10.1083 56.0812 10.1083 56.0812 10.1083 56.0059V55.9326H10.193H10.2776V55.6881V55.4435H10.3529H10.4281V53.8165V52.1895H10.3529H10.2776V51.945V51.7005H10.193H10.1083V51.5312V51.3619H10.0237H9.93906V51.2867V51.2114H9.86382H9.78858V51.1268V51.0421H9.54406H9.29954V50.9669V50.8917H4.98278H0.666016V55.6128ZM7.99793 52.7481L8.00357 52.829H8.08821H8.17097V52.9889V53.1488H8.24621H8.32145V53.8071V54.4654H8.24621H8.17097V54.6253V54.7852H8.00169H7.8324V54.8698V54.9545H5.30254H2.77267V53.8203C2.77267 53.1958 2.77831 52.6785 2.78584 52.6729C2.79148 52.6654 3.96707 52.6616 5.3947 52.6635L7.99228 52.6691L7.99793 52.7481Z" fill="#C03434"/>
<path d="M95.9922 55.6128V60.334H97.0455H98.0988V55.6128V50.8917H97.0455H95.9922V55.6128Z" fill="#C03434"/>
<path d="M121.423 55.6128V60.334H126.059H130.696V59.3559V58.3778H127.197H123.699V57.3151V56.2523H125.73H127.762V55.3589V54.4654H125.73H123.699V53.4874V52.5093H127.197H130.696V51.7005V50.8917H126.059H121.423V55.6128Z" fill="#C03434"/>
<path d="M14.6794 52.6673V52.8271L14.6004 52.8328C14.5195 52.8384 14.5195 52.8384 14.5139 52.9174C14.5082 52.9983 14.5082 52.9983 14.433 52.9983H14.3596V53.1582V53.3181H14.275H14.1903V53.4874V53.6566H14.1057H14.0211V53.8165V53.9764H13.9458H13.8706V54.1363V54.2962H13.7859H13.7013V54.3808V54.4654H13.6167H13.532V54.6253V54.7852H13.4568H13.3815V54.9545V55.1238H13.2969H13.2123V55.2837V55.4435H13.1276H13.043V55.5282V55.6128H12.9677H12.8925V55.7727V55.9326H12.8078H12.7232V56.0906V56.2505L12.6442 56.2561L12.5633 56.2617L12.5577 56.4254L12.552 56.5909H12.4787C12.4034 56.5909 12.4034 56.5909 12.4034 56.6661V56.7414H12.3188H12.2342V56.9107V57.08H12.1495H12.0649V57.2398V57.3997H11.9896H11.9144V57.5596V57.7195H11.8298H11.7451V57.8888V58.058H11.6605H11.5758V58.1333V58.2085H11.5006H11.4254V58.3778V58.5471H11.3407H11.2561V58.707V58.8668H11.1714H11.0868V59.0267V59.1866H11.0115H10.9363V59.2713V59.3559H10.8517H10.767V59.5139V59.6738L10.688 59.6794L10.6071 59.6851L10.6015 59.8487L10.5959 60.0142H10.5225H10.4473V60.1741V60.334H11.416H12.3828L12.3884 60.1685L12.394 60.0048L12.4749 59.9992C12.5539 59.9935 12.5539 59.9935 12.5539 59.9202C12.5539 59.8468 12.5539 59.8468 12.6348 59.8412L12.7138 59.8355L12.7194 59.67L12.7251 59.5064H12.7984H12.8737V59.3465V59.1866H12.9583H13.043V59.0267V58.8668H13.1276H13.2123V58.7822V58.6976H15.5728H17.9334V58.7822V58.8668H18.0181H18.1027V58.9402C18.1027 59.0154 18.1027 59.0154 18.1836 59.0211L18.2626 59.0267L18.2682 59.1904L18.2739 59.3559H18.3472H18.4225V59.5158V59.6757H18.5071H18.5917V59.8337V59.9935L18.6726 59.9992L18.7516 60.0048L18.7573 60.1703L18.7629 60.334L19.8952 60.3302L21.0276 60.3246V60.2493C21.0276 60.1741 21.0276 60.1741 20.9486 60.1685L20.8677 60.1628V60.0029V59.8449H20.783H20.6984V59.6851V59.5252H20.6232H20.5498L20.5442 59.3597L20.5385 59.196L20.4595 59.1904C20.3786 59.1847 20.3786 59.1847 20.3786 59.1095V59.0361H20.294H20.2094V58.8668V58.6976H20.1341H20.0589V58.5377V58.3778H19.9742H19.8896V58.2198V58.0599L19.8106 58.0543C19.7297 58.0486 19.7297 58.0486 19.7241 57.9678C19.7184 57.8888 19.7184 57.8888 19.6432 57.8888H19.5698V57.7289V57.569H19.4852H19.4005V57.3997V57.2304H19.3159H19.2313V57.0705V56.9107H19.1579C19.0827 56.9107 19.0827 56.9107 19.077 56.8298C19.0714 56.7508 19.0714 56.7508 18.9924 56.7451L18.9115 56.7395V56.5796V56.4216H18.8269H18.7422V56.2617V56.1019H18.667H18.5936L18.588 55.9363L18.5823 55.7727L18.5033 55.7671C18.4225 55.7614 18.4225 55.7614 18.4225 55.6881C18.4225 55.6147 18.4225 55.6147 18.3435 55.6091L18.2626 55.6034L18.2569 55.4379L18.2513 55.2743H18.1779H18.1027V55.1144V54.9545H18.0181H17.9334V54.7946V54.6347H17.8488H17.7641V54.5501V54.4654H17.6889H17.6137V54.3056V54.1457H17.529H17.4444V53.9764V53.8071H17.3597H17.2751V53.6472V53.4874H17.2017C17.1265 53.4874 17.1265 53.4874 17.1208 53.4065C17.1152 53.3275 17.1152 53.3275 17.0362 53.3218L16.9553 53.3162V53.1563V52.9983H16.8707H16.786V52.8384V52.6786H16.7108H16.6356V52.5939V52.5093H15.6575H14.6794V52.6673ZM15.6575 54.3808V54.4654H15.7421H15.8268V54.6253V54.7852H15.902H15.9772V54.9451V55.105H16.0619H16.1465V55.2743V55.4435H16.2312H16.3158V55.6034V55.7633H16.391H16.4663V55.9232V56.0831H16.5509H16.6356V56.1677V56.2523H16.7202H16.8048V56.4122V56.5721H16.8801H16.9553V56.7414V56.9107H17.04H17.1246V56.9953V57.08H15.6575H14.1903V56.9107V56.7414H14.2656H14.3408V56.5815V56.4216H14.4255H14.5101V56.2523V56.0831H14.5947H14.6794V55.9232V55.7633H14.7546H14.8299V55.6034V55.4435H14.9145H14.9991V55.2743V55.105H15.0838H15.1684V54.9451V54.7852H15.2418C15.317 54.7852 15.317 54.7852 15.3227 54.7043C15.3283 54.6253 15.3283 54.6253 15.4092 54.6197L15.4882 54.614V54.4542V54.2962H15.5728H15.6575V54.3808Z" fill="#C03434"/>
<path d="M22.6729 56.4216V60.334H23.6415H24.6102V58.8668V57.3997H25.3532H26.0962V57.475V57.5502H26.1714H26.2466V57.6348V57.7195H26.3313H26.4159V57.8041V57.8888H26.5006H26.5852V57.964V58.0392H26.6604H26.7357V58.1239V58.2085H26.8937H27.0536L27.0592 58.2875C27.0649 58.3684 27.0649 58.3684 27.1457 58.374C27.2247 58.3797 27.2247 58.3797 27.2247 58.4549V58.5283H27.3094H27.394V58.6129V58.6976H27.4674C27.5426 58.6976 27.5426 58.6976 27.5483 58.7766C27.5539 58.8574 27.5539 58.8574 27.6348 58.8631C27.7138 58.8687 27.7138 58.8687 27.7138 58.944V59.0173H27.7984H27.8831V59.102V59.1866H27.9564C28.0317 59.1866 28.0317 59.1866 28.0373 59.2656C28.0429 59.3465 28.0429 59.3465 28.1238 59.3521C28.2028 59.3578 28.2028 59.3578 28.2028 59.433V59.5064H28.2875H28.3721V59.591V59.6757H28.4455C28.5207 59.6757 28.5207 59.6757 28.5263 59.7547C28.532 59.8355 28.532 59.8355 28.6129 59.8412C28.6919 59.8468 28.6919 59.8468 28.6919 59.9221V59.9954H28.7765H28.8612V60.0801V60.1647H28.9345C29.0097 60.1647 29.0097 60.1647 29.0154 60.2437L29.021 60.3246L30.3998 60.3302L31.7766 60.334V60.1741V60.0142H31.6167H31.4569V59.9296V59.8449H31.3722H31.2876V59.7603V59.6757H31.2123H31.1371V59.6004V59.5252H31.0524H30.9678V59.4405V59.3559H30.8832H30.7985V59.2713V59.1866H30.6386H30.4788V59.1133C30.4788 59.038 30.4788 59.038 30.3998 59.0324C30.3189 59.0267 30.3189 59.0267 30.3132 58.9458C30.3076 58.8668 30.3076 58.8668 30.2324 58.8668H30.159V58.7822V58.6976H30.0744H29.9897V58.6242C29.9897 58.549 29.9897 58.549 29.9107 58.5433C29.8298 58.5377 29.8298 58.5377 29.8242 58.4568L29.8186 58.3778H29.6587H29.5007V58.2932V58.2085H29.416H29.3314V58.1333V58.058H29.2561H29.1809V57.9734V57.8888H29.0963H29.0116V57.8041V57.7195H28.927H28.8423V57.6442V57.569H28.6825H28.5226V57.4844V57.3997H29.3408H30.159V57.3151V57.2304H30.3189H30.4788V57.1458V57.0611H30.6386H30.7966L30.8023 56.905L30.8079 56.7508L30.8888 56.7451L30.9678 56.7395V56.4103V56.0831H31.0524H31.1371V55.0297V53.9764H31.0524H30.9678V53.5739V53.1695L30.8888 53.1638C30.8079 53.1582 30.8079 53.1582 30.8023 53.0773C30.7966 52.9983 30.7966 52.9983 30.7233 52.9983C30.6499 52.9983 30.6499 52.9983 30.6443 52.9174C30.6386 52.8384 30.6386 52.8384 30.5596 52.8328C30.4788 52.8271 30.4788 52.8271 30.4788 52.7519V52.6786H30.2342H29.9897V52.5939V52.5093H26.3313H22.6729V56.4216ZM28.8612 54.0516V54.1269H29.021H29.1809V54.9432V55.7614L29.1019 55.7671C29.021 55.7727 29.021 55.7727 29.0154 55.8517L29.0097 55.9326H26.809H24.6102V54.9545V53.9764H26.7357H28.8612V54.0516Z" fill="#C03434"/>
<path d="M32.2842 53.2428V53.9764H33.9958H35.7075V57.1552V60.334H36.6762H37.6449V57.1552V53.9764H39.4412H41.2375V53.2428V52.5093H36.7608H32.2842V53.2428Z" fill="#C03434"/>
<path d="M43.3633 56.4216V60.334H44.2567H45.1502V57.8888V55.4435H45.3101H45.4699V55.5188V55.594H45.5546H45.6392V55.6787V55.7633H45.7239H45.8085V55.8479V55.9326H45.8837H45.959V56.0078V56.0831H46.0436H46.1283V56.1677V56.2523H46.2863H46.4461L46.4518 56.3313C46.4574 56.4122 46.4574 56.4122 46.5383 56.4179C46.6173 56.4235 46.6173 56.4235 46.6173 56.4987V56.5721H46.702H46.7866V56.6567V56.7414H46.86C46.9352 56.7414 46.9352 56.7414 46.9408 56.8204C46.9465 56.9013 46.9465 56.9013 47.0274 56.9069C47.1064 56.9126 47.1064 56.9126 47.1064 56.9878V57.0611H47.191H47.2756V57.1458V57.2304H47.4355H47.5954V57.3151V57.3997H47.68H47.7647V57.475V57.5502H47.8399H47.9152V57.6348V57.7195H47.9998H48.0844V57.8041V57.8888H48.1691H48.2537V57.964V58.0392H48.4136H48.5735V58.1239V58.2085H48.6581H48.7428V58.2932V58.3778H48.818H48.8933V58.453V58.5283H48.9779H49.0625V58.6129V58.6976H49.1472H49.2318V58.7822V58.8668H49.3917H49.5516V58.9402C49.5516 59.0154 49.5516 59.0154 49.6325 59.0211C49.7115 59.0267 49.7115 59.0267 49.7171 59.1057C49.7227 59.1866 49.7227 59.1866 49.7961 59.1866C49.8695 59.1866 49.8695 59.1866 49.8751 59.2656C49.8807 59.3465 49.8807 59.3465 49.9616 59.3521C50.0406 59.3578 50.0406 59.3578 50.0406 59.4311C50.0406 59.5045 50.0406 59.5045 50.1215 59.5101C50.2005 59.5158 50.2005 59.5158 50.2061 59.5948L50.2118 59.6757H50.3717H50.5297V59.7603V59.8449H50.6143H50.699V59.9202V59.9954H50.7742H50.8494V60.0801V60.1647H50.9341H51.0187V60.2493V60.334L51.7485 60.3302L52.4764 60.3246L52.4821 56.416L52.4859 52.5093H51.5924H50.699V54.9545V57.3997H50.6162H50.5316L50.5259 57.3188C50.5203 57.2398 50.5203 57.2398 50.4413 57.2342C50.3604 57.2285 50.3604 57.2285 50.3604 57.1552C50.3604 57.0818 50.3604 57.0818 50.2814 57.0762C50.2005 57.0705 50.2005 57.0705 50.1949 56.9897C50.1892 56.9107 50.1892 56.9107 50.1159 56.9107C50.0425 56.9107 50.0425 56.9107 50.0369 56.8298L50.0312 56.7508L49.8676 56.7451L49.7021 56.7395V56.6661C49.7021 56.5909 49.7021 56.5909 49.6268 56.5909H49.5516V56.5063V56.4216H49.4669H49.3823V56.337V56.2523H49.2977H49.213V56.1771V56.1019H49.0531H48.8933V56.0172V55.9326H48.8086H48.724V55.8479V55.7633H48.6487H48.5735V55.6881V55.6128H48.4888H48.4042V55.5282V55.4435H48.3196H48.2349V55.3589V55.2743H48.075H47.9152V55.2009C47.9152 55.1257 47.9152 55.1257 47.8362 55.12C47.7553 55.1144 47.7553 55.1144 47.7496 55.0335C47.744 54.9545 47.744 54.9545 47.6706 54.9545C47.5973 54.9545 47.5973 54.9545 47.5916 54.8736C47.586 54.7946 47.586 54.7946 47.507 54.789C47.4261 54.7833 47.4261 54.7833 47.4261 54.71C47.4261 54.6366 47.4261 54.6366 47.3471 54.631C47.2662 54.6253 47.2662 54.6253 47.2606 54.5444L47.255 54.4654H47.0951H46.9371V54.3808V54.2962H46.8524H46.7678V54.2209V54.1457H46.6925H46.6173V54.061V53.9764H46.5327H46.448V53.8918V53.8071H46.2881H46.1283V53.7319V53.6566H46.0436H45.959V53.572V53.4874H45.8743H45.7897V53.4027V53.3181H45.7145H45.6392V53.2428V53.1676H45.5546H45.4699V53.083V52.9983H45.3101H45.1502V52.9137V52.829H45.0655H44.9809V52.7557C44.9809 52.6804 44.9809 52.6804 44.9019 52.6748C44.821 52.6691 44.821 52.6691 44.8154 52.5883L44.8097 52.5093H44.0856H43.3633V56.4216Z" fill="#C03434"/>
<path d="M55.5898 56.4216V60.334H59.6527H63.7155V59.5158V58.6976H60.6214H57.5272V57.8794V57.0611H59.3235H61.1198V56.337V55.6128H59.3235H57.5272V54.7946V53.9764H60.5461H63.565V53.2428V52.5093H59.5774H55.5898V56.4216Z" fill="#C03434"/>
<path d="M66.0098 56.4216V60.334L66.9841 60.3302L67.9565 60.3246L67.9622 58.8612L67.9659 57.3997H68.7842H69.6024V57.475V57.5502H69.6776H69.7528V57.6348V57.7195H69.8375H69.9221V57.8041V57.8888H70.0068H70.0914V57.964V58.0392H70.1666H70.2419V58.1239V58.2085H70.3265H70.4112V58.2932V58.3778H70.4958H70.5805V58.453V58.5283H70.6557H70.7309V58.6129V58.6976H70.8156H70.9002V58.7822V58.8668H70.9849H71.0695V58.9421V59.0173H71.1447H71.22V59.102V59.1866H71.3046H71.3893V59.2713V59.3559H71.4739H71.5585V59.4311V59.5064H71.6338H71.709V59.591V59.6757H71.7937H71.8783V59.7603V59.8449H71.9629H72.0476V59.9202V59.9954H72.1228H72.1981V60.0801V60.1647H72.3673H72.5366V60.2493V60.334H73.8345H75.1323V60.1741V60.0142H75.0477H74.963V59.9296V59.8449H74.8897C74.8145 59.8449 74.8145 59.8449 74.8088 59.7641L74.8032 59.6851L74.6395 59.6794L74.474 59.6738V59.6004C74.474 59.5252 74.474 59.5252 74.3988 59.5252H74.3235V59.4405V59.3559H74.2389H74.1542V59.2713V59.1866H74.0696H73.985V59.1114V59.0361H73.9097H73.8345V58.9515V58.8668H73.6652H73.4959V58.7822V58.6976H73.4207H73.3454V58.6223V58.5471H73.2608H73.1762V58.4624V58.3778H73.0915H73.0069V58.2932V58.2085H72.9316C72.8564 58.2085 72.8564 58.2085 72.8564 58.1333V58.0599L72.6928 58.0543L72.5272 58.0486L72.5216 57.9678C72.5159 57.8888 72.5159 57.8888 72.4426 57.8888C72.3692 57.8888 72.3692 57.8888 72.3636 57.8079C72.3579 57.7289 72.3579 57.7289 72.2789 57.7232C72.1981 57.7176 72.1981 57.7176 72.1981 57.6442C72.1981 57.5709 72.1981 57.5709 72.1191 57.5652C72.0382 57.5596 72.0382 57.5596 72.0325 57.4787L72.0269 57.3997H72.8451H73.6652V57.3151V57.2304H73.8251H73.985V57.1458V57.0611H74.0696H74.1542V56.9878C74.1542 56.9126 74.1542 56.9126 74.2351 56.9069L74.3141 56.9013L74.3198 56.6605L74.3254 56.4216H74.3988H74.474V54.9545V53.4874H74.3988H74.3235V53.3275V53.1676H74.2389H74.1542V52.9983V52.829H73.9944H73.8345V52.7538V52.6786H73.6652H73.4959V52.5939V52.5093H69.7528H66.0098V56.4216ZM72.3673 54.0498C72.3673 54.125 72.3673 54.125 72.4482 54.1306C72.5272 54.1363 72.5272 54.1363 72.5329 54.2153C72.5385 54.2962 72.5385 54.2962 72.6138 54.2962H72.6871V54.9545V55.6128H72.6119H72.5366V55.6881V55.7633H72.452H72.3673V55.8479V55.9326H70.1666H67.9659V54.9545V53.9764H70.1666H72.3673V54.0498Z" fill="#C03434"/>
<path d="M78.4018 52.5883L78.3961 52.6691L78.1572 52.6748L77.9165 52.6804V52.7538V52.829H77.8318H77.7472V52.9137V52.9983H77.6626H77.5779V53.1582V53.3181H77.5027H77.4274V54.8698V56.4216H77.5027H77.5779V56.4969V56.5721H77.6626H77.7472V56.6567V56.7414H77.8318H77.9165V56.826V56.9107H77.9917H78.067V56.9859V57.0611H81.0012H83.9355V57.8794V58.6976H81.321H78.7065V58.2932V57.8888H78.3134H77.9184L77.9127 57.9678L77.9071 58.0486L77.4989 58.0543L77.0889 58.058V58.7822V59.5064H77.1735H77.2582V59.6757V59.8449H77.3428H77.4274V59.9202V59.9954H77.5027H77.5779V60.0801V60.1647H77.9071H78.2362V60.2493V60.334H81.4056H84.575V60.2493V60.1647H84.8177H85.0622L85.0678 60.0838L85.0735 60.0048L85.239 59.9992L85.4026 59.9935V59.8355V59.6757H85.4779H85.5531V59.5158V59.3559H85.6377H85.7224V57.8888V56.4216H85.6377H85.5531V56.2617V56.1019H85.4779H85.4026V56.0172V55.9326H85.318H85.2333V55.8479V55.7633H85.1487H85.0641V55.6881V55.6128H84.7443H84.4245V55.5282V55.4435H81.7348H79.045V54.71V53.9764H81.4903H83.9355V54.3808V54.7852H84.3399H84.7443V54.7006V54.6159H85.1487H85.5531V53.967V53.3181H85.4779H85.4026V53.1582V52.9983H85.318H85.2333V52.9137V52.829H85.1487H85.0641V52.7538V52.6786H84.8195H84.575V52.5939V52.5093H81.4922H78.4074L78.4018 52.5883Z" fill="#C03434"/>
<path d="M101.86 56.4216V60.334H102.754H103.647V57.8041V55.2743H103.732H103.817V55.3589V55.4435H103.901H103.986V55.5188V55.594H104.061H104.136V55.6787V55.7633H104.221H104.306V55.8479V55.9326H104.39H104.475V56.0078V56.0831H104.635H104.795V56.1677V56.2523H104.879H104.964V56.337V56.4216H105.039H105.114V56.4969V56.5721H105.199H105.284V56.6567V56.7414H105.368H105.453V56.826V56.9107H105.613H105.773V56.984C105.773 57.0593 105.773 57.0593 105.854 57.0649C105.933 57.0705 105.933 57.0705 105.938 57.1495C105.944 57.2304 105.944 57.2304 106.019 57.2304H106.092V57.3151V57.3997H106.177H106.262V57.4731C106.262 57.5483 106.262 57.5483 106.343 57.554C106.422 57.5596 106.422 57.5596 106.427 57.6386L106.433 57.7195H106.593H106.751V57.8041V57.8888H106.835H106.92V57.964V58.0392H106.995H107.071V58.1239V58.2085H107.155H107.24V58.2932V58.3778H107.324H107.409V58.453V58.5283H107.484H107.56V58.6129V58.6976H107.729H107.898V58.7822V58.8668H107.973H108.049V58.9421V59.0173H108.133H108.218V59.102V59.1866H108.303H108.387V59.2713V59.3559H108.462C108.538 59.3559 108.538 59.3559 108.538 59.4311V59.5045L108.703 59.5101L108.867 59.5158L108.873 59.5948C108.878 59.6757 108.878 59.6757 108.952 59.6757C109.025 59.6757 109.025 59.6757 109.031 59.7547C109.036 59.8355 109.036 59.8355 109.117 59.8412C109.196 59.8468 109.196 59.8468 109.196 59.9202C109.196 59.9935 109.196 59.9935 109.277 59.9992C109.356 60.0048 109.356 60.0048 109.362 60.0838C109.367 60.1647 109.367 60.1647 109.441 60.1647C109.514 60.1647 109.514 60.1647 109.52 60.2437L109.525 60.3246L110.255 60.3302L110.983 60.334V56.4216V52.5093H110.174H109.365V54.9545V57.3997H109.196H109.027V57.3151V57.2304H108.942H108.857V57.1552V57.08H108.782H108.707V56.9953V56.9107H108.622H108.538V56.826V56.7414H108.453H108.368V56.6661V56.5909H108.209H108.049V56.5063V56.4216H107.964H107.879V56.337V56.2523H107.804H107.729V56.1771V56.1019H107.644H107.56V56.0172V55.9326H107.402H107.242L107.236 55.8517C107.23 55.7727 107.23 55.7727 107.151 55.7671C107.071 55.7614 107.071 55.7614 107.071 55.6881C107.071 55.6147 107.071 55.6147 106.992 55.6091C106.911 55.6034 106.911 55.6034 106.905 55.5225C106.899 55.4435 106.899 55.4435 106.826 55.4435C106.753 55.4435 106.753 55.4435 106.747 55.3627C106.741 55.2837 106.741 55.2837 106.662 55.278C106.582 55.2724 106.582 55.2724 106.582 55.1971V55.1238H106.422H106.262V55.0391V54.9545H106.177H106.092V54.8698V54.7852H106.008H105.923V54.71V54.6347H105.848H105.773V54.5501V54.4654H105.688H105.603V54.3808V54.2962H105.444H105.284V54.2209V54.1457H105.199H105.114V54.061V53.9764H105.03H104.945V53.8918V53.8071H104.87H104.795V53.7319V53.6566H104.625H104.456V53.572V53.4874H104.383C104.307 53.4874 104.307 53.4874 104.302 53.4065C104.296 53.3275 104.296 53.3275 104.217 53.3218C104.136 53.3162 104.136 53.3162 104.136 53.241V53.1676H104.052H103.967V53.083V52.9983H103.894C103.818 52.9983 103.818 52.9983 103.813 52.9174L103.807 52.8384L103.643 52.8328L103.478 52.8271V52.7538C103.478 52.6786 103.478 52.6786 103.403 52.6786H103.327V52.5939V52.5093H102.594H101.86V56.4216Z" fill="#C03434"/>
<path d="M132.99 52.6691V52.829H133.065H133.141V52.9137V52.9983H133.225H133.31V53.0717C133.31 53.1469 133.31 53.1469 133.391 53.1525C133.47 53.1582 133.47 53.1582 133.476 53.2372C133.481 53.3181 133.481 53.3181 133.555 53.3181C133.628 53.3181 133.628 53.3181 133.634 53.3971C133.639 53.478 133.639 53.478 133.72 53.4836C133.799 53.4892 133.799 53.4892 133.799 53.5626C133.799 53.6359 133.799 53.6359 133.88 53.6416C133.959 53.6472 133.959 53.6472 133.965 53.7262C133.97 53.8071 133.97 53.8071 134.044 53.8071C134.117 53.8071 134.117 53.8071 134.123 53.8861C134.128 53.967 134.128 53.967 134.209 53.9726C134.288 53.9783 134.288 53.9783 134.288 54.0516C134.288 54.125 134.288 54.125 134.369 54.1306C134.448 54.1363 134.448 54.1363 134.454 54.2153C134.459 54.2962 134.459 54.2962 134.533 54.2962C134.606 54.2962 134.606 54.2962 134.612 54.3752C134.617 54.456 134.617 54.456 134.698 54.4617C134.777 54.4673 134.777 54.4673 134.777 54.5407C134.777 54.614 134.777 54.614 134.858 54.6197C134.937 54.6253 134.937 54.6253 134.943 54.7043C134.948 54.7852 134.948 54.7852 135.022 54.7852C135.095 54.7852 135.095 54.7852 135.101 54.8642C135.106 54.9451 135.106 54.9451 135.187 54.9507C135.266 54.9564 135.266 54.9564 135.266 55.0297C135.266 55.1031 135.266 55.1031 135.347 55.1087C135.426 55.1144 135.426 55.1144 135.432 55.1934C135.437 55.2743 135.437 55.2743 135.511 55.2743C135.584 55.2743 135.584 55.2743 135.59 55.3532C135.595 55.4341 135.595 55.4341 135.676 55.4398C135.755 55.4454 135.755 55.4454 135.755 55.5207V55.594H135.84H135.925V55.6787V55.7633H135.998C136.073 55.7633 136.073 55.7633 136.079 55.8423C136.084 55.9232 136.084 55.9232 136.165 55.9288C136.244 55.9345 136.244 55.9345 136.244 56.0097V56.0831H136.329H136.414V56.1677V56.2523H136.489H136.564V56.337V56.4216H136.489H136.414V56.5063V56.5909H136.329H136.244V56.6643C136.244 56.7395 136.244 56.7395 136.165 56.7451C136.084 56.7508 136.084 56.7508 136.079 56.8298C136.073 56.9107 136.073 56.9107 135.998 56.9107H135.925V56.9953V57.08H135.84H135.755V57.1533C135.755 57.2285 135.755 57.2285 135.676 57.2342C135.595 57.2398 135.595 57.2398 135.59 57.3188C135.584 57.3997 135.584 57.3997 135.509 57.3997H135.435V57.4844V57.569H135.351H135.266V57.7289V57.8888H135.182H135.097V57.9734V58.058H135.022H134.946V58.1333V58.2085H134.862H134.777V58.2932V58.3778H134.692H134.608V58.4624V58.5471H134.533H134.457V58.6223V58.6976H134.373H134.288V58.7822V58.8668H134.203H134.119V58.9515V59.0361H134.044H133.968V59.1114V59.1866H133.884H133.799V59.2713V59.3559H133.714H133.63V59.4405V59.5252H133.555H133.479V59.6851V59.8449H133.395H133.31V59.9296V60.0142H133.225H133.141V60.0895V60.1647H133.065H132.99V60.2493V60.334L134.124 60.3302L135.257 60.3246L135.262 60.2437C135.268 60.1647 135.268 60.1647 135.341 60.1647C135.415 60.1647 135.415 60.1647 135.42 60.0838C135.426 60.0048 135.426 60.0048 135.507 59.9992C135.586 59.9935 135.586 59.9935 135.586 59.9202C135.586 59.8468 135.586 59.8468 135.667 59.8412C135.746 59.8355 135.746 59.8355 135.751 59.7547C135.757 59.6757 135.757 59.6757 135.83 59.6757C135.904 59.6757 135.904 59.6757 135.909 59.5948C135.915 59.5158 135.915 59.5158 135.996 59.5101C136.075 59.5045 136.075 59.5045 136.075 59.4293V59.3559H136.16H136.244V59.2713V59.1866H136.318C136.393 59.1866 136.393 59.1866 136.399 59.1057C136.404 59.0267 136.404 59.0267 136.485 59.0211C136.564 59.0154 136.564 59.0154 136.564 58.9402V58.8668H136.649H136.733V58.6976V58.5283H136.809H136.884V58.453V58.3778H136.968H137.053V58.2932V58.2085H137.138H137.222V58.1239V58.0392H137.298H137.373V57.964V57.8888H137.457H137.542V57.8041V57.7195H137.627H137.711V57.633V57.5483L137.792 57.554C137.871 57.5596 137.871 57.5596 137.877 57.6386C137.883 57.7195 137.883 57.7195 137.956 57.7195C138.029 57.7195 138.029 57.7195 138.035 57.7985C138.041 57.8794 138.041 57.8794 138.121 57.885C138.2 57.8906 138.2 57.8906 138.2 57.964C138.2 58.0374 138.2 58.0374 138.281 58.043C138.36 58.0486 138.36 58.0486 138.366 58.1276C138.372 58.2085 138.372 58.2085 138.445 58.2085C138.518 58.2085 138.518 58.2085 138.524 58.2875C138.53 58.3684 138.53 58.3684 138.61 58.374C138.689 58.3797 138.689 58.3797 138.689 58.453C138.689 58.5264 138.689 58.5264 138.77 58.532C138.849 58.5377 138.849 58.5377 138.855 58.6167C138.861 58.6976 138.861 58.6976 138.934 58.6976C139.007 58.6976 139.007 58.6976 139.013 58.7766C139.019 58.8574 139.019 58.8574 139.1 58.8631C139.179 58.8687 139.179 58.8687 139.179 58.9421C139.179 59.0154 139.179 59.0154 139.259 59.0211C139.338 59.0267 139.338 59.0267 139.344 59.1057C139.35 59.1866 139.35 59.1866 139.425 59.1866H139.498V59.2713V59.3559H139.583H139.668V59.4293C139.668 59.5045 139.668 59.5045 139.748 59.5101C139.827 59.5158 139.827 59.5158 139.833 59.5948C139.839 59.6757 139.839 59.6757 139.912 59.6757C139.985 59.6757 139.985 59.6757 139.991 59.7547C139.997 59.8355 139.997 59.8355 140.078 59.8412C140.157 59.8468 140.157 59.8468 140.157 59.9202C140.157 59.9935 140.157 59.9935 140.238 59.9992C140.317 60.0048 140.317 60.0048 140.322 60.0838C140.328 60.1647 140.328 60.1647 140.401 60.1647C140.475 60.1647 140.475 60.1647 140.48 60.2437L140.486 60.3246H141.784H143.081V60.2493C143.081 60.1741 143.081 60.1741 143.002 60.1685C142.922 60.1628 142.922 60.1628 142.922 60.0895C142.922 60.0161 142.922 60.0161 142.843 60.0105C142.762 60.0048 142.762 60.0048 142.756 59.9239C142.75 59.8449 142.75 59.8449 142.677 59.8449C142.604 59.8449 142.604 59.8449 142.598 59.7641C142.592 59.6851 142.592 59.6851 142.513 59.6794C142.433 59.6738 142.433 59.6738 142.433 59.6004C142.433 59.5271 142.433 59.5271 142.354 59.5214C142.273 59.5158 142.273 59.5158 142.267 59.4349C142.261 59.3559 142.261 59.3559 142.188 59.3559C142.115 59.3559 142.115 59.3559 142.109 59.275C142.103 59.196 142.103 59.196 142.024 59.1904C141.944 59.1847 141.944 59.1847 141.944 59.1114C141.944 59.038 141.944 59.038 141.865 59.0324L141.784 59.0267L141.778 58.8612L141.772 58.6976H141.699C141.624 58.6976 141.624 58.6976 141.624 58.6223V58.5471H141.539H141.454V58.4624V58.3778H141.37H141.285V58.2932V58.2085H141.21H141.135V58.1333V58.058H141.05H140.965V57.9734V57.8888H140.881H140.796V57.8041V57.7195H140.721H140.646V57.6442V57.569H140.561H140.476V57.4844V57.3997H140.392H140.307V57.3151V57.2304H140.232H140.157V57.1552V57.08H140.072H139.987V56.9953V56.9107H139.903H139.818V56.826V56.7414H139.743H139.668V56.6661V56.5909H139.583H139.498V56.5063V56.4216H139.414H139.329V56.337V56.2523H139.254H139.179V56.0925V55.9326H139.254H139.329V55.8479V55.7633H139.414H139.498V55.6787V55.594H139.583H139.668V55.4341V55.2743H139.741C139.816 55.2743 139.816 55.2743 139.822 55.1934C139.827 55.1144 139.827 55.1144 139.908 55.1087C139.987 55.1031 139.987 55.1031 139.987 55.0278V54.9545H140.072H140.157V54.8698V54.7852H140.23C140.305 54.7852 140.305 54.7852 140.311 54.7043C140.317 54.6253 140.317 54.6253 140.397 54.6197C140.476 54.614 140.476 54.614 140.476 54.5388V54.4654H140.561H140.646V54.3808V54.2962H140.719C140.794 54.2962 140.794 54.2962 140.8 54.2153C140.806 54.1363 140.806 54.1363 140.886 54.1306C140.965 54.125 140.965 54.125 140.965 54.0498V53.9764H141.05H141.135V53.8918V53.8071H141.208C141.283 53.8071 141.283 53.8071 141.289 53.7262C141.295 53.6472 141.295 53.6472 141.375 53.6416C141.454 53.6359 141.454 53.6359 141.454 53.5626C141.454 53.4892 141.454 53.4892 141.535 53.4836C141.614 53.478 141.614 53.478 141.62 53.3971C141.626 53.3181 141.626 53.3181 141.699 53.3181C141.772 53.3181 141.772 53.3181 141.778 53.2372C141.784 53.1582 141.784 53.1582 141.865 53.1525C141.944 53.1469 141.944 53.1469 141.944 53.0717V52.9983H142.028H142.113V52.9137V52.829H142.188H142.263V52.6691V52.5093H141.125H139.987V52.5939V52.6786H139.912H139.837V52.7538V52.829H139.752H139.668V52.9137V52.9983H139.583H139.498V53.083V53.1676H139.423H139.348V53.3275V53.4874H139.263H139.179V53.572V53.6566H139.094H139.009V53.7319V53.8071H138.934H138.859V53.8918V53.9764H138.774H138.689V54.061V54.1457H138.605H138.52V54.2209V54.2962H138.445H138.37V54.3808V54.4654H138.285H138.2V54.5501V54.6347H138.116H138.031V54.71V54.7852H137.871H137.711V54.71V54.6347H137.627H137.542V54.5501V54.4654H137.457H137.373V54.3808V54.2962H137.298H137.222V54.2209V54.1457H137.138H137.053V54.061V53.9764H136.968H136.884V53.8918V53.8071H136.809H136.733V53.7319V53.6566H136.649H136.564V53.572V53.4874H136.479H136.395V53.4027V53.3181H136.32H136.244V53.2428V53.1676H136.16H136.075V53.083V52.9983H135.99H135.906V52.9137V52.829H135.83H135.755V52.7538V52.6786H135.671H135.586V52.5939V52.5093H134.288H132.99V52.6691Z" fill="#C03434"/>
<path d="M145.213 52.5883L145.207 52.6691L144.968 52.6748L144.727 52.6804V52.7538V52.829H144.643H144.558V52.9137V52.9983H144.473H144.389V53.1582V53.3181H144.314H144.238V56.4122V59.5064H144.314H144.387L144.393 59.67L144.398 59.8355L144.479 59.8412C144.558 59.8468 144.558 59.8468 144.558 59.9221V59.9954H144.718H144.878V60.0801V60.1647H145.12H145.365L145.371 60.2437L145.376 60.3246L148.467 60.3302L151.555 60.334V60.2493V60.1647H151.8H152.044V60.0801V59.9954H152.129H152.213V59.9202V59.8449H152.289H152.364V59.7603V59.6757H152.449H152.533V59.4311V59.1866H152.618H152.703V58.2932V57.3997H152.373H152.044V57.3151V57.2304H151.64H151.235V57.1552V57.08H150.991H150.746V57.8888V58.6976H148.461H146.176L146.179 56.416L146.185 54.1363L148.467 54.1306L150.746 54.1269V54.7852V55.4435H151.235H151.724V55.3589V55.2743H152.213H152.703V54.4654V53.6566H152.618H152.533V53.414V53.1695L152.454 53.1638L152.373 53.1582L152.368 52.9927L152.362 52.829H152.204H152.044V52.7538V52.6786H151.8H151.555V52.5939V52.5093H148.388H145.218L145.213 52.5883Z" fill="#C03434"/>
<path d="M155.472 56.4156L155.477 60.3242H159.465H163.452V59.5154V58.7066L160.439 58.701L157.424 58.6972V57.879V57.0608H159.136H160.847V56.3366V55.6125H159.136H157.424V54.7942V53.976L160.439 53.9723L163.452 53.9666L163.458 53.2368L163.462 52.5089H159.465H155.468L155.472 56.4156Z" fill="#C03434"/>
<path d="M165.907 56.4216V60.334L169.731 60.3302L173.553 60.3246L173.559 59.5101L173.563 58.6976H170.704H167.845V55.6034V52.5093H166.876H165.907V56.4216Z" fill="#C03434"/>
<path d="M175.352 56.416L175.358 60.3246L179.182 60.3302L183.004 60.334V59.5158V58.6976H180.154H177.305V55.6034V52.5093H176.327H175.349L175.352 56.416Z" fill="#C03434"/>
<path d="M184.811 56.4216V60.334L188.879 60.3302L192.946 60.3246L192.951 59.5101L192.955 58.6976H189.851H186.748L186.752 57.8831L186.757 57.0705L188.55 57.0649L190.341 57.0611V56.337V55.6128L188.55 55.6091L186.757 55.6034L186.752 54.789L186.748 53.9764H189.767H192.786V53.2428V52.5093H188.798H184.811V56.4216Z" fill="#C03434"/>
<path d="M195.4 56.4216V60.334H196.209H197.018V57.8041V55.2743H197.103H197.187V55.3589V55.4435H197.272H197.357V55.5169C197.357 55.5921 197.357 55.5921 197.437 55.5978C197.516 55.6034 197.516 55.6034 197.522 55.6824L197.528 55.7633H197.688H197.846V55.8479V55.9326H197.93H198.015V56.0078V56.0831H198.09H198.165V56.1677V56.2523H198.25H198.335V56.337V56.4216H198.419H198.504V56.4969V56.5721H198.664H198.824V56.6567V56.7414H198.908H198.993V56.826V56.9107H199.068H199.143V56.9859V57.0611H199.228H199.313V57.1458V57.2304H199.397H199.482V57.3151V57.3997H199.557C199.633 57.3997 199.633 57.3997 199.633 57.475V57.5483L199.798 57.554L199.962 57.5596L199.967 57.6386C199.973 57.7195 199.973 57.7195 200.048 57.7195H200.122V57.8041V57.8888H200.206H200.291V57.9621C200.291 58.0374 200.291 58.0374 200.372 58.043C200.451 58.0486 200.451 58.0486 200.456 58.1276C200.462 58.2085 200.462 58.2085 200.537 58.2085H200.611V58.2932V58.3778H200.78H200.949V58.453V58.5283H201.024H201.1V58.6129V58.6976H201.184H201.269V58.7822V58.8668H201.354H201.438V58.9421V59.0173H201.513H201.589V59.102V59.1866H201.758H201.927V59.2713V59.3559H202.002H202.078V59.4311V59.5064H202.162H202.247V59.591V59.6757H202.332H202.416V59.7603V59.8449H202.492C202.567 59.8449 202.567 59.8449 202.567 59.9202V59.9935L202.732 59.9992L202.896 60.0048L202.902 60.0838C202.907 60.1647 202.907 60.1647 202.982 60.1647H203.056V60.2493V60.334H203.789H204.523V56.4216V52.5093H203.63H202.736V54.9545V57.3997H202.651H202.567V57.3151V57.2304H202.482H202.397V57.1552V57.08H202.238H202.078V56.9953V56.9107H201.993H201.908V56.826V56.7414H201.824H201.739V56.6661V56.5909H201.664H201.589V56.5063V56.4216H201.504H201.419V56.337V56.2523H201.26H201.1V56.1771V56.1019H201.015H200.93V56.0172V55.9326H200.857C200.782 55.9326 200.782 55.9326 200.776 55.8517C200.77 55.7727 200.77 55.7727 200.691 55.7671C200.611 55.7614 200.611 55.7614 200.611 55.6862V55.6128H200.451H200.291V55.5282V55.4435H200.206H200.122V55.3589V55.2743H200.037H199.952V55.199V55.1238H199.877H199.802V55.0391V54.9545H199.717H199.633V54.8698V54.7852H199.473H199.313V54.71V54.6347H199.228H199.143V54.5501V54.4654H199.059H198.974V54.3808V54.2962H198.899H198.824V54.2209V54.1457H198.654H198.485V54.061V53.9764H198.412C198.337 53.9764 198.337 53.9764 198.331 53.8955C198.325 53.8165 198.325 53.8165 198.246 53.8109C198.165 53.8052 198.165 53.8052 198.165 53.73V53.6566H198.081H197.996V53.572V53.4874H197.923C197.847 53.4874 197.847 53.4874 197.842 53.4065L197.836 53.3275L197.673 53.3218L197.507 53.3162V53.2428C197.507 53.1676 197.507 53.1676 197.432 53.1676H197.357V53.083V52.9983H197.272H197.187V52.9137V52.829H197.103H197.018V52.7538V52.6786H196.943H196.868V52.5939V52.5093H196.134H195.4V56.4216Z" fill="#C03434"/>
<path d="M208.435 52.5939V52.6786H208.191H207.946V52.7519C207.946 52.8271 207.946 52.8271 207.867 52.8328C207.786 52.8384 207.786 52.8384 207.781 52.9174C207.775 52.9983 207.775 52.9983 207.7 52.9983H207.626V53.1582V53.3181H207.542H207.457V56.4122V59.5064H207.542H207.626V59.6757V59.8449H207.702H207.777V59.9202V59.9954H207.861H207.946V60.0801V60.1647H208.191H208.435V60.2493V60.334L211.61 60.3302L214.783 60.3246L214.789 60.2437L214.795 60.1647H215.039H215.282V60.0801V59.9954H215.357H215.432V59.9202V59.8449H215.517H215.602V59.7603V59.6757H215.686H215.771V59.4311V59.1866H215.846H215.921V58.2932V57.3997H215.603H215.284L215.278 57.3188L215.272 57.2398L214.864 57.2342L214.454 57.2304V57.1552V57.08H214.219H213.984V57.8888V58.6976H211.699H209.413V56.4122V54.1269L211.695 54.1306L213.974 54.1363L213.98 54.789L213.984 55.4435H214.464H214.943V55.3589V55.2743H215.432H215.921V54.4654V53.6566H215.846H215.771V53.4121V53.1676H215.686H215.602V53.083V52.9983H215.517H215.432V52.9137V52.829H215.357H215.282V52.7538V52.6786H215.037H214.793V52.5939V52.5093H211.614H208.435V52.5939Z" fill="#C03434"/>
<path d="M218.705 56.4216V60.334H222.693H226.68V59.5158V58.6976H223.661H220.642L220.646 57.8831L220.652 57.0705L222.36 57.0649L224.066 57.0611V56.337V55.6128L222.36 55.6091L220.652 55.6034L220.646 54.789L220.642 53.9764H223.661H226.68V53.2428V52.5093H222.693H218.705V56.4216Z" fill="#C03434"/>
<path d="M132.155 31.8983C128.349 34.3675 124.271 36.3891 120.523 37.6614C125.006 34.9512 128.94 32.1324 132.126 29.2886C136.079 25.7588 138.913 22.1603 140.18 18.6522C141.459 15.1143 141.139 11.6734 138.801 8.56246C137.029 6.20386 134.12 4.06396 129.944 2.19614C138.184 3.6927 142.891 6.15861 145.116 9.0333C147.655 12.313 147.066 16.2906 144.452 20.3913C141.838 24.4913 137.268 28.5816 132.155 31.8983Z" fill="#C03434" stroke="#C03434"/>
<path d="M147.164 20.8221C148.335 18.3635 149.094 16.2896 149.493 14.5124C150.092 11.8473 149.889 9.80961 149.012 8.14023C148.142 6.48355 146.647 5.26882 144.83 4.17032C143.627 3.44274 142.237 2.7415 140.752 1.99231C140.659 1.94553 140.566 1.89856 140.472 1.85139C142.124 1.98595 143.831 2.27737 145.415 2.76794C147.731 3.48515 149.723 4.60941 150.92 6.2317C152.097 7.82757 152.563 9.98449 151.681 12.912C151.018 15.1091 149.598 17.7261 147.164 20.8221Z" fill="#C03434" stroke="#C03434"/>
</svg>
